<svg width="65" height="95" viewBox="0 0 65 95" fill="none" xmlns="http://www.w3.org/2000/svg">
<path fill-rule="evenodd" clip-rule="evenodd" d="M13.1968 0.728509C0.114682 4.25481 -4.41001 20.9141 5.03399 30.7843L7.03405 32.8748L5.03399 34.9653C-1.67349 41.9755 -1.67349 53.1563 5.03399 60.1665L7.03405 62.257L5.03399 64.3475C-1.75627 71.4445 -1.66577 82.7666 5.23687 89.7198C15.0107 99.5659 31.8086 94.9693 35.2683 81.5023C35.7555 79.6046 35.9297 76.6819 35.9297 70.3937V61.8608L37.967 63.1251C46.6793 68.5327 58.6291 64.9403 63.1936 55.5414C66.4938 48.7464 65.1873 40.426 59.9626 34.9653L57.9625 32.8748L59.9626 30.7843C69.4834 20.8337 64.848 4.15542 51.6025 0.702151C47.9528 -0.248882 16.7448 -0.227709 13.1968 0.728509ZM29.0669 18.22V29.4911L21.8825 29.3424C13.8942 29.1778 12.6538 28.8196 9.92069 25.8913C7.62339 23.4297 6.99459 21.7731 6.99459 18.1837C6.99459 14.5939 7.62382 12.9364 9.92069 10.4774C12.7117 7.48901 14.3587 7.03272 22.5258 6.98648L29.0669 6.94933V18.22ZM51.7998 7.97252C53.9002 9.09466 56.0019 11.1804 57.0815 13.2146C58.3061 15.5207 58.3756 20.7097 57.2119 22.9367C56.1121 25.0423 54.0413 27.1647 52.0142 28.264C50.4928 29.0888 49.484 29.2111 43.1141 29.3424L35.9297 29.4911V18.1837V6.8763L43.1141 7.02321C49.098 7.14593 50.5495 7.30407 51.7998 7.97252ZM29.0669 47.6022V58.8733L21.8825 58.7247C13.8942 58.56 12.6538 58.2018 9.92069 55.2735C7.62339 52.8119 6.99459 51.1553 6.99459 47.5659C6.99459 43.9761 7.62382 42.3186 9.92069 39.8596C12.7117 36.8712 14.3587 36.4149 22.5258 36.3687L29.0669 36.3315V47.6022ZM52.0267 37.5327C54.022 38.5676 56.0993 40.6835 57.2119 42.8129C57.7759 43.8923 58.002 45.2533 58.002 47.5659C58.002 51.1553 57.3732 52.8119 55.0759 55.2735C52.7957 57.7166 50.7365 58.5643 47.0816 58.5643C43.4268 58.5643 41.3675 57.7166 39.0874 55.2735C36.7901 52.8119 36.1613 51.1553 36.1613 47.5659C36.1613 43.9761 36.7905 42.3186 39.0874 39.8596C40.4441 38.4069 42.0958 37.3642 44.0766 36.7092C45.8455 36.1246 50.178 36.5731 52.0267 37.5327ZM28.9936 72.9513C28.8336 80.884 28.5994 81.7733 25.9092 84.6557C23.629 87.0988 21.5698 87.9465 17.9149 87.9465C14.2601 87.9465 12.2008 87.0988 9.92069 84.6557C7.62339 82.1941 6.99459 80.5375 6.99459 76.9481C6.99459 73.3583 7.62382 71.7008 9.92069 69.2417C12.7143 66.2504 14.3557 65.7971 22.5619 65.7509L29.1394 65.7137L28.9936 72.9513Z" fill="#F77765"/>
</svg>
