<svg width="93" height="95" viewBox="0 0 93 95" fill="none" xmlns="http://www.w3.org/2000/svg">
<path fill-rule="evenodd" clip-rule="evenodd" d="M43.7597 0.104872C31.9646 1.13413 21.4986 6.10723 13.3072 14.5751C6.23169 21.8898 1.94724 30.6393 0.378114 40.9779C-0.126038 44.3002 -0.126038 50.7645 0.378114 54.0868C1.94724 64.4254 6.23169 73.1749 13.3072 80.4896C20.777 88.2115 29.9928 92.9654 40.6933 94.616C44.0266 95.1302 51.607 95.1275 55.1792 94.6107C65.6899 93.0903 73.7127 89.1192 80.3718 82.1409C86.6403 75.5719 90.6991 66.9509 92.5442 56.2863C92.9568 53.9022 93.0139 52.8516 92.9976 47.9552C92.9849 44.1372 92.8866 41.8808 92.6886 40.8722L92.3985 39.3922L70.2188 39.2218C58.0199 39.1279 47.909 39.1011 47.7498 39.1622C47.5112 39.2537 47.4605 40.8528 47.4605 48.2658V57.2582H60.3603C71.5974 57.2582 73.2602 57.2984 73.2602 57.5705C73.2602 58.097 72.2639 60.5648 71.3161 62.3863C68.9823 66.8712 65.0284 70.8681 60.6536 73.1645C58.6893 74.1957 55.2617 75.3321 52.7473 75.7861C49.7854 76.321 44.8333 76.2726 42.0281 75.6814C36.0735 74.4266 31.5008 71.9627 27.2629 67.7258C21.6629 62.1275 18.9116 55.4782 18.9116 47.5419C18.9116 39.9218 21.4988 33.3679 26.6782 27.8668C36.7003 17.2224 53.2259 15.8418 64.8013 24.6818L66.1758 25.7315L72.7844 19.1372C76.4192 15.5103 79.3895 12.447 79.3857 12.3301C79.3817 12.2132 78.6174 11.499 77.6874 10.7431C70.4205 4.83736 61.1089 1.02397 51.9014 0.183524C49.6232 -0.0245251 45.679 -0.0625825 43.7597 0.104872Z" fill="#F77765"/>
</svg>
