<svg width="129" height="89" viewBox="0 0 129 89" fill="none" xmlns="http://www.w3.org/2000/svg">
<path fill-rule="evenodd" clip-rule="evenodd" d="M72.7621 0.184079C61.4455 1.45127 52.61 8.16707 46.6364 20.0426C45.9164 21.474 45.0558 23.3515 44.7238 24.2148C44.3917 25.0782 41.713 31.9802 38.7708 39.5528C29.3651 63.762 30.2149 61.6358 30.2051 60.9869C30.2025 60.7972 30.0488 57.8307 29.8636 54.3948C28.2959 25.2803 28.2872 25.1548 27.6543 22.1963C26.5731 17.1429 23.5534 11.9151 19.5955 8.24501C14.57 3.58495 7.83477 0.54189 1.82028 0.214119L0 0.11482L0.104059 0.599801C0.1612 0.86649 3.45037 20.686 7.41334 44.6429C11.3763 68.5999 14.6599 88.3808 14.7105 88.6006L14.8024 89L16.5945 88.8857C23.0549 88.473 28.5534 86.7021 33.4033 83.4721C37.4799 80.7572 41.2986 76.728 44.191 72.0896C45.3896 70.1675 47.4143 66.2895 48.1085 64.5862C48.6616 63.2289 54.162 49.0927 58.035 39.0743L60.446 32.838L60.6491 34.2345C60.7607 35.0026 62.5652 47.6389 64.6589 62.3154L68.4659 88.9998L70.5503 88.8888C84.2222 88.1609 94.3679 81.1817 101.12 67.8606C101.684 66.7481 108.188 51.0807 115.573 33.0441L129 0.250334L127.566 0.199934C125.121 0.114152 121.32 0.746497 118.156 1.76502C115.851 2.50735 112.157 4.36383 110.13 5.79891C108.064 7.2612 104.143 11.1369 102.541 13.2996C100.21 16.4468 98.2012 20.0246 96.5682 23.9386C96.1875 24.8512 93.8748 31.8355 91.4288 39.4594C84.7243 60.3569 84.4352 61.2476 84.3757 61.1884C84.3454 61.1582 83.7916 57.0101 83.1451 51.9704C82.4985 46.9307 81.142 36.4098 80.1307 28.5907C79.1195 20.7716 77.9147 11.4216 77.4537 7.81293C76.9927 4.20428 76.5713 0.970129 76.5173 0.625836L76.4191 0L75.219 0.0216956C74.559 0.0335448 73.4534 0.106642 72.7621 0.184079Z" fill="#F77765"/>
</svg>
