<svg width="1009" height="985" viewBox="0 0 1009 985" fill="none" xmlns="http://www.w3.org/2000/svg">
<g opacity="0.3">
<path d="M12.778 251.566C-57.7135 -3.87296 203.413 -29.8735 391.86 47.2556C501.81 86.9222 574.016 -36.4378 710.223 12.7936C846.43 62.025 683.146 217.104 891.559 296.695C1099.97 376.285 998.227 732.392 816.07 736.495C633.914 740.597 683.966 800.496 501.81 937.523C319.654 1074.55 12.7784 884.189 89.087 683.161C165.396 482.133 89.0861 528.082 12.778 251.566Z" stroke="white" stroke-width="1.2494"/>
<path d="M404.822 450.36C396.688 426.031 434.784 386.782 465.417 403.532C493.468 418.871 522.033 408.526 540.905 415.364C590.588 433.366 572.313 442.895 594.522 464.276C621.548 490.293 634.444 558.422 572.313 558.422C521.212 558.422 536.502 583.241 498.237 594.238C459.973 605.235 416.578 586.515 416.578 537.232C416.578 518.725 418.368 490.881 404.822 450.36Z" stroke="white" stroke-width="1.2494"/>
<path d="M48.4128 268.397C-16.4097 33.968 224.441 6.76305 398.542 78.4032C501.046 115.858 569.285 2.77229 694.825 48.1497C823.166 94.5421 673.065 236.389 864.55 310.688C1056.47 385.409 965.15 715.335 793.905 719.065C623.663 722.795 670.555 779.504 501.48 905.074C332.405 1030.64 49.482 855.886 118.853 668.653C188.225 484.218 119.015 523.459 48.4128 268.397Z" stroke="white" stroke-width="1.2494"/>
<path d="M84.0491 285.229C24.8955 71.8098 245.471 43.4004 405.224 109.552C500.284 144.795 564.555 41.9831 679.428 83.5067C799.903 127.06 662.985 255.675 837.543 324.683C1012.98 394.533 932.075 698.28 771.741 701.636C613.413 704.993 657.145 758.513 501.151 872.626C345.157 986.739 86.187 827.585 148.621 654.147C211.056 486.304 148.946 518.837 84.0491 285.229Z" stroke="white" stroke-width="1.2494"/>
<path d="M119.684 302.062C66.1996 109.653 266.5 80.0395 411.906 140.702C499.52 173.733 559.824 81.1957 664.031 118.865C776.64 159.58 652.904 274.963 810.534 338.678C969.478 403.658 898.999 681.225 749.576 684.209C603.163 687.193 643.734 737.524 500.821 840.18C357.908 942.835 122.891 799.285 178.388 639.642C233.885 488.392 178.876 514.216 119.684 302.062Z" stroke="white" stroke-width="1.2494"/>
<path d="M155.321 318.896C107.505 147.497 287.53 116.679 418.589 171.852C498.758 202.672 555.095 120.409 648.634 154.224C753.378 192.1 642.825 294.251 783.527 352.675C925.981 412.784 865.924 664.172 727.413 666.782C592.913 669.393 630.324 716.535 500.492 807.733C370.661 898.932 159.596 770.985 208.156 625.137C256.716 490.48 208.807 509.596 155.321 318.896Z" stroke="white" stroke-width="1.2494"/>
<path d="M190.957 336.583C148.81 186.194 308.559 154.171 425.272 203.856C497.995 232.464 550.364 160.474 633.237 190.436C730.115 225.473 632.744 314.392 756.519 367.524C882.484 422.763 832.848 647.971 705.249 650.208C582.663 652.446 616.914 696.399 500.163 776.14C383.412 855.881 196.301 743.539 237.924 611.486C279.547 493.422 238.737 505.828 190.957 336.583Z" stroke="white" stroke-width="1.2494"/>
<path d="M226.593 355.279C190.115 225.9 329.589 192.673 431.955 236.868C497.233 263.265 545.635 201.549 617.841 227.657C706.853 259.855 622.665 335.543 729.512 383.383C838.987 433.751 799.773 632.779 683.085 634.644C572.414 636.509 603.504 677.273 499.835 745.556C396.165 813.84 233.006 717.102 267.692 598.843C302.378 497.372 268.668 503.07 226.593 355.279Z" stroke="white" stroke-width="1.2494"/>
<path d="M262.232 374.03C231.423 265.661 350.621 231.23 438.64 269.936C496.473 294.121 540.907 242.68 602.447 264.934C683.593 294.292 612.587 356.749 702.507 399.297C795.492 444.795 766.7 617.643 660.923 619.135C562.166 620.627 590.097 658.202 499.508 715.028C408.92 771.854 269.714 690.72 297.462 586.257C325.211 501.378 298.601 500.368 262.232 374.03Z" stroke="white" stroke-width="1.2494"/>
<path d="M297.871 392.863C272.731 305.504 371.653 269.868 445.326 303.085C495.713 325.059 536.18 283.892 587.053 302.292C660.333 328.811 602.51 378.036 675.502 415.292C751.997 455.92 733.628 602.588 638.762 603.707C551.919 604.826 576.69 639.212 499.182 684.581C421.674 729.95 306.421 664.419 327.233 573.751C348.044 505.465 328.534 497.746 297.871 392.863Z" stroke="white" stroke-width="1.2494"/>
<path d="M333.513 411.815C314.042 345.466 392.689 308.626 452.015 336.354C494.957 356.116 531.456 325.223 571.662 339.769C637.077 363.449 592.436 399.442 648.501 431.406C708.506 467.164 700.559 587.652 616.604 588.398C541.676 589.144 563.286 620.341 498.859 654.253C434.433 688.165 343.132 638.238 357.007 561.364C370.881 509.671 358.471 495.244 333.513 411.815Z" stroke="white" stroke-width="1.2494"/>
<path d="M369.16 430.947C355.357 385.608 413.729 347.564 458.708 369.803C494.205 387.353 526.737 366.734 556.276 377.426C613.825 398.268 582.367 421.028 621.504 447.701C665.02 478.589 667.494 572.897 594.451 573.27C531.436 573.643 549.886 601.651 498.541 624.105C447.195 646.559 379.848 612.236 386.785 549.158C393.722 514.058 388.412 492.922 369.16 430.947Z" stroke="white" stroke-width="1.2494"/>
</g>
</svg>
