<svg width="1211" height="1193" viewBox="0 0 1211 1193" fill="none" xmlns="http://www.w3.org/2000/svg">
<path d="M1096.94 443.177C1171.75 408.37 1199.67 259.653 1048.33 294.264C1023.51 299.939 980.342 303.301 927.463 302.558C879.023 301.877 847.313 225.655 783.434 205.973C683.251 175.106 624.858 320.226 572.015 301.396C502.804 276.733 467.496 189.098 427.328 142.041C389.514 97.7412 331.938 71.8218 274.058 64.3245C172.515 51.1713 70.0359 94.7181 71.683 195.191C72.5076 245.488 99.4257 310.049 165.617 388.905C195.212 424.162 219.748 455.357 239.767 483.205C291.295 554.88 180.182 542.284 182.269 631.574C183.458 682.451 281.825 728.924 234.046 772.493C200.073 803.473 158.723 839.186 117.109 888.991C44.0285 976.458 39.4801 1079.86 152.813 1086.66C206.314 1089.87 286.082 1071.56 397.311 1019.88C468.49 986.814 470.702 1056.77 564.934 1058.38C659.167 1059.99 697.858 991.284 739.896 1036.22L740.739 1037.12C772.778 1071.36 806.948 1107.89 868.932 1124.86C922.324 1139.49 973.849 1134.2 1012.4 1115.02C1053.66 1094.49 1080.07 1058.03 1078 1013.01C1075.93 967.844 1045.2 914.052 972.06 859.071C923.837 822.821 1027.93 788.888 1012.26 719.092C996.593 649.296 893.718 646.504 920.461 602.213C966.916 525.275 1009.31 483.943 1096.94 443.177Z" stroke="white" stroke-opacity="0.3" stroke-width="1.25"/>
<path d="M687.555 614.421C699.043 609.117 694.51 588.383 681.652 588.2C667.013 587.992 648.549 596.651 633.899 596.802C605.614 597.093 596.912 587.691 580.703 568.892C574.903 562.154 566.066 558.214 557.182 557.079C541.595 555.086 525.86 561.723 526.103 577.014C526.225 584.668 530.352 594.492 540.506 606.487C545.045 611.85 548.809 616.595 551.88 620.832C566.212 639.208 557.248 657.84 550.975 664.86C545.757 669.578 539.406 675.017 533.014 682.6C521.787 695.919 524.668 714.723 538.477 712.681C557.985 709.796 628.898 671.286 644.068 705.435C651.114 721.298 664.51 719.842 670.43 716.919C676.766 713.79 680.823 708.24 680.51 701.388C680.196 694.514 668.165 683.916 664.26 677.969C649.844 656.016 641.804 636.097 687.555 614.421Z" stroke="white" stroke-opacity="0.3" stroke-width="1.25"/>
<path d="M1016.53 320.991C1154.34 290.035 1128.79 425.94 1060.2 457.851C976.351 496.911 938.502 536.33 897.539 608.331C873.384 648.902 967.342 651.818 981.917 715.711C996.491 779.604 902.064 810.876 945.954 844.172C1012.53 894.821 1040.12 944.27 1041.44 985.654C1043.05 1026.75 1018.59 1060.02 980.599 1078.58C945.073 1095.92 897.733 1100.4 848.838 1086.38C790.58 1067.69 753.044 1037.5 721.911 1006.37C683.041 965.581 647.462 1027.72 561.633 1025.69C475.804 1023.67 473.98 959.289 409.726 988.773C309.105 1035.1 237.103 1051.27 188.898 1047.92C86.0679 1041.41 90.5492 946.744 157.15 866.449C195.121 820.42 232.621 787.084 262.883 758.06C306.076 718.033 216.24 675.316 214.748 628.536C212.39 546.748 313.16 557.713 266.07 492.05C247.647 466.265 225.227 437.483 198.296 405.056C138.05 331.916 114.979 272.57 115.635 226.989C114.537 135.622 208.174 96.1163 300.925 108.264C353.95 115.265 406.664 139.092 441.33 179.705C479.34 224.232 512.25 304.825 577.772 327.241C626.51 344.367 680.384 212.126 772.278 240.016C831.144 257.729 860.741 326.889 905.473 327.519C954.164 328.204 993.833 325.621 1016.53 320.991Z" stroke="white" stroke-opacity="0.3" stroke-width="1.25"/>
<path d="M983.396 348.911C1107.23 321.671 1084.13 444.563 1022 473.521C942.217 510.808 909.046 548.252 873.715 615.206C852.232 651.993 936.964 655.042 950.405 712.94C963.846 770.837 879.397 799.39 918.813 829.688C978.609 875.939 1002.98 920.976 1003.54 958.512C1004.7 995.621 982.27 1025.65 947.681 1042.22C915.303 1057.69 872.305 1061.35 828.064 1047.94C774.265 1027.7 733.551 1004.39 703.671 976.673C668.092 940.08 635.751 995.545 558.606 993.103C481.461 990.662 480.021 931.95 422.905 957.796C333.225 998.696 269.225 1012.69 226.472 1009.19C134.48 1002.97 138.867 917.187 198.76 844.188C232.959 802.008 266.481 771.103 292.932 744.082C331.392 707.66 250.376 668.75 248.581 626.136C245.951 551.969 336.051 561.299 293.544 501.74C276.774 478.053 256.541 451.725 232.357 422.171C178.245 354.847 159.086 300.801 161.212 260.002C160.655 177.877 245.138 142.482 328.794 153.617C376.791 160.119 424.473 181.824 455.883 218.697C491.612 260.633 522.025 334.07 583.641 354.213C628.116 369.617 677.276 250.457 760.585 275.34C814.245 291.064 841.639 353.066 882.516 353.648C926.857 354.281 962.895 352.486 983.396 348.911Z" stroke="white" stroke-opacity="0.3" stroke-width="1.25"/>
<path d="M951.596 375.632C1061.9 352.048 1041.16 462.12 985.262 488.181C909.253 523.764 880.632 559.297 850.793 621.314C831.898 654.376 907.712 657.551 920.059 709.541C932.406 761.531 857.623 787.422 892.704 814.764C945.933 856.681 967.17 897.371 966.969 931.118C967.674 964.3 947.191 991.142 915.875 1005.75C886.526 1019.37 847.713 1022.22 807.969 1009.4C758.438 987.602 714.417 971.139 685.689 946.791C653.278 914.344 624.049 963.229 555.308 960.376C486.567 957.523 485.515 904.388 435.323 926.645C356.25 962.193 300.017 974.036 262.559 970.404C181.071 964.478 185.391 887.432 238.804 821.609C269.361 783.207 299.032 754.679 321.772 729.614C355.646 696.735 283.161 661.585 281.064 623.07C278.164 556.41 357.921 564.106 319.852 510.563C304.678 488.941 286.561 465.027 265.04 438.305C216.875 376.699 201.562 327.872 205.169 291.792C205.161 218.782 280.802 187.43 355.666 197.559C398.808 203.564 441.628 223.175 469.889 256.359C503.459 295.767 531.473 362.156 589.399 380.051C629.769 393.75 674.41 287.478 749.43 309.381C798.076 323.134 823.357 378.069 860.525 378.6C900.678 379.174 933.215 378.159 951.596 375.632Z" stroke="white" stroke-opacity="0.3" stroke-width="1.25"/>
<path d="M919.872 403.442C1016.64 383.545 998.253 480.604 948.581 503.727C876.339 537.554 852.267 571.117 827.915 628.092C811.606 657.374 878.499 660.66 889.746 706.65C900.993 752.639 835.877 775.831 866.619 800.164C913.272 837.666 931.365 873.936 930.4 903.834C930.648 933.03 912.108 956.638 884.063 969.253C857.741 981.01 823.114 983.061 787.87 970.863C742.609 947.535 695.27 937.953 667.693 917.026C638.455 888.786 612.334 931.008 552 927.756C491.666 924.505 491.008 877.041 447.743 895.675C379.278 925.818 330.814 935.499 298.654 931.737C227.675 926.126 231.938 857.957 278.876 799.418C305.795 764.859 331.617 738.755 350.646 715.687C379.936 686.405 315.99 655.085 313.593 620.738C310.43 561.702 379.839 567.741 346.216 520.315C332.641 500.796 316.644 479.342 297.791 455.5C255.582 399.727 244.126 356.207 249.22 324.91C249.771 261.143 316.571 233.881 382.638 242.977C420.924 248.469 458.878 265.947 483.985 295.381C515.393 332.185 541.001 391.408 595.238 407.014C631.501 418.98 671.635 325.78 738.362 344.654C781.991 356.405 805.153 404.172 838.613 404.647C874.575 405.156 903.612 404.92 919.872 403.442Z" stroke="white" stroke-opacity="0.3" stroke-width="1.25"/>
<path d="M886.572 431.351C969.586 415.153 953.606 499.193 910.275 519.371C841.967 551.426 822.502 583.009 803.7 634.931C790.017 660.43 847.84 663.836 857.969 703.824C868.097 743.812 812.797 764.294 839.134 785.622C879.114 818.714 894.029 850.564 892.308 876.612C892.102 901.821 875.549 922.192 850.841 932.814C827.607 942.702 797.243 943.943 766.576 932.365C725.683 907.511 675.132 904.797 648.768 887.286C622.763 863.248 599.814 898.804 548.021 895.146C496.228 891.488 495.958 849.699 459.718 864.704C402.017 889.432 361.431 896.945 334.641 893.05C274.327 887.742 278.512 828.454 318.864 777.211C342.078 746.5 363.991 722.827 379.264 701.763C403.901 676.084 348.63 648.585 345.935 618.408C342.508 566.999 401.415 571.393 372.305 530.08C360.356 512.664 346.513 493.669 330.365 472.706C294.198 422.764 286.616 384.552 293.181 358.038C294.28 303.515 352.086 280.354 409.211 288.425C442.555 293.411 475.561 308.759 497.464 334.445C526.644 368.646 549.798 420.702 600.225 434.028C632.302 444.265 667.825 364.145 726.113 380.001C764.63 389.757 785.628 430.36 815.305 430.783C846.998 431.233 872.468 431.778 886.572 431.351Z" stroke="white" stroke-opacity="0.3" stroke-width="1.25"/>
<path d="M854.771 458.048C924.244 445.512 910.625 516.71 873.527 533.985C808.982 564.336 794.073 594.006 780.772 640.985C769.679 662.754 818.578 666.285 827.612 700.355C836.647 734.425 791.022 752.241 813.021 770.607C846.427 799.357 858.201 826.854 855.718 849.105C855.057 870.379 840.45 887.556 819.015 896.209C798.81 904.248 772.634 904.683 746.466 893.701C709.841 867.272 655.954 871.42 630.735 857.291C607.9 837.406 588.064 866.37 544.682 862.299C501.3 858.229 501.418 822.027 472.111 833.435C425.028 852.801 392.217 858.163 370.729 854.128C320.928 849.115 325.049 798.584 358.916 754.528C378.487 727.601 396.545 706.309 408.102 687.203C428.148 665.074 381.414 641.341 378.415 615.27C374.717 571.381 423.271 574.137 398.602 538.851C388.25 523.503 376.525 506.927 363.043 488.801C332.828 444.586 329.102 411.602 337.155 389.816C338.806 344.426 387.763 325.315 436.09 332.377C464.577 336.865 492.718 350.115 511.47 372.106C538.494 403.775 559.249 448.772 605.993 459.843C633.965 468.371 664.968 401.164 714.964 414.033C748.465 421.814 767.35 455.336 793.318 455.706C820.82 456.098 842.788 457.425 854.771 458.048Z" stroke="white" stroke-opacity="0.3" stroke-width="1.25"/>
<path d="M823.047 485.817C878.968 476.966 867.7 535.135 836.835 549.469C776.035 578.048 765.684 605.728 757.883 647.639C749.38 665.623 789.347 669.261 797.282 697.322C805.217 725.383 769.274 740.493 786.927 755.845C813.749 780.171 822.372 803.24 819.121 821.638C818 838.922 805.336 852.862 787.174 859.526C769.998 865.7 748.011 865.331 726.348 854.98C693.994 827.054 636.742 838.063 612.666 827.356C593.003 811.681 576.278 833.982 541.314 829.517C506.35 825.052 506.865 794.533 484.497 802.321C448.041 816.282 423.013 819.485 406.833 815.323C367.558 810.627 371.624 768.986 399.009 732.227C414.937 709.152 429.141 690.294 436.98 673.196C452.434 654.671 414.249 634.775 410.948 612.881C406.984 576.627 445.174 577.731 424.956 548.57C416.205 535.331 406.602 521.221 395.791 505.981C371.542 467.617 371.686 439.948 381.237 422.945C383.449 386.804 423.556 371.785 463.076 377.811C486.702 381.785 509.973 392.896 525.569 411.131C550.435 440.177 568.785 477.993 611.85 486.772C635.713 493.565 662.207 439.44 703.904 449.28C732.386 455.058 749.154 481.409 771.412 481.722C794.723 482.049 813.187 484.15 823.047 485.817Z" stroke="white" stroke-opacity="0.3" stroke-width="1.25"/>
<path d="M791.275 512.872C833.626 507.683 824.734 553.132 800.111 564.59C743.045 591.54 737.272 617.387 735.003 654.464C729.101 668.756 760.13 672.539 766.976 694.745C773.823 716.951 747.58 729.425 760.888 741.854C781.128 761.9 786.603 780.669 782.587 795.311C781.01 808.697 770.293 819.471 755.409 824.173C741.265 828.507 723.469 827.323 706.31 817.533C678.214 787.927 617.556 805.86 594.609 798.513C578.113 786.957 564.508 802.703 537.97 797.803C511.433 792.903 512.334 767.9 496.92 772.094C471.113 780.706 453.883 781.752 443.02 777.433C414.283 773.011 418.28 740.035 439.162 710.384C451.435 691.04 461.773 674.516 465.878 659.332C476.725 644.317 447.089 628.134 443.476 610.295C439.228 581.481 467.041 580.948 451.266 557.747L450.859 557.11C443.828 546.097 436.474 534.58 428.486 522.374C410.194 489.637 414.212 467.132 425.265 454.827C428.028 427.745 459.27 416.756 489.977 421.794C508.739 425.285 527.14 434.328 539.585 448.911C562.31 475.511 578.271 506.358 617.672 512.908C637.428 518.01 659.392 476.69 692.788 483.568C716.252 487.384 730.915 506.707 749.463 506.972C768.582 507.245 783.54 510.142 791.275 512.872Z" stroke="white" stroke-opacity="0.3" stroke-width="1.25"/>
<path d="M757.926 540.692C786.521 539.199 780.032 571.576 761.759 580.075C708.681 605.206 707.504 629.026 710.767 660.99C707.488 671.48 729.44 675.374 735.163 691.551C740.885 707.728 724.456 717.475 733.358 726.882C746.921 742.489 749.22 756.813 744.454 767.587C742.426 776.97 733.702 784.495 722.16 787.202C711.11 789.664 697.586 787.676 685.008 778.525C661.302 747.462 597.515 772.207 575.804 768.283C562.551 760.942 552.122 770.01 534.129 764.717C516.137 759.423 517.425 740.128 509.031 740.698C493.983 743.895 484.625 742.779 479.127 738.337C461.054 734.229 464.972 710.175 479.265 687.856C487.834 672.389 494.263 658.321 494.621 645.165C500.818 633.772 479.865 621.435 475.96 607.79C471.456 586.638 488.769 584.465 477.512 567.407C471.988 558.321 466.66 549.071 461.225 539.527C448.979 512.671 456.855 495.504 469.362 487.992C472.669 470.183 494.91 463.302 516.668 467.307C530.483 470.284 543.929 477.184 553.165 488C573.641 511.948 587.134 535.586 622.691 539.846C638.251 543.213 655.595 515.017 680.54 518.869C698.881 520.688 711.368 532.827 726.124 533.039C740.963 533.252 752.349 536.921 757.926 540.692Z" stroke="white" stroke-opacity="0.3" stroke-width="1.25"/>
<path d="M726.178 568.779C741.117 570.962 737.012 590.371 725.032 595.936C675.82 619.291 679.223 641.124 688.007 668.038C687.337 674.758 700.284 678.766 704.897 688.963C709.51 699.16 702.83 706.207 707.357 712.617C714.291 723.825 713.429 733.744 707.905 740.682C705.424 746.094 698.669 750.396 690.436 751.121C682.449 751.723 673.154 748.933 665.12 740.406C645.744 707.855 578.706 739.415 558.182 738.892C548.135 735.737 540.853 738.171 531.343 732.48C521.833 726.788 523.51 713.15 522.097 710.112C517.746 707.925 516.218 704.654 516.057 700.084C508.58 696.283 512.427 681.077 520.181 666.028C525.074 654.399 527.619 642.759 524.243 631.605C525.817 623.803 513.479 615.277 509.275 605.789C504.506 592.237 511.386 588.428 504.612 577.463C500.702 570.476 497.512 563.678 494.765 557.004C488.522 535.969 500.261 524.091 514.242 521.339C518.099 512.735 531.412 509.934 544.291 512.916C553.201 515.384 561.736 520.161 567.79 527.241C586.064 548.58 597.124 565.072 628.921 567.058C640.33 568.701 653.104 553.53 669.674 554.377C682.944 554.208 693.288 559.214 704.292 559.373C714.896 559.525 722.744 563.967 726.178 568.779Z" stroke="white" stroke-opacity="0.3" stroke-width="1.25"/>
</svg>
