<svg width="303" height="248" viewBox="0 0 303 248" fill="none" xmlns="http://www.w3.org/2000/svg">
<path d="M290.607 161.178C290.354 170.628 288.775 179.996 285.915 189.004C285.849 189.213 285.781 189.419 285.712 189.628H268.202C268.221 189.441 268.239 189.232 268.258 189.004C269.426 175.553 276.157 93.6845 268.109 79.6841C268.812 80.8198 291.964 118.437 290.607 161.178Z" fill="#F0F0F0"/>
<path d="M289.293 189.004C289.146 189.214 288.994 189.423 288.838 189.629H275.702C275.802 189.451 275.917 189.242 276.051 189.004C278.221 185.079 284.644 173.344 290.607 161.178C297.014 148.105 302.892 134.535 302.397 129.624C302.55 130.731 306.984 164.498 289.293 189.004Z" fill="#F0F0F0"/>
<path d="M34.8912 26.5303C26.8429 40.5307 33.5742 122.399 34.7418 135.85C34.7605 136.078 34.7791 136.287 34.7978 136.474H17.2876C17.219 136.265 17.1505 136.059 17.0852 135.85C14.2251 126.842 12.6456 117.474 12.3931 108.024C11.0357 65.2834 34.1876 27.666 34.8912 26.5303Z" fill="#F0F0F0"/>
<path d="M0.602492 76.4692C0.107422 81.3805 5.98571 94.9503 12.3933 108.024C18.3556 120.19 24.7787 131.925 26.9488 135.85C27.0827 136.087 27.1979 136.296 27.2975 136.474H14.1617C14.006 136.268 13.8535 136.059 13.7071 135.85C-3.98374 111.344 0.449888 77.5769 0.602492 76.4692Z" fill="#F0F0F0"/>
<path d="M300.654 15.3829H6.87877C6.76569 15.3829 6.65724 15.3379 6.57728 15.2578C6.49732 15.1776 6.45239 15.0689 6.45239 14.9556C6.45239 14.8423 6.49732 14.7336 6.57728 14.6535C6.65724 14.5733 6.76569 14.5283 6.87877 14.5283H300.654C300.767 14.5283 300.875 14.5733 300.955 14.6535C301.035 14.7336 301.08 14.8423 301.08 14.9556C301.08 15.0689 301.035 15.1776 300.955 15.2578C300.875 15.3379 300.767 15.3829 300.654 15.3829Z" fill="#CACACA"/>
<path d="M16.4756 9.40061C19.0659 9.40061 21.1657 7.29621 21.1657 4.7003C21.1657 2.1044 19.0659 0 16.4756 0C13.8853 0 11.7854 2.1044 11.7854 4.7003C11.7854 7.29621 13.8853 9.40061 16.4756 9.40061Z" fill="white"/>
<path d="M32.678 9.40061C35.2683 9.40061 37.3681 7.29621 37.3681 4.7003C37.3681 2.1044 35.2683 0 32.678 0C30.0877 0 27.9878 2.1044 27.9878 4.7003C27.9878 7.29621 30.0877 9.40061 32.678 9.40061Z" fill="white"/>
<path d="M48.8803 9.40061C51.4707 9.40061 53.5705 7.29621 53.5705 4.7003C53.5705 2.1044 51.4707 0 48.8803 0C46.29 0 44.1902 2.1044 44.1902 4.7003C44.1902 7.29621 46.29 9.40061 48.8803 9.40061Z" fill="white"/>
<path d="M290.946 2.87521H279.434C279.321 2.87548 279.21 2.85356 279.107 2.81073C279.003 2.7679 278.909 2.705 278.829 2.62561C278.75 2.54623 278.687 2.45193 278.644 2.34812C278.601 2.2443 278.579 2.13301 278.579 2.02062C278.579 1.90822 278.601 1.79693 278.644 1.69311C278.687 1.58929 278.75 1.495 278.829 1.41561C278.909 1.33623 279.003 1.27332 279.107 1.23049C279.21 1.18766 279.321 1.16576 279.434 1.16602H290.946C291.058 1.16576 291.169 1.18766 291.273 1.23049C291.376 1.27332 291.471 1.33623 291.55 1.41561C291.629 1.495 291.692 1.58929 291.735 1.69311C291.778 1.79693 291.801 1.90822 291.801 2.02062C291.801 2.13301 291.778 2.2443 291.735 2.34812C291.692 2.45193 291.629 2.54623 291.55 2.62561C291.471 2.705 291.376 2.7679 291.273 2.81073C291.169 2.85356 291.058 2.87548 290.946 2.87521Z" fill="white"/>
<path d="M290.946 6.07981H279.434C279.321 6.08007 279.21 6.05816 279.107 6.01533C279.003 5.9725 278.909 5.90959 278.829 5.83021C278.75 5.75083 278.687 5.65653 278.644 5.55271C278.601 5.4489 278.579 5.33761 278.579 5.22521C278.579 5.11282 278.601 5.00152 278.644 4.89771C278.687 4.79389 278.75 4.69959 278.829 4.62021C278.909 4.54083 279.003 4.47792 279.107 4.43509C279.21 4.39226 279.321 4.37035 279.434 4.37061H290.946C291.058 4.37035 291.169 4.39226 291.273 4.43509C291.376 4.47792 291.471 4.54083 291.55 4.62021C291.629 4.69959 291.692 4.79389 291.735 4.89771C291.778 5.00152 291.801 5.11282 291.801 5.22521C291.801 5.33761 291.778 5.4489 291.735 5.55271C291.692 5.65653 291.629 5.75083 291.55 5.83021C291.471 5.90959 291.376 5.9725 291.273 6.01533C291.169 6.05816 291.058 6.08007 290.946 6.07981Z" fill="white"/>
<path d="M290.946 9.28439H279.434C279.321 9.28466 279.21 9.26274 279.107 9.21991C279.003 9.17708 278.909 9.11418 278.829 9.0348C278.75 8.95542 278.687 8.86112 278.644 8.7573C278.601 8.65349 278.579 8.54219 278.579 8.4298C278.579 8.3174 278.601 8.2061 278.644 8.10229C278.687 7.99847 278.75 7.90417 278.829 7.82479C278.909 7.74541 279.003 7.68251 279.107 7.63968C279.21 7.59685 279.321 7.57494 279.434 7.5752H290.946C291.058 7.57494 291.169 7.59685 291.273 7.63968C291.376 7.68251 291.471 7.74541 291.55 7.82479C291.629 7.90417 291.692 7.99847 291.735 8.10229C291.778 8.2061 291.801 8.3174 291.801 8.4298C291.801 8.54219 291.778 8.65349 291.735 8.7573C291.692 8.86112 291.629 8.95542 291.55 9.0348C291.471 9.11418 291.376 9.17708 291.273 9.21991C291.169 9.26274 291.058 9.28466 290.946 9.28439Z" fill="white"/>
<path d="M285.627 189.255H174.896C174.033 189.255 173.205 188.91 172.595 188.298C171.984 187.687 171.641 186.857 171.64 185.992V41.4504C171.641 40.585 171.984 39.7554 172.595 39.1436C173.205 38.5317 174.033 38.1875 174.896 38.1865H285.627C286.491 38.1875 287.319 38.5317 287.929 39.1436C288.54 39.7554 288.883 40.585 288.884 41.4504V185.992C288.883 186.857 288.54 187.687 287.929 188.298C287.319 188.91 286.491 189.255 285.627 189.255ZM174.896 39.119C174.28 39.1198 173.688 39.3656 173.252 39.8027C172.816 40.2397 172.571 40.8323 172.57 41.4504V185.992C172.571 186.61 172.816 187.202 173.252 187.639C173.688 188.076 174.28 188.322 174.896 188.323H285.627C286.244 188.322 286.835 188.076 287.272 187.639C287.708 187.202 287.953 186.61 287.954 185.992V41.4504C287.953 40.8323 287.708 40.2397 287.272 39.8027C286.835 39.3656 286.244 39.1198 285.627 39.119H174.896Z" fill="#E6E6E6"/>
<path d="M251.763 101.505H204.772C203.908 101.504 203.081 101.16 202.47 100.548C201.86 99.936 201.516 99.1064 201.515 98.2411V61.4064C201.516 60.5411 201.86 59.7115 202.47 59.0996C203.081 58.4877 203.908 58.1435 204.772 58.1426H251.763C252.626 58.1435 253.454 58.4877 254.065 59.0996C254.675 59.7115 255.019 60.5411 255.02 61.4064V98.2411C255.019 99.1064 254.675 99.936 254.065 100.548C253.454 101.16 252.626 101.504 251.763 101.505Z" fill="#E6E6E6"/>
<path d="M251.664 163.145H204.673C203.81 163.144 202.982 162.8 202.371 162.188C201.761 161.576 201.417 160.747 201.416 159.881V123.047C201.417 122.181 201.761 121.352 202.371 120.74C202.982 120.128 203.81 119.784 204.673 119.783H251.664C252.527 119.784 253.355 120.128 253.966 120.74C254.576 121.352 254.92 122.181 254.921 123.047V159.881C254.92 160.747 254.576 161.576 253.966 162.188C253.355 162.8 252.527 163.144 251.664 163.145ZM204.673 120.715C204.056 120.716 203.465 120.962 203.029 121.399C202.593 121.836 202.347 122.428 202.347 123.047V159.881C202.347 160.499 202.593 161.092 203.029 161.529C203.465 161.966 204.056 162.212 204.673 162.213H251.664C252.281 162.212 252.872 161.966 253.308 161.529C253.744 161.092 253.989 160.499 253.99 159.881V123.047C253.989 122.428 253.744 121.836 253.308 121.399C252.872 120.962 252.281 120.716 251.664 120.715H204.673Z" fill="white"/>
<path d="M264.691 173.403H217.7C216.837 173.402 216.009 173.058 215.398 172.446C214.788 171.834 214.444 171.004 214.443 170.139V133.304C214.444 132.439 214.788 131.609 215.398 130.998C216.009 130.386 216.837 130.042 217.7 130.041H264.691C265.554 130.042 266.382 130.386 266.993 130.998C267.603 131.609 267.947 132.439 267.948 133.304V170.139C267.947 171.004 267.603 171.834 266.993 172.446C266.382 173.058 265.554 173.402 264.691 173.403Z" fill="#F77765"/>
<path d="M246.468 162.618H222.877C222.847 162.618 222.818 162.616 222.789 162.611L233.946 143.243C234.014 143.122 234.113 143.022 234.232 142.952C234.352 142.882 234.488 142.845 234.626 142.845C234.764 142.845 234.9 142.882 235.019 142.952C235.139 143.022 235.238 143.122 235.306 143.243L242.794 156.24L243.153 156.862L246.468 162.618Z" fill="white"/>
<path opacity="0.2" d="M246.467 162.618H238.413L242.367 156.862L242.652 156.448L242.793 156.24L243.152 156.862L246.467 162.618Z" fill="black"/>
<path d="M259.603 162.618H239.198L243.152 156.862L243.437 156.448L248.589 148.947C248.68 148.832 248.795 148.738 248.924 148.671C249.054 148.603 249.196 148.564 249.342 148.555C249.488 148.546 249.635 148.568 249.771 148.62C249.908 148.672 250.033 148.751 250.137 148.854C250.163 148.884 250.188 148.914 250.211 148.947L259.603 162.618Z" fill="white"/>
<path d="M258.647 143.167C260.577 143.167 262.142 141.599 262.142 139.665C262.142 137.731 260.577 136.163 258.647 136.163C256.717 136.163 255.152 137.731 255.152 139.665C255.152 141.599 256.717 143.167 258.647 143.167Z" fill="white"/>
<path d="M126.805 189.213H16.0737C15.2102 189.212 14.3824 188.868 13.7719 188.256C13.1614 187.645 12.8179 186.815 12.8169 185.95V149.115C12.8179 148.25 13.1614 147.42 13.7719 146.808C14.3824 146.196 15.2102 145.852 16.0737 145.851H126.805C127.668 145.852 128.496 146.196 129.106 146.808C129.717 147.42 130.06 148.25 130.061 149.115V185.95C130.06 186.815 129.717 187.644 129.106 188.256C128.496 188.868 127.668 189.212 126.805 189.213Z" fill="#E6E6E6"/>
<path d="M126.34 136.526H15.6086C14.7452 136.525 13.9174 136.181 13.3068 135.569C12.6963 134.957 12.3528 134.128 12.3518 133.262V43.2736C12.3528 42.4083 12.6962 41.5787 13.3068 40.9668C13.9173 40.3549 14.7451 40.0107 15.6086 40.0098H126.34C127.203 40.0108 128.031 40.355 128.641 40.9668C129.252 41.5787 129.595 42.4083 129.596 43.2736V133.262C129.595 134.127 129.252 134.957 128.641 135.569C128.031 136.181 127.203 136.525 126.34 136.526ZM15.6086 40.9423C14.9919 40.943 14.4006 41.1889 13.9645 41.6259C13.5284 42.063 13.283 42.6555 13.2823 43.2736V133.262C13.283 133.88 13.5284 134.473 13.9645 134.91C14.4006 135.347 14.9919 135.593 15.6086 135.594H126.34C126.956 135.593 127.548 135.347 127.984 134.91C128.42 134.473 128.665 133.88 128.666 133.262V43.2736C128.665 42.6555 128.42 42.063 127.984 41.6259C127.548 41.1889 126.956 40.943 126.34 40.9423H15.6086Z" fill="white"/>
<path d="M144.485 152.845H33.7536C32.8902 152.844 32.0624 152.5 31.4519 151.888C30.8413 151.276 30.4979 150.446 30.4968 149.581V59.5924C30.4978 58.7271 30.8413 57.8976 31.4518 57.2857C32.0624 56.6738 32.8902 56.3296 33.7536 56.3286H144.485C145.348 56.3296 146.176 56.6738 146.786 57.2857C147.397 57.8976 147.74 58.7271 147.741 59.5924V149.581C147.74 150.446 147.397 151.276 146.786 151.888C146.176 152.5 145.348 152.844 144.485 152.845Z" fill="#F77765"/>
<path d="M101.752 130.697H45.221C45.1502 130.698 45.0795 130.693 45.0098 130.681L71.7464 84.2687C71.9096 83.9797 72.1464 83.7392 72.4327 83.5719C72.7189 83.4046 73.0444 83.3164 73.3758 83.3164C73.7072 83.3164 74.0326 83.4046 74.3189 83.5719C74.6051 83.7392 74.8419 83.9797 75.0051 84.2687L92.9487 115.415L93.8084 116.905L101.752 130.697Z" fill="white"/>
<path opacity="0.2" d="M101.752 130.698H82.4509L91.9259 116.905L92.6079 115.912L92.949 115.415L93.8088 116.905L101.752 130.698Z" fill="black"/>
<path d="M133.228 130.698H84.3335L93.8084 116.905L94.4902 115.912L106.837 97.9376C107.055 97.663 107.329 97.4375 107.64 97.2758C107.95 97.114 108.292 97.0196 108.642 96.9986C108.991 96.9777 109.342 97.0306 109.669 97.1541C109.997 97.2776 110.296 97.4689 110.545 97.7154C110.609 97.7856 110.668 97.8598 110.723 97.9376L133.228 130.698Z" fill="white"/>
<path d="M129.875 83.139C134.501 83.139 138.25 79.3814 138.25 74.7462C138.25 70.1111 134.501 66.3535 129.875 66.3535C125.25 66.3535 121.501 70.1111 121.501 74.7462C121.501 79.3814 125.25 83.139 129.875 83.139Z" fill="white"/>
<path d="M168.096 148.149C168.85 147.733 169.726 147.593 170.573 147.754L183.842 135.328L181.639 124.248L190.351 124.721L191.13 138.17L173.576 151.87C173.499 152.504 173.26 153.108 172.883 153.624C172.506 154.139 172.004 154.548 171.423 154.813C170.843 155.078 170.204 155.188 169.569 155.135C168.934 155.081 168.323 154.864 167.795 154.506C167.267 154.148 166.84 153.659 166.555 153.088C166.27 152.516 166.136 151.881 166.166 151.243C166.196 150.605 166.389 149.985 166.727 149.443C167.065 148.901 167.536 148.455 168.096 148.149L168.096 148.149Z" fill="#E9B8A9"/>
<path d="M153.444 241.685H147.74L145.026 219.637H153.445L153.444 241.685Z" fill="#E9B8A9"/>
<path d="M154.898 247.226L136.506 247.226V246.992C136.506 245.09 137.261 243.265 138.603 241.92C139.946 240.574 141.766 239.818 143.665 239.818H143.665L154.899 239.819L154.898 247.226Z" fill="white"/>
<path d="M196.247 241.685H190.543L187.83 219.637H196.248L196.247 241.685Z" fill="#E9B8A9"/>
<path d="M197.702 247.226L179.31 247.226V246.992C179.31 245.09 180.064 243.265 181.407 241.92C182.749 240.574 184.57 239.818 186.469 239.818H186.469L197.702 239.819L197.702 247.226Z" fill="white"/>
<path d="M185.844 117.723C185.156 116.851 184.179 116.255 183.091 116.042C182.002 115.829 180.873 116.013 179.908 116.561C178.954 117.103 178.222 117.965 177.841 118.995C177.46 120.026 177.455 121.158 177.826 122.192L180.623 129.978L192.079 125.615L185.844 117.723Z" fill="#F77765"/>
<path d="M184.816 152.108C184.294 151.716 183.734 151.379 183.143 151.103L162.293 154.318L162.751 167.406C152.667 186.482 145.998 208.244 142.359 232.388L155.419 235.373C161.263 212.686 167.901 192.327 176.27 177.05L185.092 234.821L200.099 234.455C198.122 200.493 196.597 160.901 184.816 152.108Z" fill="#4D4C5A"/>
<path d="M169.254 114.433C173.742 114.433 177.381 110.787 177.381 106.289C177.381 101.79 173.742 98.144 169.254 98.144C164.765 98.144 161.127 101.79 161.127 106.289C161.127 110.787 164.765 114.433 169.254 114.433Z" fill="#E9B8A9"/>
<path d="M187.125 127.217C187.497 124.965 187.132 122.652 186.084 120.625C185.036 118.598 183.361 116.966 181.31 115.971L172.146 116.43C170.654 116.818 169.27 117.541 168.099 118.545C166.928 119.549 166.001 120.808 165.388 122.225C161.416 131.543 160.85 143.455 162.522 157.073L184.23 151.898C181.253 145.18 183.646 136.406 187.125 127.217Z" fill="#F77765"/>
<path d="M159.177 104.302V104.302C159.177 103.2 159.393 102.109 159.814 101.09C160.235 100.072 160.852 99.147 161.63 98.3676C162.407 97.5883 163.33 96.9701 164.347 96.5483C165.363 96.1266 166.452 95.9095 167.551 95.9095H168.032C169.548 94.7007 171.429 94.0432 173.367 94.0444C175.65 94.0444 177.839 94.9532 179.453 96.5709C181.067 98.1885 181.974 100.383 181.974 102.67V113.627C176.409 113.488 170.106 114.588 163.364 116.425C165.063 111.708 166.193 107.371 165.421 104.302H159.177Z" fill="#2F2E41"/>
<path d="M141.962 142.07C142.824 142.068 143.659 142.368 144.324 142.917L161.919 138.409L165.3 127.631L172.713 132.242L166.948 144.411L144.984 147.972C144.612 148.491 144.113 148.906 143.536 149.177C142.958 149.447 142.321 149.564 141.685 149.517C141.049 149.469 140.436 149.259 139.905 148.906C139.373 148.553 138.941 148.069 138.65 147.5C138.359 146.932 138.219 146.298 138.243 145.659C138.267 145.021 138.454 144.399 138.786 143.854C139.119 143.309 139.585 142.858 140.142 142.546C140.698 142.233 141.325 142.069 141.962 142.07Z" fill="#E9B8A9"/>
<path d="M176.268 124.366C176.586 123.301 176.513 122.157 176.063 121.141C175.613 120.125 174.816 119.304 173.814 118.826C172.825 118.353 171.7 118.246 170.639 118.524C169.578 118.802 168.65 119.446 168.017 120.344L163.254 127.104L173.389 134.011L176.268 124.366Z" fill="#F77765"/>
<path d="M264.687 24.1284C264.687 23.5578 264.164 22.9518 263.258 22.9518C262.241 22.9518 261.124 23.7427 260.953 25.3207C260.779 26.9144 261.714 27.6227 262.657 27.6227C263.6 27.6227 264.093 27.2332 264.598 26.7137C264.164 26.1353 263.603 26.4029 263.496 26.4619C263.377 26.5248 263.225 26.6114 262.913 26.6114C262.549 26.6114 262.178 26.4383 262.178 25.7182C264.509 25.4742 264.687 24.699 264.687 24.1284ZM263.533 24.2228C263.518 24.3999 263.451 24.7029 262.271 24.8721C262.519 23.9356 262.995 23.8647 263.214 23.8647C263.418 23.8647 263.548 24.0339 263.533 24.2228ZM259.584 24.3763C259.584 24.3763 259.083 26.0448 259.042 26.1825C259.027 26.0408 258.66 23.0462 258.66 23.0462C257.806 23.0462 257.349 23.6916 257.108 24.3724C257.108 24.3724 256.499 26.0448 256.447 26.1864C256.444 26.0566 256.355 24.392 256.355 24.392C256.303 23.5578 255.583 23.0502 255 23.0502L255.705 27.5873C256.6 27.5834 257.082 26.942 257.335 26.2612C257.335 26.2612 257.873 24.7855 257.895 24.7186C257.899 24.7816 258.281 27.5873 258.281 27.5873C259.179 27.5873 259.662 26.9852 259.921 26.3281L261.18 23.0502C260.293 23.0502 259.825 23.6916 259.584 24.3763ZM267.983 22.9439C267.43 22.9439 267.007 23.2627 266.65 23.7309V23.727L266.97 21C266.235 21 265.637 21.6768 265.522 22.6842L264.965 27.5519C265.388 27.5519 265.838 27.422 266.079 27.0915C266.294 27.3866 266.617 27.6227 267.096 27.6227C268.335 27.6227 269.185 26.0959 269.185 24.6636C269.178 23.3571 268.58 22.9439 267.983 22.9439ZM267.868 25.2853C267.738 26.0841 267.318 26.6272 266.914 26.6272C266.506 26.6272 266.331 26.4343 266.331 26.4343C266.409 25.7339 266.457 25.305 266.606 24.9351C266.754 24.5652 267.107 23.9749 267.474 23.9749C267.834 23.9749 267.998 24.4825 267.868 25.2853ZM272.281 23.0502H271.416L271.42 23.003C271.479 22.4048 271.613 22.09 272.054 22.0389C272.355 22.0074 272.489 21.8421 272.522 21.6611C272.548 21.5194 272.63 21.0275 272.63 21.0275C270.893 21.0157 270.347 21.8106 270.206 23.0226L270.202 23.0502H270.184C269.902 23.0502 269.59 23.3886 269.538 23.8175L269.519 23.9749H270.098L269.612 28.2327L269.464 28.9961C269.482 28.9961 269.505 29 269.523 29C270.336 28.9685 270.855 28.2878 270.971 27.3L271.349 23.9749H271.62C271.887 23.9749 272.199 23.6916 272.255 23.2194L272.281 23.0502ZM276.779 22.9715C275.781 22.9715 274.838 23.7506 274.548 24.9744C274.259 26.1982 274.697 27.6463 276.167 27.6463C277.633 27.6463 278.479 26.1392 278.479 24.8839C278.479 23.6365 277.681 22.9715 276.779 22.9715ZM277.184 25.2459C277.132 25.8008 276.902 26.6429 276.271 26.6429C275.636 26.6429 275.725 25.6591 275.788 25.1909C275.855 24.6911 276.118 23.9788 276.686 23.9788C277.195 23.9788 277.243 24.6203 277.184 25.2459ZM283.411 24.3763C283.411 24.3763 282.91 26.0448 282.87 26.1825C282.855 26.0408 282.487 23.0462 282.487 23.0462C281.634 23.0462 281.177 23.6916 280.936 24.3724C280.936 24.3724 280.327 26.0448 280.275 26.1864C280.272 26.0566 280.182 24.392 280.182 24.392C280.131 23.5578 279.41 23.0502 278.828 23.0502L279.529 27.5873C280.424 27.5834 280.906 26.942 281.159 26.2612C281.159 26.2612 281.697 24.7855 281.715 24.7186C281.723 24.7816 282.101 27.5873 282.101 27.5873C283 27.5873 283.482 26.9852 283.742 26.3281L285 23.0502C284.117 23.0502 283.649 23.6916 283.411 24.3763ZM273.097 21.0275L272.37 27.2489L272.221 28.0162C272.24 28.0162 272.262 28.0202 272.281 28.0202C273.064 28.0084 273.621 27.2804 273.724 26.3635L274.144 22.7944C274.27 21.7044 273.658 21.0275 273.097 21.0275Z" fill="#F77765"/>
</svg>
