<svg width="306" height="270" viewBox="0 0 306 270" fill="none" xmlns="http://www.w3.org/2000/svg">
<path d="M201.305 0H112.387C98.557 0 87.3459 11.1554 87.3459 24.9162V227.096C87.3459 240.856 98.557 252.012 112.387 252.012H201.305C215.135 252.012 226.346 240.856 226.346 227.096V24.9162C226.346 11.1554 215.135 0 201.305 0Z" fill="#CCCCCC"/>
<path d="M224.001 24.918V227.096C223.994 233.083 221.6 238.823 217.346 243.057C213.091 247.291 207.322 249.672 201.305 249.679H112.387C106.37 249.672 100.601 247.291 96.3464 243.057C92.0916 238.823 89.6981 233.083 89.6912 227.096V24.918C89.6981 18.9306 92.0916 13.1904 96.3464 8.95668C100.601 4.72296 106.37 2.3414 112.387 2.33447H124.015V6.33103C124.015 8.14034 124.737 9.87551 126.023 11.1549C127.309 12.4343 129.053 13.1531 130.871 13.1532H182.821C184.639 13.1531 186.383 12.4343 187.669 11.1549C188.955 9.87551 189.677 8.14034 189.677 6.33103V2.33447H201.305C207.322 2.34141 213.091 4.72296 217.346 8.95668C221.6 13.1904 223.994 18.9306 224.001 24.918Z" fill="white"/>
<path d="M86.7064 51.1236C86.2542 51.1231 85.8207 50.9442 85.501 50.626C85.1812 50.3079 85.0014 49.8765 85.0009 49.4266V46.0325C85.0009 45.5824 85.1805 45.1508 85.5004 44.8325C85.8202 44.5142 86.254 44.3354 86.7064 44.3354C87.1587 44.3354 87.5925 44.5142 87.9124 44.8325C88.2322 45.1508 88.4119 45.5824 88.4119 46.0325V49.4266C88.4114 49.8765 88.2315 50.3079 87.9118 50.626C87.5921 50.9442 87.1585 51.1231 86.7064 51.1236Z" fill="#CCCCCC"/>
<path d="M86.7064 68.5275C86.2542 68.527 85.8207 68.348 85.501 68.0299C85.1812 67.7117 85.0014 67.2804 85.0009 66.8305V57.4876C85.0009 57.0375 85.1805 56.6058 85.5004 56.2876C85.8202 55.9693 86.254 55.7905 86.7064 55.7905C87.1587 55.7905 87.5925 55.9693 87.9124 56.2876C88.2322 56.6058 88.4119 57.0375 88.4119 57.4876V66.8305C88.4114 67.2804 88.2315 67.7117 87.9118 68.0299C87.5921 68.348 87.1585 68.527 86.7064 68.5275Z" fill="#CCCCCC"/>
<path d="M86.7064 82.5192C86.2542 82.5187 85.8207 82.3397 85.501 82.0216C85.1812 81.7034 85.0014 81.2721 85.0009 80.8222V71.4793C85.0009 71.0292 85.1805 70.5975 85.5004 70.2793C85.8202 69.961 86.254 69.7822 86.7064 69.7822C87.1587 69.7822 87.5925 69.961 87.9124 70.2793C88.2322 70.5975 88.4119 71.0292 88.4119 71.4793V80.8222C88.4114 81.2721 88.2315 81.7034 87.9118 82.0216C87.5921 82.3397 87.1585 82.5187 86.7064 82.5192Z" fill="#CCCCCC"/>
<path d="M226.559 74.8821C226.107 74.8816 225.673 74.7026 225.353 74.3844C225.034 74.0663 224.854 73.6349 224.853 73.185V50.388C224.853 49.9379 225.033 49.5062 225.353 49.188C225.673 48.8697 226.107 48.6909 226.559 48.6909C227.011 48.6909 227.445 48.8697 227.765 49.188C228.085 49.5062 228.264 49.9379 228.264 50.388V73.185C228.264 73.6349 228.084 74.0663 227.764 74.3844C227.445 74.7026 227.011 74.8816 226.559 74.8821Z" fill="#CCCCCC"/>
<path d="M160.51 7.78342H147.292C147.009 7.78342 146.738 7.67167 146.538 7.47276C146.338 7.27385 146.226 7.00407 146.226 6.72277C146.226 6.44146 146.338 6.17168 146.538 5.97277C146.738 5.77386 147.009 5.66211 147.292 5.66211H160.51C160.792 5.66211 161.063 5.77386 161.263 5.97277C161.463 6.17168 161.576 6.44146 161.576 6.72277C161.576 7.00407 161.463 7.27385 161.263 7.47276C161.063 7.67167 160.792 7.78342 160.51 7.78342Z" fill="white"/>
<path d="M167.332 7.57107C167.803 7.57107 168.184 7.19118 168.184 6.72255C168.184 6.25392 167.803 5.87402 167.332 5.87402C166.861 5.87402 166.479 6.25392 166.479 6.72255C166.479 7.19118 166.861 7.57107 167.332 7.57107Z" fill="white"/>
<path d="M118.935 12.3344H107.422C106.857 12.3344 106.315 12.1109 105.915 11.7131C105.515 11.3153 105.291 10.7757 105.291 10.2131C105.291 9.6505 105.515 9.11094 105.915 8.71311C106.315 8.31529 106.857 8.0918 107.422 8.0918H118.935C119.5 8.0918 120.042 8.31529 120.442 8.71311C120.842 9.11094 121.067 9.6505 121.067 10.2131C121.067 10.7757 120.842 11.3153 120.442 11.7131C120.042 12.1109 119.5 12.3344 118.935 12.3344Z" fill="#E6E6E6"/>
<path d="M194.404 12.1226C195.463 12.1226 196.323 11.2678 196.323 10.2134C196.323 9.15897 195.463 8.3042 194.404 8.3042C193.344 8.3042 192.485 9.15897 192.485 10.2134C192.485 11.2678 193.344 12.1226 194.404 12.1226Z" fill="#E6E6E6"/>
<path d="M200.373 12.1226C201.433 12.1226 202.292 11.2678 202.292 10.2134C202.292 9.15897 201.433 8.3042 200.373 8.3042C199.314 8.3042 198.454 9.15897 198.454 10.2134C198.454 11.2678 199.314 12.1226 200.373 12.1226Z" fill="#E6E6E6"/>
<path d="M206.343 12.1226C207.402 12.1226 208.261 11.2678 208.261 10.2134C208.261 9.15897 207.402 8.3042 206.343 8.3042C205.283 8.3042 204.424 9.15897 204.424 10.2134C204.424 11.2678 205.283 12.1226 206.343 12.1226Z" fill="#E6E6E6"/>
<path d="M193.062 41.9839H120.706C119.304 41.9858 117.96 42.5407 116.969 43.5269C115.978 44.5131 115.421 45.8501 115.419 47.2447V94.0451C115.421 95.4398 115.978 96.7768 116.969 97.763C117.96 98.7492 119.304 99.304 120.706 99.306H193.062C194.464 99.3048 195.808 98.7501 196.8 97.7638C197.791 96.7774 198.348 95.44 198.349 94.0451V47.2447C198.348 45.8498 197.791 44.5124 196.8 43.5261C195.808 42.5397 194.464 41.9851 193.062 41.9839Z" fill="#F2F2F2"/>
<path d="M170.41 61.9629C163.871 73.4666 156.655 84.5761 148.8 95.2334H137.453C144.886 86.224 152.323 77.2146 159.767 68.2052C161.902 65.6111 164.219 62.8934 167.422 61.8394L170.41 61.9629Z" fill="#222222"/>
<path d="M155.33 60.1183C154.147 61.3454 153.013 62.6219 151.945 63.9478C149.595 66.7642 147.277 69.6054 144.952 72.4383C143.503 74.2006 142.055 75.963 140.623 77.7254C140.169 77.4348 139.737 77.1099 139.332 76.7536C137.045 74.7785 135.627 71.9907 135.381 68.9875C135.135 65.9843 136.081 63.0047 138.016 60.6871C139.951 58.3695 142.721 56.8983 145.734 56.5888C148.746 56.2793 151.76 57.1561 154.13 59.0313C154.558 59.3628 154.959 59.7262 155.33 60.1183Z" fill="#F77765"/>
<path d="M198.349 58.7803V60.4901L197.582 60.2101L186.782 56.2814C183.264 55.0044 179.755 53.5449 176.122 52.6243C172.962 51.7247 169.605 51.7675 166.469 52.7473C163.673 53.7765 161.115 55.3566 158.948 57.393C157.988 58.2755 157.059 59.1791 156.159 60.1168C155.865 60.4265 155.571 60.7362 155.281 61.0459C154.411 61.9878 153.571 62.9508 152.774 63.9479C150.424 66.765 148.105 69.6075 145.781 72.4373C144.331 74.2023 142.882 75.963 141.449 77.7236C136.665 83.5488 131.91 89.3852 127.182 95.2329C126.546 95.2258 125.912 95.1461 125.294 94.9954C130.116 89.0345 134.961 83.0892 139.829 77.1594C139.94 77.0236 140.051 76.8878 140.161 76.7521C140.733 76.0436 141.317 75.3308 141.897 74.6223C144.323 71.6652 146.75 68.7109 149.179 65.7594C150.945 63.6127 152.697 61.4574 154.599 59.421C154.714 59.2894 154.833 59.1622 154.957 59.0307C155.14 58.8355 155.324 58.6446 155.511 58.4452C159.643 54.1983 164.798 50.4436 170.972 50.3418C174.604 50.2866 178.114 51.4321 181.49 52.6413C185.127 53.9522 188.752 55.2844 192.384 56.6081L198.349 58.7803Z" fill="#222222"/>
<path d="M200.051 202.636H113.641C112.24 202.634 110.896 202.079 109.905 201.093C108.914 200.107 108.356 198.77 108.354 197.375V185.787C108.356 184.393 108.914 183.056 109.905 182.069C110.896 181.083 112.24 180.528 113.641 180.527H200.051C201.452 180.528 202.796 181.083 203.787 182.069C204.778 183.056 205.336 184.393 205.338 185.787V197.375C205.336 198.77 204.778 200.107 203.787 201.093C202.796 202.079 201.452 202.634 200.051 202.636Z" fill="#F2F2F2"/>
<path d="M200.051 143.239H113.641C112.24 143.237 110.896 142.682 109.905 141.696C108.914 140.71 108.356 139.373 108.354 137.978V126.39C108.356 124.996 108.914 123.659 109.905 122.672C110.896 121.686 112.24 121.131 113.641 121.13H200.051C201.452 121.131 202.796 121.686 203.787 122.672C204.778 123.659 205.336 124.996 205.338 126.39V137.978C205.336 139.373 204.778 140.71 203.787 141.696C202.796 142.682 201.452 143.237 200.051 143.239Z" fill="#F2F2F2"/>
<path d="M200.051 172.937H113.641C112.24 172.935 110.896 172.381 109.905 171.394C108.914 170.408 108.356 169.071 108.354 167.676V156.089C108.356 154.694 108.914 153.357 109.905 152.371C110.896 151.384 112.24 150.83 113.641 150.828H200.051C201.452 150.83 202.796 151.384 203.787 152.371C204.778 153.357 205.336 154.694 205.338 156.089V167.676C205.336 169.071 204.778 170.408 203.787 171.394C202.796 172.381 201.452 172.935 200.051 172.937Z" fill="#F2F2F2"/>
<path d="M167.344 189.598H141.884C141.582 189.598 141.292 189.478 141.079 189.266C140.865 189.053 140.745 188.765 140.745 188.464C140.745 188.164 140.865 187.876 141.079 187.663C141.292 187.45 141.582 187.331 141.884 187.331H167.344C167.646 187.331 167.936 187.45 168.149 187.663C168.363 187.876 168.483 188.164 168.483 188.464C168.483 188.765 168.363 189.053 168.149 189.266C167.936 189.478 167.646 189.598 167.344 189.598Z" fill="white"/>
<path d="M191.831 195.831H141.6C141.297 195.831 141.008 195.712 140.794 195.499C140.581 195.287 140.461 194.998 140.461 194.698C140.461 194.397 140.581 194.109 140.794 193.896C141.008 193.684 141.297 193.564 141.6 193.564H191.831C192.133 193.564 192.423 193.684 192.636 193.896C192.85 194.109 192.97 194.397 192.97 194.698C192.97 194.998 192.85 195.287 192.636 195.499C192.423 195.712 192.133 195.831 191.831 195.831Z" fill="white"/>
<path d="M128.358 199.18C132.576 199.18 135.995 195.778 135.995 191.581C135.995 187.385 132.576 183.983 128.358 183.983C124.141 183.983 120.722 187.385 120.722 191.581C120.722 195.778 124.141 199.18 128.358 199.18Z" fill="white"/>
<path d="M80.0646 218.404C79.2853 218.041 78.3948 217.996 77.5823 218.277C76.7699 218.558 76.0997 219.143 75.7144 219.909C75.6386 220.065 75.5759 220.228 75.527 220.395L64.0279 221.079L62.3237 227.007L77.9743 224.376C78.6861 224.524 79.4272 224.433 80.0819 224.118C80.7365 223.803 81.2679 223.281 81.593 222.633C81.7745 222.263 81.881 221.861 81.9063 221.45C81.9316 221.039 81.8754 220.627 81.7407 220.238C81.6061 219.849 81.3956 219.49 81.1215 219.181C80.8473 218.873 80.5148 218.621 80.1429 218.44C80.117 218.428 80.0909 218.416 80.0646 218.404Z" fill="#E9B8A9"/>
<path d="M54.6826 189.163C53.9249 188.855 53.1093 188.712 52.2912 188.745C51.4732 188.779 50.6719 188.987 49.9419 189.355C49.2119 189.724 48.5703 190.245 48.0607 190.883C47.5511 191.52 47.1854 192.26 46.9886 193.051L43.8272 205.754L44.4219 227.979C44.4219 227.979 60.9236 231.129 63.6939 229.104C66.4641 227.079 66.204 225.571 66.4641 227.079C66.7242 228.587 67.9132 229.219 67.9298 228.619C67.9463 228.02 68.0808 228.122 68.7711 227.941C69.4614 227.761 72.5083 226.643 72.5083 226.643L72.6447 220.307C72.6447 220.307 67.6077 218.407 66.3856 218.974C65.1636 219.541 66.6457 220.481 65.1636 219.541C63.6815 218.6 63.5195 215.631 63.2661 218.307C63.0126 220.983 62.2708 221.481 61.1595 220.291C60.0483 219.101 54.9001 219.861 54.9001 219.861L58.1761 195.156C58.3409 193.914 58.0875 192.652 57.4555 191.568C56.8235 190.483 55.8484 189.638 54.6826 189.163Z" fill="#F77765"/>
<path d="M165.812 255.07L165.985 250.391L147.927 247.498L147.672 254.404L165.812 255.07Z" fill="#E9B8A9"/>
<path d="M162.534 256.479L162.363 248.986L165.582 249.104L170.779 242.178C171.036 241.836 171.396 241.584 171.806 241.46C172.217 241.335 172.656 241.345 173.061 241.487C173.466 241.629 173.814 241.896 174.055 242.249C174.297 242.602 174.418 243.023 174.402 243.449L174.072 252.35L170.831 253.767L173.993 254.483L173.869 257.839L162.534 256.479Z" fill="#F1F1F1"/>
<path d="M64.1804 265.801L121.376 259.183C121.376 259.183 146.075 260.603 151.87 256.852L157.981 256.084L158.313 247.152C158.313 247.152 154.576 247.18 152.427 246.184C150.279 245.188 151.772 243.969 149.724 245.167C147.675 246.366 147.891 246.51 146.308 245.959C144.724 245.408 72.0963 242.454 72.0963 242.454L64.1804 265.801Z" fill="#4D4C5A"/>
<path d="M139.549 261.926L142.875 258.612L131.615 244.271L126.706 249.161L139.549 261.926Z" fill="#E9B8A9"/>
<path d="M136.183 260.74L141.179 255.131L143.458 257.397L152.003 255.836C152.425 255.758 152.861 255.818 153.247 256.004C153.633 256.191 153.948 256.496 154.148 256.874C154.347 257.251 154.42 257.683 154.356 258.105C154.292 258.527 154.093 258.918 153.79 259.22L147.464 265.522L144.12 264.367L145.948 267.032L143.563 269.408L136.183 260.74Z" fill="#F1F1F1"/>
<path d="M41.6149 234.633L42.1835 247.785C42.8529 263.268 59.9889 272.639 73.2765 264.555C73.5214 264.406 73.7671 264.251 74.0137 264.092C74.0137 264.092 79.051 262.746 78.8981 260.614C78.7452 258.482 79.9758 257.445 81.0648 258.026C82.1539 258.607 96.4129 238.472 96.4129 238.472C96.4129 238.472 126.038 253.176 132.574 256.638L139.47 254.768C139.47 254.768 142.065 255.988 141.131 254.224C140.196 252.46 140.028 253.305 139.741 251.383C139.454 249.461 138.719 247.078 138.273 247.178C137.828 247.278 101.623 222.064 101.623 222.064C101.623 222.064 95.7248 216.124 88.4083 220.046C88.2559 220.622 88.3861 220.642 88.3861 220.642L64.2171 240.238L60.802 233.785L41.6149 234.633Z" fill="#4D4C5A"/>
<path d="M57.8595 186.308L47.4969 181.476L44.3945 186.847C44.3945 186.847 36.0622 198.678 35.9414 207.214C35.8205 215.749 37.2992 218.287 37.2992 218.287C37.2992 218.287 33.7067 220.96 35.503 222.593C37.2992 224.227 41.2759 224.932 38.2216 225.64C35.1673 226.348 35.9414 233.518 39.3524 234.791C42.7634 236.063 61.0825 236.052 61.0825 236.052C60.9178 235.496 60.9057 234.907 61.0474 234.345C61.1891 233.783 61.4794 233.268 61.8882 232.856C63.3084 231.439 64.5875 232.456 63.3084 230.25C62.0293 228.045 59.8974 229.318 61.6029 226.348C63.3084 223.378 63.3078 222.491 63.3078 222.491C63.3078 222.491 66.7846 215.907 61.5476 208.764C61.2284 208.329 61.4968 208.312 61.4968 208.312L57.268 194.211L57.8595 186.308Z" fill="#F77765"/>
<path d="M41.1596 165.989C41.2473 168.167 39.8678 171.253 39.1885 173.113C38.4623 175.103 41.61 177.743 43.6248 178.321C43.7297 177.632 44.0752 177.002 44.6007 176.541C44.4554 177.198 44.4428 177.877 44.5635 178.538L61.5964 182.397C64.6607 178.866 67.7417 173.79 67.0697 167.668C67.2306 166.505 67.0429 165.321 66.53 164.265C66.0171 163.208 65.202 162.326 64.1869 161.728L55.576 156.666C51.9133 155.837 47.3008 155.336 44.6552 157.591C43.4732 158.637 42.5447 159.936 41.9393 161.391C41.3339 162.845 41.0673 164.417 41.1596 165.989Z" fill="#2F2E41"/>
<path d="M56.3846 180.532C61.8007 180.532 66.1913 176.163 66.1913 170.774C66.1913 165.384 61.8007 161.016 56.3846 161.016C50.9684 161.016 46.5778 165.384 46.5778 170.774C46.5778 176.163 50.9684 180.532 56.3846 180.532Z" fill="#E9B8A9"/>
<path d="M44.8959 165.561L44.4227 167.629L52.696 169.503C52.7033 169.085 52.7975 168.672 52.9725 168.292C53.1476 167.912 53.3998 167.571 53.7133 167.293C53.5349 168.104 53.5552 168.945 53.7727 169.747C58.2345 172.238 62.2561 173.121 65.8621 172.486C66.3507 172.596 66.8634 172.509 67.2875 172.244C67.7116 171.978 68.0124 171.556 68.1236 171.07C69.5745 164.728 65.7734 158.247 59.4313 156.673C57.8898 156.289 56.2868 156.216 54.7163 156.457C53.1459 156.698 51.6396 157.248 50.2858 158.076C48.9319 158.904 47.7578 159.992 46.8323 161.277C45.9068 162.563 45.2484 164.019 44.8959 165.561V165.561Z" fill="#2F2E41"/>
<path d="M49.7329 151.914C50.8238 151.678 51.9783 151.735 52.9647 151L52.3178 152.477C54.1112 151.989 56.0231 152.179 57.6839 153.011C58.1777 153.231 58.5989 153.586 58.8987 154.034C59.0599 154.305 59.1579 154.608 59.1856 154.922C59.2132 155.235 59.1698 155.551 59.0585 155.845C58.9525 156.098 58.7947 156.326 58.5951 156.515C58.3956 156.703 58.1587 156.848 57.8996 156.941C57.4404 157.078 56.9594 157.128 56.4815 157.088C54.4681 157.042 52.4547 156.995 50.4413 156.948C49.674 156.996 48.9073 156.847 48.2137 156.517C47.8449 156.291 47.5507 155.962 47.3671 155.571C47.1835 155.181 47.1185 154.745 47.1801 154.318C47.3722 152.975 48.642 152.15 49.7329 151.914Z" fill="#2F2E41"/>
<path d="M102.93 228.391C102.907 228.363 102.88 228.339 102.85 228.318C102.777 228.233 102.687 228.164 102.587 228.113L101.87 227.731L97.1056 222.468C96.8298 222.325 96.5089 222.295 96.2109 222.383L96.1987 222.387L94.1578 223.015L92.4027 223.557L89.9509 224.313L73.2513 229.458L62.2742 232.84C61.9774 232.933 61.7294 233.139 61.5835 233.413C61.4376 233.686 61.4055 234.006 61.4941 234.303C61.5457 234.466 61.6311 234.617 61.7448 234.746L62.0941 235.133L62.8268 235.945L64.5242 239.445L64.9952 239.968C65.1453 240.135 65.3399 240.255 65.5563 240.316C65.7727 240.376 66.002 240.374 66.2172 240.31L102.38 230.303C102.568 230.243 102.738 230.137 102.875 229.996C103.013 229.855 103.113 229.682 103.167 229.493C103.221 229.304 103.228 229.105 103.187 228.913C103.146 228.721 103.057 228.542 102.93 228.391Z" fill="#CCCCCC"/>
<path d="M100.783 176.332L100.083 176.445C99.891 176.477 99.7194 176.583 99.6057 176.74L99.2971 177.169L96.514 184.094C96.4007 184.252 96.3552 184.449 96.3875 184.64L96.7136 186.613L95.4812 221.83C95.5123 222.012 95.6106 222.176 95.7569 222.289L101.16 229.482L101.287 229.581L101.559 229.793C101.698 229.901 101.871 229.955 102.048 229.948L102.507 229.926C102.611 229.921 102.713 229.894 102.806 229.847C102.899 229.8 102.981 229.734 103.046 229.653C103.112 229.572 103.16 229.479 103.187 229.379C103.213 229.278 103.217 229.174 103.2 229.071L101.632 176.935C101.6 176.743 101.493 176.572 101.335 176.459C101.176 176.346 100.979 176.3 100.787 176.332L100.783 176.332Z" fill="#CCCCCC"/>
<path d="M99.6106 179.068L97.1452 186.541L96.1914 216.389L100.029 219.784L99.6106 179.068Z" fill="#F77765"/>
<path d="M80.5457 224.599C79.7664 224.237 78.8758 224.191 78.0634 224.472C77.251 224.753 76.5808 225.339 76.1955 226.104C76.1197 226.261 76.057 226.423 76.0081 226.591L64.509 227.274L62.8047 233.202L78.4554 230.571C79.1672 230.719 79.9083 230.628 80.5629 230.313C81.2176 229.998 81.7489 229.476 82.0741 228.829C82.4406 228.081 82.4937 227.22 82.2218 226.433C81.9499 225.647 81.3751 225 80.624 224.636C80.598 224.623 80.572 224.611 80.5457 224.599Z" fill="#E9B8A9"/>
<path d="M55.1637 195.359C54.406 195.05 53.5903 194.908 52.7723 194.941C51.9543 194.974 51.153 195.182 50.423 195.551C49.693 195.92 49.0513 196.441 48.5417 197.078C48.0321 197.716 47.6665 198.455 47.4697 199.246L44.3083 211.95L44.903 234.174C44.903 234.174 61.4047 237.325 64.175 235.299C66.9452 233.274 66.6851 231.767 66.9452 233.274C67.2053 234.782 68.3943 235.414 68.4108 234.815C68.4274 234.215 68.5618 234.317 69.2522 234.137C69.9425 233.956 72.9894 232.839 72.9894 232.839L73.1258 226.502C73.1258 226.502 68.0888 224.602 66.8667 225.169C65.6447 225.736 67.1268 226.677 65.6447 225.736C64.1625 224.795 64.0005 221.826 63.7471 224.502C63.4937 227.178 62.7518 227.676 61.6406 226.486C60.5294 225.296 55.3811 226.056 55.3811 226.056L58.6572 201.352C58.822 200.109 58.5686 198.847 57.9366 197.763C57.3046 196.679 56.3295 195.833 55.1637 195.359Z" fill="#F77765"/>
<path d="M269.124 143.239H182.715C181.313 143.237 179.969 142.682 178.978 141.696C177.987 140.71 177.43 139.373 177.428 137.978V126.39C177.43 124.996 177.987 123.659 178.978 122.672C179.969 121.686 181.313 121.131 182.715 121.13H269.124C270.526 121.131 271.87 121.686 272.861 122.672C273.852 123.659 274.409 124.996 274.411 126.39V137.978C274.409 139.373 273.852 140.71 272.861 141.696C271.87 142.682 270.526 143.237 269.124 143.239Z" fill="#E6E6E6"/>
<path d="M236.418 130.201H210.958C210.656 130.201 210.366 130.082 210.152 129.869C209.939 129.657 209.819 129.368 209.819 129.068C209.819 128.767 209.939 128.479 210.152 128.266C210.366 128.054 210.656 127.935 210.958 127.935H236.418C236.72 127.935 237.009 128.054 237.223 128.266C237.437 128.479 237.557 128.767 237.557 129.068C237.557 129.368 237.437 129.657 237.223 129.869C237.009 130.082 236.72 130.201 236.418 130.201Z" fill="white"/>
<path d="M260.905 136.434H210.673C210.371 136.434 210.081 136.315 209.868 136.102C209.654 135.89 209.534 135.601 209.534 135.301C209.534 135 209.654 134.712 209.868 134.499C210.081 134.287 210.371 134.167 210.673 134.167H260.905C261.207 134.167 261.496 134.287 261.71 134.499C261.924 134.712 262.044 135 262.044 135.301C262.044 135.601 261.924 135.89 261.71 136.102C261.496 136.315 261.207 136.434 260.905 136.434Z" fill="white"/>
<path d="M197.432 139.783C201.649 139.783 205.068 136.381 205.068 132.184C205.068 127.988 201.649 124.586 197.432 124.586C193.214 124.586 189.796 127.988 189.796 132.184C189.796 136.381 193.214 139.783 197.432 139.783Z" fill="white"/>
<path d="M241.41 172.937H155C153.598 172.935 152.255 172.381 151.264 171.394C150.272 170.408 149.715 169.071 149.713 167.676V156.089C149.715 154.694 150.272 153.357 151.264 152.371C152.255 151.384 153.598 150.83 155 150.828H241.41C242.811 150.83 244.155 151.384 245.146 152.371C246.137 153.357 246.695 154.694 246.696 156.089V167.676C246.695 169.071 246.137 170.408 245.146 171.394C244.155 172.381 242.811 172.935 241.41 172.937Z" fill="#E6E6E6"/>
<path d="M208.703 159.899H183.243C182.941 159.899 182.651 159.78 182.438 159.567C182.224 159.355 182.104 159.067 182.104 158.766C182.104 158.466 182.224 158.177 182.438 157.965C182.651 157.752 182.941 157.633 183.243 157.633H208.703C209.005 157.633 209.295 157.752 209.508 157.965C209.722 158.177 209.842 158.466 209.842 158.766C209.842 159.067 209.722 159.355 209.508 159.567C209.295 159.78 209.005 159.899 208.703 159.899Z" fill="white"/>
<path d="M233.19 166.132H182.958C182.656 166.132 182.367 166.013 182.153 165.8C181.939 165.588 181.819 165.3 181.819 164.999C181.819 164.698 181.939 164.41 182.153 164.198C182.367 163.985 182.656 163.866 182.958 163.866H233.19C233.492 163.866 233.782 163.985 233.995 164.198C234.209 164.41 234.329 164.698 234.329 164.999C234.329 165.3 234.209 165.588 233.995 165.8C233.782 166.013 233.492 166.132 233.19 166.132Z" fill="white"/>
<path d="M169.717 169.481C173.934 169.481 177.353 166.079 177.353 161.882C177.353 157.686 173.934 154.284 169.717 154.284C165.5 154.284 162.081 157.686 162.081 161.882C162.081 166.079 165.5 169.481 169.717 169.481Z" fill="white"/>
<path d="M114.687 28.1284C114.687 27.5578 114.164 26.9518 113.258 26.9518C112.241 26.9518 111.124 27.7427 110.953 29.3207C110.779 30.9144 111.714 31.6227 112.657 31.6227C113.6 31.6227 114.093 31.2332 114.598 30.7137C114.164 30.1353 113.603 30.4029 113.496 30.4619C113.377 30.5248 113.225 30.6114 112.913 30.6114C112.549 30.6114 112.178 30.4383 112.178 29.7182C114.509 29.4742 114.687 28.699 114.687 28.1284ZM113.533 28.2228C113.518 28.3999 113.451 28.7029 112.271 28.8721C112.519 27.9356 112.995 27.8647 113.214 27.8647C113.418 27.8647 113.548 28.0339 113.533 28.2228ZM109.584 28.3763C109.584 28.3763 109.083 30.0448 109.042 30.1825C109.027 30.0408 108.66 27.0462 108.66 27.0462C107.806 27.0462 107.349 27.6916 107.108 28.3724C107.108 28.3724 106.499 30.0448 106.447 30.1864C106.444 30.0566 106.355 28.392 106.355 28.392C106.303 27.5578 105.583 27.0502 105 27.0502L105.705 31.5873C106.6 31.5834 107.082 30.942 107.335 30.2612C107.335 30.2612 107.873 28.7855 107.895 28.7186C107.899 28.7816 108.281 31.5873 108.281 31.5873C109.179 31.5873 109.662 30.9852 109.921 30.3281L111.18 27.0502C110.293 27.0502 109.825 27.6916 109.584 28.3763ZM117.983 26.9439C117.43 26.9439 117.007 27.2627 116.65 27.7309V27.727L116.97 25C116.235 25 115.637 25.6768 115.522 26.6842L114.965 31.5519C115.388 31.5519 115.838 31.422 116.079 31.0915C116.294 31.3866 116.617 31.6227 117.096 31.6227C118.335 31.6227 119.185 30.0959 119.185 28.6636C119.178 27.3571 118.58 26.9439 117.983 26.9439ZM117.868 29.2853C117.738 30.0841 117.318 30.6272 116.914 30.6272C116.506 30.6272 116.331 30.4343 116.331 30.4343C116.409 29.7339 116.457 29.305 116.606 28.9351C116.754 28.5652 117.107 27.9749 117.474 27.9749C117.834 27.9749 117.998 28.4825 117.868 29.2853ZM122.281 27.0502H121.416L121.42 27.003C121.479 26.4048 121.613 26.09 122.054 26.0389C122.355 26.0074 122.489 25.8421 122.522 25.6611C122.548 25.5194 122.63 25.0275 122.63 25.0275C120.893 25.0157 120.347 25.8106 120.206 27.0226L120.202 27.0502H120.184C119.902 27.0502 119.59 27.3886 119.538 27.8175L119.519 27.9749H120.098L119.612 32.2327L119.464 32.9961C119.482 32.9961 119.505 33 119.523 33C120.336 32.9685 120.855 32.2878 120.971 31.3L121.349 27.9749H121.62C121.887 27.9749 122.199 27.6916 122.255 27.2194L122.281 27.0502ZM126.779 26.9715C125.781 26.9715 124.838 27.7506 124.548 28.9744C124.259 30.1982 124.697 31.6463 126.167 31.6463C127.633 31.6463 128.479 30.1392 128.479 28.8839C128.479 27.6365 127.681 26.9715 126.779 26.9715ZM127.184 29.2459C127.132 29.8008 126.902 30.6429 126.271 30.6429C125.636 30.6429 125.725 29.6591 125.788 29.1909C125.855 28.6911 126.118 27.9788 126.686 27.9788C127.195 27.9788 127.243 28.6203 127.184 29.2459ZM133.411 28.3763C133.411 28.3763 132.91 30.0448 132.87 30.1825C132.855 30.0408 132.487 27.0462 132.487 27.0462C131.634 27.0462 131.177 27.6916 130.936 28.3724C130.936 28.3724 130.327 30.0448 130.275 30.1864C130.272 30.0566 130.182 28.392 130.182 28.392C130.131 27.5578 129.41 27.0502 128.828 27.0502L129.529 31.5873C130.424 31.5834 130.906 30.942 131.159 30.2612C131.159 30.2612 131.697 28.7855 131.715 28.7186C131.723 28.7816 132.101 31.5873 132.101 31.5873C133 31.5873 133.482 30.9852 133.742 30.3281L135 27.0502C134.117 27.0502 133.649 27.6916 133.411 28.3763ZM123.097 25.0275L122.37 31.2489L122.221 32.0162C122.24 32.0162 122.262 32.0202 122.281 32.0202C123.064 32.0084 123.621 31.2804 123.724 30.3635L124.144 26.7944C124.27 25.7044 123.658 25.0275 123.097 25.0275Z" fill="#F77765"/>
</svg>
