<svg width="340" height="238" viewBox="0 0 340 238" fill="none" xmlns="http://www.w3.org/2000/svg">
<path d="M277.703 149.261H58.7225C57.2277 149.259 55.7946 148.665 54.7376 147.61C53.6806 146.555 53.086 145.124 53.0844 143.632V8.83318C53.0856 7.73991 53.5211 6.69176 54.2955 5.91868C55.0699 5.1456 56.1198 4.71073 57.2149 4.70947H279.139C280.253 4.71074 281.321 5.15312 282.109 5.93956C282.896 6.72601 283.339 7.79229 283.341 8.90448V143.632C283.339 145.124 282.744 146.555 281.687 147.61C280.63 148.665 279.197 149.259 277.703 149.261Z" fill="#F2F2F2"/>
<path d="M269.715 141.289H65.6311C62.6394 141.289 60.2056 139.014 60.2056 136.217V18.8329C60.2056 16.7588 62.0091 15.0713 64.226 15.0713H271.053C273.307 15.0713 275.14 16.7866 275.14 18.8948V136.217C275.14 139.014 272.706 141.289 269.715 141.289Z" fill="white"/>
<path d="M283.262 8.51126H53.0054V5.64564C53.0075 4.14838 53.6045 2.71312 54.6654 1.65472C55.7262 0.596328 57.1643 0.00123698 58.6641 0H277.604C279.103 0.00122978 280.542 0.596319 281.602 1.65471C282.663 2.71311 283.26 4.14838 283.262 5.64564V8.51126Z" fill="#CCCCCC"/>
<path d="M63.2894 5.72563C64.0977 5.72563 64.753 5.07143 64.753 4.26443C64.753 3.45743 64.0977 2.80322 63.2894 2.80322C62.481 2.80322 61.8257 3.45743 61.8257 4.26443C61.8257 5.07143 62.481 5.72563 63.2894 5.72563Z" fill="white"/>
<path d="M68.8452 5.72563C69.6535 5.72563 70.3088 5.07143 70.3088 4.26443C70.3088 3.45743 69.6535 2.80322 68.8452 2.80322C68.0368 2.80322 67.3815 3.45743 67.3815 4.26443C67.3815 5.07143 68.0368 5.72563 68.8452 5.72563Z" fill="white"/>
<path d="M74.4009 5.72563C75.2093 5.72563 75.8646 5.07143 75.8646 4.26443C75.8646 3.45743 75.2093 2.80322 74.4009 2.80322C73.5926 2.80322 72.9373 3.45743 72.9373 4.26443C72.9373 5.07143 73.5926 5.72563 74.4009 5.72563Z" fill="white"/>
<path d="M247.251 121.602H89.0953C87.5098 121.6 85.9899 120.971 84.8688 119.852C83.7478 118.732 83.1172 117.215 83.1154 115.632V39.5078C83.1167 38.3241 83.5883 37.1892 84.4267 36.3522C85.2651 35.5152 86.4019 35.0443 87.5876 35.043H248.687C249.892 35.0444 251.047 35.5227 251.899 36.3731C252.751 37.2235 253.23 38.3765 253.231 39.5791V115.632C253.229 117.215 252.599 118.732 251.478 119.852C250.357 120.971 248.837 121.6 247.251 121.602ZM87.5876 35.7252C86.5831 35.7264 85.62 36.1253 84.9097 36.8344C84.1994 37.5435 83.7999 38.505 83.7988 39.5078V115.632C83.8004 117.034 84.3589 118.378 85.3518 119.369C86.3448 120.361 87.691 120.918 89.0953 120.92H247.251C248.655 120.918 250.002 120.361 250.995 119.369C251.987 118.378 252.546 117.034 252.548 115.632V39.5791C252.546 38.5574 252.139 37.5778 251.416 36.8553C250.692 36.1328 249.711 35.7264 248.687 35.7252H87.5876Z" fill="#CCCCCC"/>
<path d="M94.5627 115.632H241.784C243.234 115.632 244.625 115.057 245.65 114.034C246.675 113.01 247.251 111.622 247.251 110.174V46.5372C247.251 45.0896 246.675 43.7013 245.65 42.6777C244.625 41.6541 243.234 41.0791 241.784 41.0791H94.5627C93.1126 41.0791 91.722 41.6541 90.6967 42.6777C89.6714 43.7013 89.0953 45.0896 89.0953 46.5372V110.174C89.0953 111.622 89.6714 113.01 90.6967 114.034C91.722 115.057 93.1126 115.632 94.5627 115.632Z" fill="#F2F2F2"/>
<path d="M111.279 59.594C112.977 59.594 114.354 58.2194 114.354 56.5238C114.354 54.8282 112.977 53.4536 111.279 53.4536C109.58 53.4536 108.203 54.8282 108.203 56.5238C108.203 58.2194 109.58 59.594 111.279 59.594Z" fill="#CCCCCC"/>
<path d="M111.279 71.1921C112.977 71.1921 114.354 69.8175 114.354 68.1219C114.354 66.4263 112.977 65.0518 111.279 65.0518C109.58 65.0518 108.203 66.4263 108.203 68.1219C108.203 69.8175 109.58 71.1921 111.279 71.1921Z" fill="#CCCCCC"/>
<path d="M111.279 82.7907C112.977 82.7907 114.354 81.4162 114.354 79.7206C114.354 78.025 112.977 76.6504 111.279 76.6504C109.58 76.6504 108.203 78.025 108.203 79.7206C108.203 81.4162 109.58 82.7907 111.279 82.7907Z" fill="#CCCCCC"/>
<path d="M111.279 94.3889C112.977 94.3889 114.354 93.0143 114.354 91.3187C114.354 89.6231 112.977 88.2485 111.279 88.2485C109.58 88.2485 108.203 89.6231 108.203 91.3187C108.203 93.0143 109.58 94.3889 111.279 94.3889Z" fill="#CCCCCC"/>
<path d="M227.801 56.8649H126.656C126.565 56.8649 126.478 56.8289 126.414 56.765C126.35 56.701 126.314 56.6142 126.314 56.5237C126.314 56.4333 126.35 56.3465 126.414 56.2825C126.478 56.2186 126.565 56.1826 126.656 56.1826H227.801C227.892 56.1826 227.979 56.2186 228.043 56.2825C228.107 56.3465 228.143 56.4333 228.143 56.5237C228.143 56.6142 228.107 56.701 228.043 56.765C227.979 56.8289 227.892 56.8649 227.801 56.8649Z" fill="#CCCCCC"/>
<path d="M227.801 68.463H126.656C126.565 68.463 126.478 68.4271 126.414 68.3631C126.35 68.2991 126.314 68.2124 126.314 68.1219C126.314 68.0314 126.35 67.9447 126.414 67.8807C126.478 67.8167 126.565 67.7808 126.656 67.7808H227.801C227.892 67.7808 227.979 67.8167 228.043 67.8807C228.107 67.9447 228.143 68.0314 228.143 68.1219C228.143 68.2124 228.107 68.2991 228.043 68.3631C227.979 68.4271 227.892 68.463 227.801 68.463Z" fill="#CCCCCC"/>
<path d="M227.801 80.0617H126.656C126.565 80.0617 126.478 80.0257 126.414 79.9617C126.35 79.8978 126.314 79.811 126.314 79.7205C126.314 79.6301 126.35 79.5433 126.414 79.4793C126.478 79.4153 126.565 79.3794 126.656 79.3794H227.801C227.892 79.3794 227.979 79.4153 228.043 79.4793C228.107 79.5433 228.143 79.6301 228.143 79.7205C228.143 79.811 228.107 79.8978 228.043 79.9617C227.979 80.0257 227.892 80.0617 227.801 80.0617Z" fill="#CCCCCC"/>
<path d="M227.801 91.6603H126.656C126.565 91.6603 126.478 91.6244 126.414 91.5604C126.35 91.4964 126.314 91.4096 126.314 91.3192C126.314 91.2287 126.35 91.1419 126.414 91.0779C126.478 91.014 126.565 90.978 126.656 90.978H227.801C227.892 90.978 227.979 91.014 228.043 91.0779C228.107 91.1419 228.143 91.2287 228.143 91.3192C228.143 91.4096 228.107 91.4964 228.043 91.5604C227.979 91.6244 227.892 91.6603 227.801 91.6603Z" fill="#CCCCCC"/>
<path d="M145.791 103.259H135.882C135.429 103.258 134.994 103.078 134.674 102.758C134.354 102.439 134.174 102.005 134.173 101.553V92.3424C134.174 91.8902 134.354 91.4566 134.674 91.1369C134.994 90.8171 135.429 90.6372 135.882 90.6367H145.791C146.244 90.6372 146.678 90.8171 146.999 91.1369C147.319 91.4566 147.499 91.8902 147.5 92.3424V101.553C147.499 102.005 147.319 102.439 146.999 102.758C146.678 103.078 146.244 103.258 145.791 103.259Z" fill="#F77765"/>
<path d="M168.002 103.258H158.093C157.64 103.258 157.205 103.078 156.885 102.758C156.565 102.438 156.385 102.005 156.384 101.553V80.7437C156.385 80.2915 156.565 79.858 156.885 79.5382C157.205 79.2185 157.64 79.0386 158.093 79.0381H168.002C168.455 79.0386 168.889 79.2185 169.21 79.5382C169.53 79.858 169.71 80.2915 169.711 80.7437V101.553C169.71 102.005 169.53 102.438 169.21 102.758C168.889 103.078 168.455 103.258 168.002 103.258Z" fill="#F77765"/>
<path d="M190.555 103.259H180.645C180.192 103.258 179.758 103.078 179.438 102.758C179.118 102.439 178.937 102.005 178.937 101.553V69.1456C178.937 68.6934 179.118 68.2599 179.438 67.9401C179.758 67.6203 180.192 67.4405 180.645 67.4399H190.555C191.008 67.4405 191.442 67.6203 191.763 67.9401C192.083 68.2599 192.263 68.6934 192.264 69.1456V101.553C192.263 102.005 192.083 102.439 191.763 102.758C191.442 103.078 191.008 103.258 190.555 103.259Z" fill="#F77765"/>
<path d="M213.791 103.259H203.882C203.429 103.258 202.994 103.078 202.674 102.758C202.354 102.439 202.174 102.005 202.173 101.553V57.8883C202.174 57.4361 202.354 57.0025 202.674 56.6828C202.994 56.363 203.429 56.1831 203.882 56.1826H213.791C214.244 56.1831 214.678 56.363 214.999 56.6828C215.319 57.0025 215.499 57.4361 215.5 57.8883V101.553C215.499 102.005 215.319 102.439 214.999 102.758C214.678 103.078 214.244 103.258 213.791 103.259Z" fill="#F77765"/>
<path d="M227.801 103.258H126.656C126.565 103.258 126.478 103.222 126.414 103.159C126.35 103.095 126.314 103.008 126.314 102.917C126.314 102.827 126.35 102.74 126.414 102.676C126.478 102.612 126.565 102.576 126.656 102.576H227.801C227.892 102.576 227.979 102.612 228.043 102.676C228.107 102.74 228.143 102.827 228.143 102.917C228.143 103.008 228.107 103.095 228.043 103.159C227.979 103.222 227.892 103.258 227.801 103.258Z" fill="#3F3D56"/>
<path d="M272.24 166.895C272.517 166.477 272.882 166.124 273.31 165.862C273.738 165.6 274.219 165.435 274.718 165.378C275.217 165.321 275.723 165.374 276.199 165.534C276.675 165.693 277.111 165.955 277.475 166.301L288.326 160.71L287.651 167.009L277.45 171.352C276.828 171.924 276.017 172.248 275.172 172.263C274.326 172.279 273.504 171.983 272.862 171.434C272.22 170.885 271.802 170.119 271.687 169.283C271.572 168.446 271.769 167.597 272.24 166.895Z" fill="#FFB8B8"/>
<path d="M281.576 169.245C281.33 169.052 281.148 168.789 281.056 168.49L280.193 165.707C280.1 165.405 280.102 165.083 280.199 164.782C280.296 164.482 280.483 164.219 280.735 164.028L289.53 157.396L299.055 139.756C299.454 139.243 299.95 138.813 300.515 138.492C301.081 138.17 301.704 137.963 302.349 137.882C302.995 137.801 303.65 137.847 304.277 138.019C304.904 138.191 305.492 138.484 306.006 138.883C306.519 139.281 306.95 139.776 307.272 140.341C307.594 140.905 307.801 141.527 307.882 142.171C307.964 142.816 307.917 143.47 307.745 144.096C307.573 144.722 307.279 145.309 306.88 145.822L301.461 157.239C299.817 160.705 296.968 163.456 293.443 164.982L283.137 169.445C282.938 169.53 282.724 169.574 282.508 169.571C282.292 169.569 282.079 169.521 281.883 169.431C281.774 169.381 281.671 169.319 281.576 169.245Z" fill="#F77765"/>
<path d="M307.119 132.393C311.754 132.393 315.512 128.642 315.512 124.015C315.512 119.387 311.754 115.636 307.119 115.636C302.484 115.636 298.727 119.387 298.727 124.015C298.727 128.642 302.484 132.393 307.119 132.393Z" fill="#E9B8A9"/>
<path d="M303.715 233.926L299.526 233.925L297.533 217.794L303.716 217.794L303.715 233.926Z" fill="#E9B8A9"/>
<path d="M296.533 232.73H304.612V237.808H291.446C291.446 237.141 291.578 236.481 291.833 235.865C292.089 235.249 292.464 234.689 292.936 234.217C293.408 233.746 293.969 233.372 294.586 233.117C295.204 232.861 295.865 232.73 296.533 232.73Z" fill="white"/>
<path d="M317.383 233.926L313.194 233.926L311.201 217.794L317.385 217.795L317.383 233.926Z" fill="#E9B8A9"/>
<path d="M310.201 232.73H318.281V237.809H305.115C305.115 237.142 305.246 236.482 305.502 235.865C305.757 235.249 306.132 234.689 306.604 234.218C307.077 233.746 307.638 233.372 308.255 233.117C308.872 232.862 309.533 232.73 310.201 232.73Z" fill="white"/>
<path d="M317.689 229.833L312.78 229.833C312.442 229.832 312.114 229.721 311.845 229.516C311.577 229.31 311.384 229.023 311.295 228.697L304.229 202.532C304.218 202.491 304.192 202.456 304.157 202.433C304.121 202.41 304.078 202.401 304.037 202.408C303.995 202.415 303.957 202.437 303.931 202.47C303.904 202.503 303.891 202.544 303.893 202.587L305.321 227.401C305.334 227.621 305.299 227.84 305.219 228.045C305.139 228.25 305.017 228.435 304.859 228.589C304.701 228.742 304.512 228.86 304.305 228.934C304.098 229.008 303.877 229.037 303.658 229.019L298.14 228.559C297.787 228.529 297.454 228.378 297.199 228.132C296.944 227.886 296.782 227.559 296.74 227.207L291.714 175.101L293.659 176.266L311.881 173.178L319.214 228.095C319.243 228.312 319.225 228.532 319.161 228.742C319.098 228.951 318.991 229.144 318.846 229.309C318.702 229.474 318.524 229.605 318.324 229.696C318.125 229.786 317.908 229.833 317.689 229.833H317.689Z" fill="#4D4C5A"/>
<path d="M297.808 180.601C295.798 180.585 293.828 180.031 292.105 178.998C291.839 178.841 291.627 178.608 291.497 178.328C291.367 178.049 291.324 177.737 291.375 177.433C292.016 173.514 295.367 153.415 298.417 142.457C299.659 137.994 302.405 135.59 306.579 135.312C312.685 134.913 318.112 139.681 318.677 145.956C319.674 157.025 315.624 172.752 313.837 178.999C313.768 179.241 313.64 179.461 313.465 179.642C313.291 179.823 313.074 179.958 312.835 180.035C312.596 180.113 312.342 180.131 312.094 180.087C311.846 180.044 311.613 179.941 311.415 179.786L307.772 176.957C307.548 176.786 307.271 176.699 306.989 176.711C306.707 176.722 306.438 176.832 306.229 177.021C303.158 179.756 300.241 180.601 297.808 180.601Z" fill="#F77765"/>
<path opacity="0.2" d="M309.857 151.373L312.932 164.336L308.489 175.252L311.565 164.677L309.857 151.373Z" fill="black"/>
<path d="M311.908 130.905C312.655 130.919 313.397 130.785 314.091 130.511C314.397 130.393 314.714 130.297 315.019 130.179C317.712 129.14 319.486 126.277 319.55 123.395C319.614 120.514 318.119 117.717 315.899 115.873C313.68 114.03 310.805 113.083 307.926 112.864C304.825 112.629 301.333 113.414 299.6 115.992C299.139 116.678 298.816 117.511 299.089 118.339C299.171 118.589 299.317 118.813 299.513 118.989C300.287 119.677 301.058 119.16 301.847 119.114C302.932 119.052 303.906 119.928 304.256 120.954C304.606 121.981 304.451 123.111 304.169 124.158C303.953 124.788 303.818 125.442 303.765 126.106C303.742 126.438 303.804 126.771 303.947 127.073C304.089 127.375 304.306 127.635 304.577 127.83C305.255 128.239 306.145 128.002 306.823 127.594C307.501 127.186 308.086 126.618 308.819 126.318C309.551 126.018 310.535 126.084 310.961 126.75C311.097 126.993 311.188 127.257 311.232 127.531C311.614 129.269 311.526 129.167 311.908 130.905Z" fill="#2F2E41"/>
<path d="M298.9 222.223L246.347 203.952C245.445 203.637 244.705 202.978 244.289 202.12C243.873 201.261 243.816 200.273 244.129 199.372L257.786 160.224C258.017 159.565 258.5 159.024 259.13 158.72C259.76 158.415 260.485 158.373 261.147 158.602L315.477 177.491C316.149 177.726 316.7 178.217 317.01 178.857C317.32 179.497 317.363 180.233 317.129 180.905L303.488 220.009C303.173 220.909 302.513 221.648 301.652 222.063C300.792 222.478 299.803 222.536 298.9 222.223Z" fill="#E6E6E6"/>
<path d="M250.831 201.702L296.785 217.679C297.661 217.983 298.621 217.928 299.455 217.525C300.289 217.123 300.929 216.406 301.234 215.532L312.262 183.921C312.566 183.047 312.511 182.088 312.108 181.255C311.705 180.423 310.986 179.784 310.111 179.48L264.157 163.503C263.282 163.198 262.322 163.254 261.487 163.656C260.653 164.059 260.013 164.776 259.708 165.649L248.681 197.261C248.53 197.693 248.466 198.151 248.492 198.609C248.519 199.066 248.635 199.514 248.835 199.926C249.034 200.338 249.313 200.708 249.656 201.012C249.999 201.317 250.398 201.551 250.831 201.702Z" fill="white"/>
<path d="M262.371 179.492L260.095 178.701C259.972 178.658 259.87 178.568 259.814 178.45C259.757 178.333 259.749 178.198 259.792 178.074L260.584 175.802C260.627 175.679 260.718 175.578 260.835 175.521C260.953 175.464 261.088 175.457 261.212 175.499L263.488 176.291C263.611 176.334 263.712 176.424 263.769 176.541C263.826 176.659 263.834 176.794 263.791 176.917L262.999 179.189C262.955 179.312 262.865 179.413 262.748 179.47C262.63 179.527 262.494 179.535 262.371 179.492Z" fill="#F77765"/>
<path d="M260.317 185.379L258.041 184.588C257.918 184.545 257.817 184.454 257.76 184.337C257.703 184.219 257.695 184.084 257.738 183.961L258.531 181.689C258.574 181.566 258.664 181.465 258.782 181.408C258.899 181.351 259.035 181.343 259.158 181.386L261.434 182.177C261.557 182.22 261.659 182.311 261.716 182.428C261.772 182.545 261.78 182.681 261.737 182.804L260.945 185.076C260.902 185.199 260.811 185.3 260.694 185.357C260.576 185.414 260.441 185.422 260.317 185.379Z" fill="#F77765" fill-opacity="0.34"/>
<path d="M258.264 191.266L255.988 190.474C255.865 190.431 255.763 190.341 255.706 190.224C255.65 190.106 255.642 189.971 255.684 189.848L256.477 187.576C256.52 187.453 256.61 187.351 256.728 187.295C256.846 187.238 256.981 187.23 257.105 187.273L259.381 188.064C259.504 188.107 259.605 188.197 259.662 188.315C259.719 188.432 259.727 188.567 259.684 188.691L258.891 190.963C258.848 191.086 258.758 191.187 258.64 191.244C258.523 191.3 258.387 191.308 258.264 191.266Z" fill="#CCCCCC"/>
<path d="M277.664 183.535L266.698 179.723C266.637 179.702 266.58 179.669 266.532 179.626C266.483 179.583 266.444 179.531 266.415 179.472C266.387 179.414 266.371 179.351 266.367 179.286C266.363 179.222 266.372 179.157 266.393 179.096C266.415 179.035 266.448 178.978 266.491 178.93C266.534 178.882 266.587 178.842 266.645 178.814C266.703 178.786 266.767 178.77 266.832 178.766C266.896 178.763 266.961 178.772 267.022 178.793L277.988 182.606C278.049 182.627 278.106 182.66 278.154 182.703C278.203 182.746 278.242 182.798 278.27 182.856C278.299 182.914 278.315 182.978 278.319 183.042C278.323 183.107 278.314 183.172 278.292 183.233C278.271 183.294 278.238 183.35 278.195 183.399C278.152 183.447 278.099 183.486 278.041 183.514C277.982 183.542 277.919 183.559 277.854 183.562C277.79 183.566 277.725 183.557 277.664 183.535Z" fill="#CCCCCC"/>
<path d="M275.61 189.422L264.645 185.61C264.521 185.567 264.42 185.477 264.363 185.359C264.306 185.242 264.298 185.106 264.341 184.983C264.384 184.86 264.474 184.759 264.592 184.702C264.71 184.645 264.845 184.637 264.969 184.68L275.934 188.493C275.996 188.514 276.052 188.547 276.101 188.59C276.149 188.633 276.189 188.685 276.217 188.743C276.245 188.801 276.262 188.864 276.265 188.929C276.269 188.994 276.26 189.058 276.239 189.12C276.217 189.181 276.184 189.237 276.141 189.285C276.098 189.334 276.046 189.373 275.987 189.401C275.929 189.429 275.866 189.445 275.801 189.449C275.736 189.453 275.671 189.443 275.61 189.422Z" fill="#CCCCCC"/>
<path d="M273.556 195.308L262.591 191.496C262.467 191.453 262.366 191.363 262.309 191.245C262.252 191.128 262.244 190.993 262.287 190.869C262.33 190.746 262.421 190.645 262.538 190.588C262.656 190.531 262.792 190.524 262.915 190.566L273.881 194.379C274.004 194.422 274.105 194.512 274.162 194.629C274.219 194.747 274.227 194.882 274.184 195.005C274.141 195.129 274.051 195.23 273.933 195.287C273.815 195.343 273.68 195.351 273.556 195.308Z" fill="#CCCCCC"/>
<path d="M302.738 198.498C302.818 198.307 302.893 198.112 302.962 197.914C303.864 195.33 303.7 192.495 302.507 190.032C301.315 187.569 299.191 185.68 296.603 184.78L292.999 195.112L302.738 198.498Z" fill="#F77765"/>
<path d="M291.95 195.74L295.554 185.408C293.65 184.746 291.592 184.655 289.636 185.146C287.68 185.637 285.911 186.689 284.546 188.171C283.182 189.654 282.282 191.503 281.957 193.491C281.633 195.478 281.898 197.517 282.721 199.355C283.543 201.194 284.886 202.752 286.585 203.838C288.284 204.923 290.264 205.489 292.281 205.464C294.297 205.44 296.263 204.827 297.935 203.701C299.607 202.574 300.912 200.984 301.69 199.126L291.95 195.74Z" fill="#F77765" fill-opacity="0.34"/>
<path d="M304.854 180.919C304.813 180.42 304.882 179.917 305.057 179.447C305.232 178.977 305.508 178.551 305.866 178.198C306.223 177.846 306.654 177.577 307.127 177.409C307.601 177.241 308.105 177.179 308.605 177.226L313.688 166.142L317.05 171.514L311.709 181.216C311.573 182.05 311.135 182.804 310.479 183.337C309.823 183.87 308.994 184.144 308.149 184.107C307.304 184.071 306.502 183.726 305.895 183.139C305.287 182.551 304.917 181.761 304.854 180.919Z" fill="#FFB8B8"/>
<path d="M313.652 177.016C313.339 177.016 313.034 176.921 312.776 176.743L310.377 175.084C310.117 174.904 309.92 174.649 309.81 174.353C309.701 174.057 309.685 173.735 309.766 173.429L312.586 162.793L309.177 143.044C309.173 142.394 309.297 141.75 309.543 141.148C309.788 140.546 310.151 139.998 310.608 139.536C311.066 139.074 311.611 138.707 312.211 138.455C312.811 138.203 313.455 138.072 314.106 138.069C314.757 138.066 315.402 138.191 316.005 138.437C316.608 138.683 317.156 139.045 317.618 139.502C318.08 139.96 318.448 140.504 318.699 141.104C318.951 141.703 319.081 142.346 319.084 142.996L321.878 155.319C322.726 159.059 322.185 162.979 320.355 166.351L315.004 176.212C314.901 176.402 314.759 176.567 314.588 176.699C314.416 176.83 314.219 176.924 314.009 176.974C313.892 177.002 313.773 177.016 313.652 177.016Z" fill="#F77765"/>
<path d="M167.622 233.756L171.811 233.756L173.804 217.625H167.621L167.622 233.756Z" fill="#A0616A"/>
<path d="M166.554 232.39L174.804 232.39H174.804C175.495 232.39 176.178 232.525 176.816 232.789C177.454 233.053 178.034 233.44 178.522 233.927C179.01 234.414 179.397 234.993 179.662 235.63C179.926 236.267 180.062 236.949 180.062 237.638V237.809L166.554 237.809L166.554 232.39Z" fill="white"/>
<path d="M150.878 233.756L155.068 233.756L157.061 217.625H150.878L150.878 233.756Z" fill="#A0616A"/>
<path d="M149.81 232.39L158.06 232.39H158.06C158.751 232.39 159.435 232.525 160.072 232.789C160.71 233.053 161.29 233.44 161.778 233.927C162.266 234.414 162.654 234.993 162.918 235.63C163.182 236.267 163.318 236.949 163.318 237.638V237.809L149.81 237.809L149.81 232.39Z" fill="white"/>
<path d="M168.458 122.076C173.093 122.076 176.851 118.325 176.851 113.698C176.851 109.071 173.093 105.319 168.458 105.319C163.823 105.319 160.066 109.071 160.066 113.698C160.066 118.325 163.823 122.076 168.458 122.076Z" fill="#A0616A"/>
<path d="M174.102 230.274H166.328C166.124 230.274 165.923 230.234 165.735 230.156C165.547 230.077 165.377 229.963 165.234 229.818C165.091 229.673 164.978 229.502 164.902 229.314C164.826 229.125 164.788 228.924 164.79 228.721L165.242 191.868C165.244 191.737 165.195 191.61 165.106 191.514C165.017 191.418 164.895 191.36 164.764 191.351C164.633 191.342 164.504 191.384 164.403 191.467C164.302 191.551 164.237 191.67 164.221 191.8L159.696 228.925C159.651 229.297 159.47 229.639 159.189 229.888C158.908 230.137 158.545 230.274 158.17 230.274H150.321C150.109 230.274 149.899 230.231 149.705 230.146C149.511 230.061 149.336 229.937 149.192 229.782C149.048 229.626 148.938 229.443 148.868 229.243C148.799 229.043 148.772 228.831 148.788 228.62L153.971 162.415L154.112 162.399L178.93 159.724L175.638 228.812C175.62 229.206 175.45 229.578 175.164 229.851C174.878 230.123 174.497 230.275 174.102 230.274Z" fill="#4D4C5A"/>
<path d="M154.273 166.479C153.874 166.478 153.492 166.322 153.206 166.045C152.92 165.767 152.753 165.39 152.741 164.992C152.605 160.806 152.373 146.321 155.072 135.687C155.809 132.782 157.462 130.191 159.787 128.296C162.113 126.402 164.988 125.305 167.986 125.167C170.937 125.006 173.865 125.777 176.352 127.37C178.84 128.964 180.762 131.299 181.845 134.044C186.382 145.541 190.668 159.713 185.324 161.936C178.321 164.849 159.859 166.147 154.367 166.476C154.336 166.478 154.304 166.479 154.273 166.479Z" fill="#C7A39E"/>
<path d="M186.35 105.23C186.482 105.365 186.624 105.49 186.775 105.602L185.894 122.497L182.23 124.37L184.338 130.261L191.149 127.575C191.699 127.358 192.164 126.968 192.473 126.465C192.783 125.962 192.921 125.372 192.866 124.784L191.082 105.619C191.666 105.185 192.103 104.583 192.336 103.894C192.569 103.204 192.586 102.461 192.385 101.762C192.184 101.063 191.775 100.442 191.211 99.9805C190.648 99.5194 189.958 99.2404 189.232 99.1806C188.506 99.1208 187.779 99.283 187.148 99.6458C186.516 100.009 186.011 100.555 185.698 101.211C185.385 101.868 185.28 102.604 185.396 103.322C185.513 104.04 185.845 104.705 186.35 105.23Z" fill="#A0616A"/>
<path d="M185.964 123.126L188.542 130.44C188.615 130.648 188.643 130.869 188.623 131.089C188.603 131.308 188.535 131.521 188.425 131.713C188.316 131.904 188.166 132.069 187.986 132.198C187.806 132.326 187.601 132.414 187.384 132.456L179.782 133.926C178.714 134.294 177.542 134.225 176.525 133.733C175.508 133.24 174.727 132.366 174.355 131.3C173.983 130.234 174.049 129.064 174.54 128.047C175.03 127.03 175.904 126.249 176.971 125.874L183.796 122.278C183.992 122.175 184.207 122.115 184.428 122.103C184.648 122.091 184.869 122.126 185.075 122.206C185.28 122.287 185.466 122.411 185.62 122.569C185.773 122.728 185.891 122.918 185.964 123.126V123.126Z" fill="#C7A39E"/>
<path d="M149.997 105.23C149.865 105.365 149.722 105.49 149.571 105.602L150.452 122.497L154.116 124.37L152.008 130.261L145.198 127.575C144.648 127.358 144.183 126.968 143.873 126.465C143.563 125.962 143.426 125.372 143.48 124.784L145.264 105.619C144.681 105.185 144.243 104.583 144.011 103.894C143.778 103.204 143.761 102.461 143.962 101.762C144.162 101.063 144.572 100.442 145.135 99.9805C145.698 99.5194 146.389 99.2404 147.114 99.1806C147.84 99.1208 148.567 99.283 149.199 99.6458C149.83 100.009 150.336 100.555 150.649 101.211C150.962 101.868 151.067 102.604 150.95 103.322C150.834 104.04 150.501 104.705 149.997 105.23H149.997Z" fill="#A0616A"/>
<path d="M151.272 122.206C151.478 122.125 151.698 122.09 151.919 122.102C152.14 122.115 152.355 122.175 152.55 122.278L159.375 125.874C160.442 126.248 161.316 127.03 161.807 128.047C162.297 129.064 162.364 130.234 161.992 131.299C161.619 132.365 160.839 133.24 159.822 133.732C158.804 134.225 157.633 134.294 156.564 133.925L148.963 132.456C148.746 132.414 148.54 132.326 148.361 132.197C148.181 132.069 148.031 131.904 147.921 131.712C147.811 131.521 147.744 131.308 147.724 131.088C147.704 130.869 147.731 130.647 147.804 130.439L150.382 123.126C150.456 122.918 150.573 122.728 150.727 122.569C150.88 122.41 151.066 122.286 151.272 122.206Z" fill="#C7A39E"/>
<path d="M171.718 115.126C171.674 114.057 171.943 112.999 172.491 112.08C173.04 111.161 173.845 110.421 174.807 109.952C177.358 108.637 178.961 105.832 178.259 103.272C177.36 99.9937 172.891 97.8678 169.27 98.9956C168.29 99.3429 167.345 99.7814 166.447 100.305L164.082 101.571C163.071 102.076 162.097 102.65 161.165 103.29C159.771 104.316 158.677 105.697 158 107.289C157.323 108.881 157.086 110.625 157.314 112.34C157.78 115.672 159.966 118.728 162.959 120.821C164.103 121.675 165.425 122.261 166.826 122.537C168.261 122.773 169.857 122.505 170.906 121.614C172.545 120.223 172.376 117.892 171.846 115.946C171.776 115.678 171.733 115.403 171.718 115.126Z" fill="#2F2E41"/>
<path d="M94.2808 175.768L40.7087 197.709C39.7887 198.084 38.757 198.08 37.8399 197.697C36.9229 197.315 36.1954 196.584 35.8171 195.667L19.4179 155.76C19.1422 155.087 19.1452 154.333 19.4261 153.662C19.7071 152.991 20.243 152.459 20.9164 152.183L76.2996 129.5C76.9853 129.22 77.7542 129.223 78.4377 129.509C79.1211 129.794 79.6633 130.338 79.9452 131.022L96.3265 170.885C96.7027 171.803 96.6986 172.833 96.3151 173.749C95.9316 174.664 95.2 175.391 94.2808 175.768Z" fill="#E6E6E6"/>
<path d="M42.6493 192.869L89.4944 173.683C90.3864 173.318 91.0966 172.614 91.4686 171.726C91.8406 170.837 91.844 169.838 91.478 168.948L78.2357 136.724C78.0545 136.283 77.7881 135.882 77.4516 135.543C77.1152 135.205 76.7153 134.937 76.2749 134.753C75.8344 134.569 75.362 134.473 74.8845 134.472C74.4071 134.47 73.9341 134.562 73.4923 134.743L26.6473 153.929C26.2056 154.11 25.8039 154.376 25.4652 154.712C25.1264 155.047 24.8573 155.447 24.6731 155.886C24.4889 156.326 24.3932 156.798 24.3916 157.274C24.39 157.751 24.4824 158.223 24.6636 158.664L37.9059 190.888C38.0871 191.329 38.3536 191.73 38.69 192.068C39.0265 192.407 39.4263 192.675 39.8668 192.859C40.3073 193.043 40.7797 193.139 41.2571 193.14C41.7345 193.142 42.2076 193.049 42.6493 192.869Z" fill="white"/>
<path d="M77.9767 145.512L77.288 145.794L77.3351 145.909L78.0238 145.626L77.9767 145.512Z" fill="#E6E6E6"/>
<path d="M75.9438 146.478L74.5525 147.048L74.5054 146.934L75.8967 146.364L75.9438 146.478ZM73.1611 147.618L71.7698 148.188L71.7227 148.073L73.114 147.503L73.1611 147.618ZM70.3784 148.758L68.9871 149.328L68.94 149.213L70.3313 148.643L70.3784 148.758ZM67.5957 149.897L66.2044 150.467L66.1573 150.353L67.5486 149.783L67.5957 149.897ZM64.813 151.037L63.4217 151.607L63.3746 151.492L64.7659 150.922L64.813 151.037ZM62.0303 152.177L60.639 152.747L60.5919 152.632L61.9832 152.062L62.0303 152.177ZM59.2476 153.316L57.8563 153.886L57.8092 153.772L59.2005 153.202L59.2476 153.316ZM56.4649 154.456L55.0736 155.026L55.0265 154.911L56.4178 154.341L56.4649 154.456ZM53.6822 155.596L52.2908 156.166L52.2438 156.051L53.6351 155.481L53.6822 155.596ZM50.8995 156.735L49.5081 157.305L49.461 157.191L50.8524 156.621L50.8995 156.735ZM48.1168 157.875L46.7254 158.445L46.6783 158.33L48.0697 157.76L48.1168 157.875ZM45.3341 159.015L43.9427 159.585L43.8956 159.47L45.287 158.9L45.3341 159.015ZM42.5513 160.154L41.16 160.724L41.1129 160.61L42.5043 160.04L42.5513 160.154ZM39.7686 161.294L38.3773 161.864L38.3302 161.749L39.7216 161.179L39.7686 161.294ZM36.9859 162.434L35.5946 163.004L35.5475 162.889L36.9388 162.319L36.9859 162.434ZM34.2032 163.573L32.8119 164.143L32.7648 164.029L34.1561 163.459L34.2032 163.573Z" fill="#E6E6E6"/>
<path d="M31.3735 164.598L30.6848 164.88L30.7319 164.995L31.4206 164.713L31.3735 164.598Z" fill="#E6E6E6"/>
<path d="M59.7434 165.43L59.0547 165.712L59.1018 165.827L59.7905 165.545L59.7434 165.43Z" fill="#E6E6E6"/>
<path d="M57.7309 166.388L56.3603 166.949L56.3132 166.835L57.6839 166.273L57.7309 166.388ZM54.9896 167.511L53.6189 168.072L53.5718 167.958L54.9425 167.396L54.9896 167.511ZM52.2482 168.633L50.8775 169.195L50.8304 169.08L52.2011 168.519L52.2482 168.633ZM49.5068 169.756L48.1361 170.318L48.089 170.203L49.4597 169.642L49.5068 169.756ZM46.7655 170.879L45.3947 171.44L45.3476 171.326L46.7184 170.764L46.7655 170.879ZM44.0241 172.002L42.6534 172.563L42.6063 172.449L43.977 171.887L44.0241 172.002ZM41.2827 173.124L39.912 173.686L39.8649 173.571L41.2356 173.01L41.2827 173.124ZM38.5413 174.247L37.1706 174.809L37.1235 174.694L38.4942 174.133L38.5413 174.247Z" fill="#E6E6E6"/>
<path d="M35.753 175.256L35.0643 175.538L35.1114 175.652L35.8001 175.37L35.753 175.256Z" fill="#E6E6E6"/>
<path d="M48.3853 175.972L47.6965 176.254L47.7436 176.369L48.4323 176.087L48.3853 175.972Z" fill="#E6E6E6"/>
<path d="M46.3335 176.947L44.9233 177.524L44.8762 177.41L46.2864 176.832L46.3335 176.947ZM43.513 178.102L42.1028 178.679L42.0557 178.565L43.4659 177.987L43.513 178.102ZM40.6926 179.257L39.2823 179.834L39.2352 179.72L40.6455 179.142L40.6926 179.257Z" fill="#E6E6E6"/>
<path d="M37.825 180.298L37.1362 180.58L37.1833 180.694L37.872 180.412L37.825 180.298Z" fill="#E6E6E6"/>
<path d="M51.9211 184.577L51.2324 184.859L51.2795 184.973L51.9682 184.691L51.9211 184.577Z" fill="#E6E6E6"/>
<path d="M49.8694 185.551L48.4591 186.129L48.4121 186.014L49.8223 185.437L49.8694 185.551ZM47.0489 186.706L45.6387 187.284L45.5916 187.169L47.0018 186.592L47.0489 186.706ZM44.2284 187.861L42.8182 188.439L42.7711 188.324L44.1813 187.747L44.2284 187.861Z" fill="#E6E6E6"/>
<path d="M41.3608 188.902L40.6721 189.184L40.7192 189.299L41.4079 189.017L41.3608 188.902Z" fill="#E6E6E6"/>
<path d="M44.6384 187.796L84.3364 171.538C85.2972 171.143 86.0619 170.384 86.4627 169.427C86.8636 168.47 86.8678 167.394 86.4746 166.434L78.4538 146.916L78.3762 146.95L68.6343 170.204L61.409 167.188C61.2757 167.132 61.1312 167.108 60.9868 167.117C60.8424 167.126 60.7021 167.168 60.5768 167.24C60.3887 167.353 60.2431 167.525 60.1626 167.729L55.0571 179.915L49.7743 177.71C49.6603 177.662 49.5381 177.638 49.4145 177.637C49.2909 177.637 49.1685 177.661 49.0541 177.707C48.9398 177.754 48.8359 177.823 48.7482 177.91C48.6605 177.997 48.5909 178.1 48.5433 178.214C48.5094 178.297 45.2521 186.275 44.6384 187.796Z" fill="#F77765"/>
<path d="M44.5159 187.98L44.4015 187.932L48.4865 178.18C48.5946 177.923 48.8006 177.719 49.0593 177.613C49.318 177.507 49.6082 177.508 49.8663 177.615L55.0447 179.777L60.1212 167.659C60.2293 167.401 60.4353 167.197 60.694 167.091C60.9527 166.985 61.2429 166.986 61.501 167.093L68.6219 170.066L78.4139 146.691L78.5283 146.739L68.6885 170.228L61.4531 167.208C61.3404 167.161 61.2194 167.136 61.0972 167.136C60.975 167.135 60.854 167.159 60.7409 167.205C60.6279 167.252 60.525 167.32 60.4383 167.406C60.3516 167.492 60.2828 167.594 60.2356 167.706L55.1113 179.939L49.8184 177.73C49.5907 177.635 49.3346 177.634 49.1064 177.728C48.8782 177.821 48.6964 178.001 48.6009 178.228L44.5159 187.98Z" fill="#3F3D56"/>
<path d="M48.4088 176.897C48.8884 176.897 49.2773 176.508 49.2773 176.03C49.2773 175.551 48.8884 175.163 48.4088 175.163C47.9291 175.163 47.5403 175.551 47.5403 176.03C47.5403 176.508 47.9291 176.897 48.4088 176.897Z" fill="#3F3D56"/>
<path d="M59.7669 166.354C60.2466 166.354 60.6354 165.966 60.6354 165.487C60.6354 165.008 60.2466 164.62 59.7669 164.62C59.2873 164.62 58.8984 165.008 58.8984 165.487C58.8984 165.966 59.2873 166.354 59.7669 166.354Z" fill="#3F3D56"/>
<path d="M77.4527 146.405C77.9324 146.405 78.3212 146.017 78.3212 145.538C78.3212 145.06 77.9324 144.671 77.4527 144.671C76.9731 144.671 76.5842 145.06 76.5842 145.538C76.5842 146.017 76.9731 146.405 77.4527 146.405Z" fill="#3F3D56"/>
<path d="M28.8407 175.046C29.2922 174.821 29.6889 174.501 30.0029 174.107C30.317 173.713 30.5407 173.255 30.6583 172.766C30.7759 172.276 30.7845 171.767 30.6836 171.274C30.5827 170.78 30.3747 170.315 30.0742 169.911L32.6537 144.734H27.0793L25.0293 169.318C24.3824 169.867 23.9596 170.634 23.8412 171.473C23.7227 172.312 23.9168 173.166 24.3866 173.872C24.8564 174.578 25.5693 175.087 26.3902 175.304C27.2111 175.52 28.083 175.428 28.8407 175.046Z" fill="#E9B8A9"/>
<path d="M33.959 130.84C38.3147 130.84 41.8457 127.315 41.8457 122.967C41.8457 118.618 38.3147 115.093 33.959 115.093C29.6034 115.093 26.0724 118.618 26.0724 122.967C26.0724 127.315 29.6034 130.84 33.959 130.84Z" fill="#E9B8A9"/>
<path d="M35.4438 159.397C35.1281 159.397 34.8212 159.293 34.5701 159.102C34.319 158.911 34.1376 158.643 34.0538 158.339C33.4219 156.047 31.778 152.172 29.1677 146.822C28.5788 145.612 28.2526 144.292 28.2107 142.947C28.1688 141.603 28.412 140.265 28.9245 139.021C29.4369 137.778 30.207 136.656 31.1842 135.73C32.1614 134.804 33.3237 134.095 34.5947 133.65C35.7992 133.225 37.0767 133.046 38.3517 133.123C39.6268 133.2 40.8734 133.531 42.0178 134.098C43.1623 134.664 44.1813 135.454 45.0147 136.42C45.848 137.387 46.4787 138.51 46.8695 139.724C48.8927 146.057 48.795 152.84 48.6591 155.462C48.6422 155.778 48.5221 156.079 48.3171 156.32C48.1122 156.562 47.8337 156.729 47.5243 156.797L35.7537 159.363C35.652 159.385 35.548 159.397 35.4438 159.397Z" fill="#F77765"/>
<path d="M46.8422 234.16H50.7787L52.6516 219.001L46.8416 219.002L46.8422 234.16Z" fill="#E9B8A9"/>
<path d="M58.3712 237.809L45.9988 237.81L45.9986 233.038L53.5908 233.037C54.2185 233.037 54.8401 233.161 55.4201 233.4C56.0001 233.64 56.5271 233.992 56.971 234.435C57.4149 234.878 57.767 235.404 58.0073 235.983C58.2475 236.562 58.3712 237.182 58.3712 237.809Z" fill="white"/>
<path d="M7.47729 229.067L10.9272 230.96L19.884 218.578L14.7929 215.783L7.47729 229.067Z" fill="#E9B8A9"/>
<path d="M15.8192 237.81L4.97731 231.859L7.28027 227.677L13.9333 231.329C15.0442 231.938 15.8671 232.964 16.2207 234.179C16.5744 235.395 16.43 236.7 15.8192 237.81Z" fill="white"/>
<path d="M46.6584 225.747C46.3076 225.746 45.9689 225.619 45.7054 225.387C45.442 225.156 45.2719 224.837 45.2268 224.49L40.3035 186.616C40.2818 186.449 40.2075 186.292 40.0914 186.169C39.9753 186.046 39.8233 185.963 39.6571 185.932C39.4908 185.9 39.3188 185.922 39.1657 185.994C39.0126 186.066 38.8862 186.184 38.8045 186.332L18.2863 223.495C18.117 223.798 17.8443 224.031 17.5177 224.151C17.191 224.27 16.8323 224.269 16.5065 224.147L12.0342 222.446C11.8543 222.378 11.6899 222.274 11.5507 222.141C11.4115 222.009 11.3002 221.849 11.2235 221.673C11.1467 221.497 11.106 221.307 11.1037 221.115C11.1015 220.923 11.1377 220.732 11.2103 220.554L25.4237 185.697C25.4597 185.609 25.4841 185.516 25.4963 185.421C27.4214 170.546 32.3196 162.982 33.7749 161.018C33.8812 160.873 33.9512 160.705 33.9789 160.528C34.0066 160.351 33.9913 160.17 33.9341 160L33.7341 159.401C33.6542 159.164 33.6378 158.909 33.6866 158.663C33.7353 158.417 33.8476 158.188 34.0122 157.998C39.2562 152.035 48.3964 155.289 48.4881 155.323L48.5339 155.34L48.5626 155.379C58.8114 169.41 55.0221 214.985 54.1584 223.979C54.1262 224.317 53.9752 224.632 53.7323 224.87C53.4894 225.108 53.1701 225.252 52.831 225.277L46.7706 225.743C46.7329 225.746 46.6955 225.747 46.6584 225.747Z" fill="#4D4C5A"/>
<path d="M64.6192 132.112C64.5798 132.285 64.5541 132.461 64.5424 132.638L50.7486 140.582L47.3958 138.655L43.8215 143.327L49.4249 147.314C49.8776 147.636 50.4227 147.802 50.9784 147.789C51.5342 147.775 52.0705 147.582 52.5069 147.239L66.7307 136.036C67.3727 136.274 68.0717 136.31 68.7349 136.141C69.3981 135.972 69.994 135.605 70.4434 135.09C70.8928 134.574 71.1743 133.934 71.2505 133.255C71.3268 132.576 71.1941 131.89 70.8702 131.288C70.5463 130.686 70.0465 130.197 69.4372 129.886C68.828 129.574 68.1382 129.455 67.4596 129.545C66.781 129.634 66.1458 129.928 65.6384 130.386C65.131 130.845 64.7756 131.447 64.6192 132.112Z" fill="#E9B8A9"/>
<path d="M50.2875 140.958L45.8294 146.726C45.7026 146.89 45.5418 147.025 45.358 147.122C45.1742 147.218 44.9718 147.274 44.7644 147.285C44.5571 147.297 44.3497 147.263 44.1565 147.187C43.9633 147.112 43.7887 146.995 43.6446 146.846L38.5977 141.614C37.7603 140.961 37.2163 140.004 37.085 138.951C36.9537 137.899 37.2458 136.837 37.8972 135.999C38.5487 135.162 39.5063 134.616 40.5602 134.482C41.6141 134.348 42.6782 134.637 43.5192 135.285L49.8491 138.818C50.0303 138.919 50.1875 139.058 50.3101 139.226C50.4326 139.393 50.5176 139.585 50.5592 139.788C50.6008 139.991 50.5981 140.201 50.5512 140.403C50.5043 140.604 50.4144 140.794 50.2875 140.958Z" fill="#F77765"/>
<path d="M33.0085 150.979L25.8268 149.685C25.6224 149.648 25.4284 149.568 25.258 149.449C25.0876 149.331 24.9447 149.177 24.8392 148.999C24.7336 148.82 24.6678 148.621 24.6463 148.415C24.6248 148.209 24.6481 148 24.7145 147.804L27.0427 140.922C27.2373 139.879 27.8382 138.956 28.7136 138.355C29.589 137.754 30.6674 137.524 31.7124 137.716C32.7574 137.907 33.6836 138.505 34.288 139.377C34.8925 140.249 35.1257 141.325 34.9367 142.369L34.7095 149.605C34.7029 149.813 34.6517 150.016 34.5593 150.202C34.467 150.387 34.3356 150.551 34.1741 150.681C34.0127 150.812 33.825 150.906 33.6239 150.957C33.4227 151.009 33.2129 151.016 33.0085 150.979H33.0085Z" fill="#FF6584"/>
<path d="M35.2072 121.155C37.2342 122.54 39.8958 123.964 41.9661 122.489C42.6137 121.997 43.0842 121.308 43.307 120.527C43.5299 119.745 43.4933 118.912 43.2025 118.153C42.2112 115.323 39.4876 114.077 36.883 113.122C33.4972 111.881 29.8105 110.893 26.3151 111.782C22.8198 112.671 19.7307 116.05 20.3617 119.595C20.8691 122.446 23.5631 124.819 23.1806 127.689C22.7957 130.578 19.5413 132.099 16.6682 132.615C13.795 133.131 10.5799 133.297 8.51509 135.358C5.88104 137.986 6.53881 142.683 9.01734 145.458C11.4959 148.233 15.2361 149.491 18.8604 150.346C23.6624 151.479 28.8561 152.074 33.4167 150.194C37.9774 148.314 41.5264 143.253 40.2053 138.507C39.6472 136.502 38.3326 134.808 37.0621 133.158C35.7917 131.509 34.5052 129.784 34.0205 127.76C33.6167 126.074 33.9156 124.116 35.0358 122.851C35.2396 122.63 35.3678 122.349 35.4021 122.051C35.4364 121.752 35.375 121.45 35.2267 121.188L35.2072 121.155Z" fill="#2F2E41"/>
<path d="M163.687 24.1284C163.687 23.5578 163.164 22.9518 162.258 22.9518C161.241 22.9518 160.124 23.7427 159.953 25.3207C159.779 26.9144 160.714 27.6227 161.657 27.6227C162.6 27.6227 163.093 27.2332 163.598 26.7137C163.164 26.1353 162.603 26.4029 162.496 26.4619C162.377 26.5248 162.225 26.6114 161.913 26.6114C161.549 26.6114 161.178 26.4383 161.178 25.7182C163.509 25.4742 163.687 24.699 163.687 24.1284ZM162.533 24.2228C162.518 24.3999 162.451 24.7029 161.271 24.8721C161.519 23.9356 161.995 23.8647 162.214 23.8647C162.418 23.8647 162.548 24.0339 162.533 24.2228ZM158.584 24.3763C158.584 24.3763 158.083 26.0448 158.042 26.1825C158.027 26.0408 157.66 23.0462 157.66 23.0462C156.806 23.0462 156.349 23.6916 156.108 24.3724C156.108 24.3724 155.499 26.0448 155.447 26.1864C155.444 26.0566 155.355 24.392 155.355 24.392C155.303 23.5578 154.583 23.0502 154 23.0502L154.705 27.5873C155.6 27.5834 156.082 26.942 156.335 26.2612C156.335 26.2612 156.873 24.7855 156.895 24.7186C156.899 24.7816 157.281 27.5873 157.281 27.5873C158.179 27.5873 158.662 26.9852 158.921 26.3281L160.18 23.0502C159.293 23.0502 158.825 23.6916 158.584 24.3763ZM166.983 22.9439C166.43 22.9439 166.007 23.2627 165.65 23.7309V23.727L165.97 21C165.235 21 164.637 21.6768 164.522 22.6842L163.965 27.5519C164.388 27.5519 164.838 27.422 165.079 27.0915C165.294 27.3866 165.617 27.6227 166.096 27.6227C167.335 27.6227 168.185 26.0959 168.185 24.6636C168.178 23.3571 167.58 22.9439 166.983 22.9439ZM166.868 25.2853C166.738 26.0841 166.318 26.6272 165.914 26.6272C165.506 26.6272 165.331 26.4343 165.331 26.4343C165.409 25.7339 165.457 25.305 165.606 24.9351C165.754 24.5652 166.107 23.9749 166.474 23.9749C166.834 23.9749 166.998 24.4825 166.868 25.2853ZM171.281 23.0502H170.416L170.42 23.003C170.479 22.4048 170.613 22.09 171.054 22.0389C171.355 22.0074 171.489 21.8421 171.522 21.6611C171.548 21.5194 171.63 21.0275 171.63 21.0275C169.893 21.0157 169.347 21.8106 169.206 23.0226L169.202 23.0502H169.184C168.902 23.0502 168.59 23.3886 168.538 23.8175L168.519 23.9749H169.098L168.612 28.2327L168.464 28.9961C168.482 28.9961 168.505 29 168.523 29C169.336 28.9685 169.855 28.2878 169.971 27.3L170.349 23.9749H170.62C170.887 23.9749 171.199 23.6916 171.255 23.2194L171.281 23.0502ZM175.779 22.9715C174.781 22.9715 173.838 23.7506 173.548 24.9744C173.259 26.1982 173.697 27.6463 175.167 27.6463C176.633 27.6463 177.479 26.1392 177.479 24.8839C177.479 23.6365 176.681 22.9715 175.779 22.9715ZM176.184 25.2459C176.132 25.8008 175.902 26.6429 175.271 26.6429C174.636 26.6429 174.725 25.6591 174.788 25.1909C174.855 24.6911 175.118 23.9788 175.686 23.9788C176.195 23.9788 176.243 24.6203 176.184 25.2459ZM182.411 24.3763C182.411 24.3763 181.91 26.0448 181.87 26.1825C181.855 26.0408 181.487 23.0462 181.487 23.0462C180.634 23.0462 180.177 23.6916 179.936 24.3724C179.936 24.3724 179.327 26.0448 179.275 26.1864C179.272 26.0566 179.182 24.392 179.182 24.392C179.131 23.5578 178.41 23.0502 177.828 23.0502L178.529 27.5873C179.424 27.5834 179.906 26.942 180.159 26.2612C180.159 26.2612 180.697 24.7855 180.715 24.7186C180.723 24.7816 181.101 27.5873 181.101 27.5873C182 27.5873 182.482 26.9852 182.742 26.3281L184 23.0502C183.117 23.0502 182.649 23.6916 182.411 24.3763ZM172.097 21.0275L171.37 27.2489L171.221 28.0162C171.24 28.0162 171.262 28.0202 171.281 28.0202C172.064 28.0084 172.621 27.2804 172.724 26.3635L173.144 22.7944C173.27 21.7044 172.658 21.0275 172.097 21.0275Z" fill="#F77765"/>
</svg>
