<svg width="91" height="91" viewBox="0 0 91 91" fill="none" xmlns="http://www.w3.org/2000/svg">
<path d="M56.8746 45.52C56.8732 48.9012 56.2542 52.1366 55.1276 55.1261C52.1395 56.2527 48.9012 56.8718 45.5186 56.8761H45.48C42.1002 56.8718 38.8619 56.2542 35.8739 55.1276C34.7473 52.1395 34.1268 48.9012 34.1254 45.52V45.48C34.1268 42.1002 34.7458 38.8619 35.871 35.8753C38.8591 34.7473 42.0988 34.1268 45.48 34.1254H45.5186C48.9012 34.1268 52.1395 34.7473 55.1276 35.8753C56.2542 38.8619 56.8732 42.1002 56.8746 45.48V45.52ZM90.3681 37.9169H63.8087L82.5877 19.1364C81.1122 17.0634 79.4667 15.119 77.6724 13.3247V13.3233C75.8781 11.5305 73.9337 9.88776 71.8621 8.41232L53.0817 27.1928V0.633354C50.624 0.220173 48.0992 0.00142969 45.5229 0H45.4757C42.8994 0.00142969 40.376 0.220173 37.9169 0.633354V27.1928L19.1364 8.41232C17.0634 9.88776 15.1204 11.5319 13.329 13.3262L13.319 13.3333C11.5276 15.1247 9.88633 17.0663 8.41089 19.1364L27.1928 37.9169H0.633354C0.633354 37.9169 0 42.9051 0 45.4843V45.5157C0 48.0949 0.218743 50.6226 0.633354 53.0831H27.1928L8.41089 71.8635C11.3646 76.0082 14.9918 79.6368 19.1364 82.5891L37.9169 63.8072V90.3681C40.3745 90.7798 42.8951 90.9971 45.4671 91H45.5315C48.1049 90.9971 50.6283 90.7798 53.0817 90.3681V63.8072L71.8635 82.5891C73.9352 81.1137 75.8781 79.4695 77.6724 77.6767L77.6767 77.6724C79.4681 75.8781 81.1137 73.9337 82.5877 71.8635L63.8058 53.0831H90.3681C90.7813 50.6269 90.9971 48.1063 91 45.5329V45.4671C90.9971 42.8937 90.7813 40.3731 90.3681 37.9169Z" fill="#F77765"/>
</svg>
