<svg width="823" height="444" viewBox="0 0 823 444" fill="none" xmlns="http://www.w3.org/2000/svg">
<path d="M294.272 13.9612L310.783 14.1761C312.47 14.198 312.714 11.5722 311.013 11.55L294.501 11.3351C292.815 11.3132 292.571 13.939 294.272 13.9612Z" fill="#E6E6E6"/>
<path d="M294.262 26.8835L310.774 27.1154C312.461 27.1391 312.707 24.5135 311.006 24.4896L294.495 24.2577C292.808 24.234 292.562 26.8596 294.262 26.8835Z" fill="#E6E6E6"/>
<path d="M294.238 20.6462L311.829 20.7663C313.098 20.7749 312.79 18.156 311.528 18.1474L293.937 18.0273C292.667 18.0187 292.976 20.6376 294.238 20.6462Z" fill="#E6E6E6"/>
<path d="M39.595 15.9752C38.4498 15.9681 37.3278 16.2981 36.369 16.924C35.4102 17.5499 34.6569 18.444 34.203 19.4948C33.6953 20.5234 33.5385 21.6898 33.7568 22.8158C33.975 23.9417 34.5562 24.9653 35.4115 25.7299C36.2155 26.4136 37.1799 26.8824 38.2144 27.0925C39.249 27.3025 40.3199 27.247 41.3271 26.9311C42.3572 26.5715 43.2504 25.9016 43.8839 25.0137C44.5173 24.1258 44.8598 23.0634 44.8642 21.9729C44.9102 20.763 44.5823 19.5683 43.925 18.5513C43.2678 17.5343 42.313 16.7442 41.1907 16.2886C40.8535 16.1971 40.4937 16.2425 40.1898 16.4149C39.886 16.5873 39.6626 16.8729 39.5685 17.2092C39.4853 17.5459 39.5345 17.9017 39.7058 18.2033C39.8771 18.5049 40.1576 18.7294 40.4895 18.8305C40.7194 18.9193 40.2796 18.7176 40.4942 18.8345C40.5824 18.8825 40.6723 18.9259 40.759 18.9772C40.8326 19.0208 40.9031 19.0686 40.9748 19.1153C41.2209 19.2759 40.8546 18.9974 41.012 19.1418C41.1484 19.267 41.2836 19.3891 41.4076 19.5273C41.4545 19.5795 41.6383 19.7247 41.4955 19.6232C41.3862 19.5455 41.4534 19.5638 41.4954 19.6262C41.5274 19.6735 41.5612 19.7195 41.5927 19.7671C41.6955 19.9227 41.789 20.0841 41.8726 20.2507C41.892 20.2893 41.9097 20.3287 41.9294 20.3671C41.9663 20.439 42.0199 20.4578 41.9331 20.3678C41.8501 20.2818 41.9029 20.2876 41.9326 20.3704C41.9521 20.4248 41.9734 20.4786 41.9924 20.5332C42.0542 20.711 42.1061 20.8921 42.1479 21.0756C42.1672 21.1604 42.1827 21.2458 42.1993 21.3311C42.2583 21.6338 42.1908 21.143 42.205 21.3678C42.2169 21.5555 42.2308 21.7412 42.2275 21.9297C42.226 22.016 42.2222 22.1021 42.2162 22.1881C42.2132 22.2311 42.2084 22.2739 42.2056 22.3168C42.1919 22.5236 42.1915 22.2412 42.2204 22.2219C42.1601 22.3975 42.1202 22.5793 42.1012 22.764C42.0776 22.846 42.0496 22.9261 42.0233 23.0072C41.9315 23.29 42.1094 22.853 42.0116 23.0463C41.9312 23.2123 41.8412 23.3736 41.7422 23.5293C41.6993 23.5946 41.5372 23.7419 41.6697 23.6393C41.8135 23.5281 41.5944 23.7197 41.5476 23.769C41.4875 23.8323 41.4252 23.8934 41.3606 23.9523C41.3192 23.9927 41.2755 24.0306 41.2298 24.0659C41.2214 24.0617 41.4501 23.9133 41.3268 23.9918C41.1701 24.0917 41.0218 24.1986 40.8566 24.2855C40.8374 24.2957 40.6263 24.3934 40.6272 24.3969C40.6181 24.3613 40.8986 24.2982 40.706 24.3603C40.6656 24.3734 40.6259 24.3892 40.5856 24.4028C40.4103 24.4617 40.2314 24.5094 40.0499 24.5454C40.0084 24.5536 39.9645 24.5578 39.9235 24.5684C39.7872 24.6037 40.0538 24.5478 40.0618 24.5524C39.9611 24.548 39.8602 24.557 39.7617 24.5789C39.5746 24.5896 39.387 24.5896 39.1999 24.5789C39.1566 24.5764 39.1135 24.5721 39.0702 24.5696C38.9697 24.5637 38.8959 24.4914 39.0297 24.5699C39.1328 24.6306 39.1243 24.5863 39.0329 24.5694C38.9901 24.5615 38.9472 24.5549 38.9044 24.5469C38.7192 24.5122 38.5361 24.4674 38.3558 24.4126C38.2588 24.383 38.1638 24.3487 38.0681 24.3152C38.0264 24.3032 37.9858 24.2875 37.9468 24.2686C37.9462 24.2577 38.1934 24.3866 38.0629 24.3163C37.8982 24.2276 37.7278 24.1532 37.567 24.0562C37.4812 24.0045 37.3987 23.9482 37.3152 23.8928C37.2785 23.8707 37.2436 23.8457 37.2109 23.8181C37.2136 23.807 37.4153 23.9938 37.3095 23.8929C37.1756 23.7654 37.0323 23.6512 36.9055 23.5154C36.8765 23.4843 36.8491 23.4518 36.8202 23.4207L36.7922 23.3887C36.7207 23.3014 36.7194 23.3018 36.7882 23.39C36.8581 23.4106 36.8549 23.4872 36.7886 23.3877C36.765 23.3522 36.7398 23.3177 36.7163 23.2822C36.6092 23.1297 36.5178 22.9667 36.4437 22.7957C36.4501 22.7907 36.5579 23.1129 36.4755 22.8698C36.4599 22.8238 36.4424 22.7786 36.4271 22.7326C36.3968 22.6413 36.3702 22.5489 36.3471 22.4556C36.3243 22.3631 36.3126 22.2677 36.2896 22.1756C36.2509 22.0204 36.3123 22.2981 36.3053 22.2912C36.2833 22.2695 36.2926 22.1349 36.291 22.1027C36.2805 21.8958 36.304 21.6951 36.3077 21.4895C36.3106 21.3303 36.2945 21.6136 36.2912 21.6053C36.292 21.5576 36.3005 21.5104 36.3162 21.4653C36.3401 21.3569 36.3623 21.2486 36.3915 21.1414C36.425 21.0186 36.4635 20.8974 36.5071 20.7776C36.5234 20.7328 36.5433 20.6886 36.5584 20.6435C36.6139 20.4779 36.4485 20.8433 36.5397 20.6941C36.6652 20.4888 36.7586 20.2666 36.8918 20.0638C36.9234 20.0157 37.1153 19.7479 37.0134 19.8831C36.912 20.0178 37.1177 19.7625 37.1566 19.7192C37.3184 19.5392 37.5086 19.3914 37.6761 19.219C37.7752 19.117 37.6069 19.2692 37.597 19.2763C37.6488 19.2393 37.6996 19.2009 37.7521 19.1647C37.8437 19.1016 37.9375 19.042 38.0335 18.9858C38.1417 18.9224 38.2641 18.8752 38.3689 18.8081C38.4928 18.7289 38.2742 18.8429 38.2703 18.8453C38.3268 18.8172 38.386 18.7947 38.4469 18.778C38.549 18.7418 38.9931 18.5503 39.0863 18.6102C39.0821 18.6075 38.7491 18.637 39.0183 18.6197C39.0819 18.6156 39.1452 18.6094 39.209 18.6068C39.3378 18.6014 39.4663 18.6047 39.595 18.6113C39.944 18.609 40.2781 18.4694 40.5249 18.2228C40.7718 17.9761 40.9114 17.6421 40.9137 17.2933C40.9063 16.9461 40.7649 16.6151 40.5192 16.3695C40.2735 16.124 39.9424 15.9827 39.595 15.9752L39.595 15.9752Z" fill="#E6E6E6"/>
<path d="M58.0571 15.9215C56.9119 15.9144 55.79 16.2444 54.8312 16.8703C53.8723 17.4962 53.119 18.3903 52.6652 19.4411C52.1574 20.4697 52.0007 21.6361 52.2189 22.7621C52.4372 23.888 53.0184 24.9116 53.8737 25.6762C54.6777 26.3599 55.6421 26.8287 56.6766 27.0387C57.7111 27.2488 58.782 27.1933 59.7893 26.8773C60.8193 26.5178 61.7126 25.8479 62.346 24.96C62.9795 24.0721 63.322 23.0097 63.3264 21.9192C63.3724 20.7093 63.0445 19.5146 62.3872 18.4976C61.7299 17.4805 60.7752 16.6905 59.6528 16.2349C59.3156 16.1434 58.9559 16.1888 58.652 16.3612C58.3481 16.5336 58.1248 16.8191 58.0306 17.1555C57.9475 17.4922 57.9966 17.848 58.1679 18.1496C58.3393 18.4512 58.6198 18.6757 58.9517 18.7768C59.1815 18.8656 58.7417 18.6639 58.9563 18.7808C59.0446 18.8288 59.1345 18.8722 59.2211 18.9235C59.2948 18.9671 59.3653 19.0149 59.4369 19.0616C59.6831 19.2222 59.3168 18.9437 59.4741 19.0881C59.6106 19.2133 59.7458 19.3354 59.8698 19.4735C59.9167 19.5258 60.1004 19.671 59.9576 19.5695C59.8484 19.4918 59.9155 19.5101 59.9576 19.5725C59.9895 19.6198 60.0233 19.6658 60.0549 19.7134C60.1577 19.8689 60.2512 20.0304 60.3348 20.197C60.3541 20.2356 60.3719 20.275 60.3916 20.3134C60.4285 20.3853 60.482 20.4041 60.3952 20.3141C60.3123 20.228 60.3651 20.2339 60.3948 20.3167C60.4143 20.3711 60.4356 20.4249 60.4545 20.4795C60.5164 20.6573 60.5683 20.8383 60.61 21.0219C60.6294 21.1067 60.6449 21.1921 60.6615 21.2774C60.7204 21.5801 60.6529 21.0893 60.6672 21.3141C60.6791 21.5018 60.6929 21.6875 60.6896 21.876C60.6881 21.9623 60.6844 22.0484 60.6784 22.1344C60.6753 22.1773 60.6706 22.2201 60.6677 22.2631C60.6541 22.4699 60.6536 22.1875 60.6826 22.1682C60.6223 22.3437 60.5823 22.5256 60.5634 22.7103C60.5398 22.7923 60.5117 22.8724 60.4854 22.9535C60.3937 23.2363 60.5716 22.7993 60.4738 22.9926C60.3933 23.1586 60.3034 23.3199 60.2044 23.4756C60.1614 23.5408 59.9994 23.6881 60.1319 23.5856C60.2757 23.4744 60.0565 23.666 60.0098 23.7152C59.9497 23.7786 59.8874 23.8397 59.8227 23.8986C59.7814 23.939 59.7377 23.9769 59.6919 24.0122C59.6836 24.008 59.9123 23.8596 59.789 23.9381C59.6323 24.038 59.4839 24.1449 59.3188 24.2318C59.2996 24.242 59.0885 24.3397 59.0893 24.3432C59.0802 24.3076 59.3607 24.2445 59.1682 24.3066C59.1277 24.3197 59.0881 24.3355 59.0478 24.349C58.8725 24.408 58.6935 24.4557 58.5121 24.4917C58.4706 24.4999 58.4266 24.5041 58.3857 24.5147C58.2494 24.5499 58.516 24.494 58.524 24.4987C58.4232 24.4943 58.3223 24.5032 58.2239 24.5252C58.0368 24.5359 57.8492 24.5359 57.6621 24.5252C57.6188 24.5227 57.5756 24.5184 57.5323 24.5159C57.4319 24.51 57.3581 24.4377 57.4918 24.5162C57.595 24.5768 57.5864 24.5326 57.495 24.5157C57.4523 24.5078 57.4093 24.5012 57.3666 24.4932C57.1814 24.4585 56.9983 24.4137 56.818 24.3588C56.721 24.3293 56.626 24.295 56.5303 24.2615C56.4886 24.2494 56.448 24.2338 56.409 24.2148C56.4084 24.204 56.6556 24.3329 56.5251 24.2626C56.3603 24.1739 56.19 24.0995 56.0291 24.0025C55.9433 23.9508 55.8609 23.8945 55.7774 23.8391C55.7407 23.817 55.7058 23.792 55.673 23.7644C55.6758 23.7533 55.8775 23.9401 55.7716 23.8392C55.6377 23.7117 55.4945 23.5975 55.3677 23.4617C55.3387 23.4306 55.3112 23.3981 55.2823 23.367L55.2543 23.335C55.1829 23.2477 55.1815 23.2481 55.2504 23.3363C55.3202 23.3568 55.3171 23.4335 55.2508 23.3339C55.2271 23.2985 55.202 23.264 55.1784 23.2285C55.0713 23.076 54.98 22.913 54.9058 22.742C54.9123 22.737 55.0201 23.0591 54.9376 22.816C54.9221 22.7701 54.9045 22.7249 54.8893 22.6789C54.859 22.5876 54.8323 22.4952 54.8093 22.4019C54.7865 22.3094 54.7748 22.214 54.7518 22.1219C54.713 21.9667 54.7744 22.2444 54.7674 22.2375C54.7455 22.2158 54.7548 22.0812 54.7532 22.0489C54.7426 21.8421 54.7662 21.6414 54.7699 21.4358C54.7727 21.2766 54.7567 21.5599 54.7534 21.5516C54.7542 21.5039 54.7626 21.4567 54.7784 21.4116C54.8023 21.3032 54.8245 21.1949 54.8537 21.0877C54.8872 20.9649 54.9257 20.8437 54.9693 20.7239C54.9856 20.6791 55.0054 20.6349 55.0206 20.5898C55.0761 20.4242 54.9107 20.7896 55.0019 20.6404C55.1273 20.4351 55.2208 20.2129 55.354 20.0101C55.3855 19.962 55.5775 19.6942 55.4756 19.8294C55.3742 19.9641 55.5799 19.7088 55.6188 19.6655C55.7806 19.4855 55.9708 19.3377 56.1382 19.1653C56.2374 19.0632 56.0691 19.2155 56.0591 19.2226C56.111 19.1856 56.1618 19.1472 56.2143 19.111C56.3059 19.0479 56.3997 18.9883 56.4957 18.9321C56.6039 18.8687 56.7262 18.8215 56.8311 18.7544C56.9549 18.6752 56.7363 18.7892 56.7324 18.7916C56.789 18.7635 56.8482 18.741 56.9091 18.7243C57.0112 18.6881 57.4553 18.4966 57.5485 18.5565C57.5442 18.5537 57.2112 18.5833 57.4804 18.566C57.5441 18.5619 57.6074 18.5557 57.6711 18.553C57.8 18.5477 57.9284 18.5509 58.0572 18.5576C58.4062 18.5553 58.7403 18.4157 58.9871 18.169C59.2339 17.9224 59.3736 17.5884 59.3759 17.2396C59.3684 16.8924 59.2271 16.5614 58.9814 16.3158C58.7357 16.0703 58.4046 15.929 58.0572 15.9215L58.0571 15.9215Z" fill="#E6E6E6"/>
<path d="M76.5193 15.9752C75.3741 15.9681 74.2522 16.2981 73.2933 16.924C72.3345 17.5499 71.5812 18.444 71.1273 19.4948C70.6196 20.5234 70.4628 21.6898 70.6811 22.8158C70.8993 23.9417 71.4805 24.9653 72.3358 25.7299C73.1399 26.4136 74.1042 26.8824 75.1387 27.0925C76.1733 27.3025 77.2442 27.247 78.2514 26.9311C79.2815 26.5715 80.1748 25.9016 80.8082 25.0137C81.4416 24.1258 81.7842 23.0634 81.7886 21.9729C81.8346 20.763 81.5066 19.5683 80.8494 18.5513C80.1921 17.5343 79.2373 16.7442 78.115 16.2886C77.7778 16.1971 77.418 16.2425 77.1142 16.4149C76.8103 16.5873 76.5869 16.8729 76.4928 17.2092C76.4096 17.5459 76.4588 17.9017 76.6301 18.2033C76.8014 18.5049 77.0819 18.7294 77.4139 18.8305C77.6437 18.9193 77.2039 18.7176 77.4185 18.8345C77.5067 18.8825 77.5966 18.9259 77.6833 18.9772C77.7569 19.0208 77.8274 19.0686 77.8991 19.1153C78.1453 19.2759 77.7789 18.9974 77.9363 19.1418C78.0727 19.267 78.2079 19.3891 78.3319 19.5273C78.3788 19.5795 78.5626 19.7247 78.4198 19.6232C78.3105 19.5455 78.3777 19.5638 78.4198 19.6262C78.4517 19.6735 78.4855 19.7195 78.517 19.7671C78.6198 19.9227 78.7133 20.0841 78.7969 20.2507C78.8163 20.2893 78.834 20.3287 78.8537 20.3671C78.8907 20.439 78.9442 20.4578 78.8574 20.3678C78.7744 20.2818 78.8272 20.2876 78.8569 20.3704C78.8764 20.4248 78.8977 20.4786 78.9167 20.5332C78.9785 20.711 79.0304 20.8921 79.0722 21.0756C79.0915 21.1604 79.1071 21.2458 79.1237 21.3311C79.1826 21.6338 79.1151 21.143 79.1293 21.3678C79.1412 21.5555 79.1551 21.7412 79.1518 21.9297C79.1503 22.016 79.1465 22.1021 79.1405 22.1881C79.1375 22.2311 79.1327 22.2739 79.1299 22.3168C79.1162 22.5236 79.1158 22.2412 79.1447 22.2219C79.0845 22.3975 79.0445 22.5793 79.0256 22.764C79.0019 22.846 78.9739 22.9261 78.9476 23.0072C78.8559 23.29 79.0338 22.853 78.936 23.0463C78.8555 23.2123 78.7655 23.3736 78.6665 23.5293C78.6236 23.5946 78.4616 23.7419 78.5941 23.6393C78.7378 23.5281 78.5187 23.7197 78.4719 23.769C78.4118 23.8323 78.3495 23.8934 78.2849 23.9523C78.2435 23.9927 78.1999 24.0306 78.1541 24.0659C78.1457 24.0617 78.3744 23.9133 78.2512 23.9918C78.0945 24.0917 77.9461 24.1986 77.781 24.2855C77.7617 24.2957 77.5506 24.3934 77.5515 24.3969C77.5424 24.3613 77.8229 24.2982 77.6303 24.3603C77.5899 24.3734 77.5502 24.3892 77.5099 24.4028C77.3346 24.4617 77.1557 24.5094 76.9743 24.5454C76.9327 24.5536 76.8888 24.5578 76.8479 24.5684C76.7115 24.6037 76.9781 24.5478 76.9861 24.5524C76.8854 24.548 76.7845 24.557 76.686 24.5789C76.4989 24.5896 76.3114 24.5896 76.1243 24.5789C76.081 24.5764 76.0378 24.5721 75.9945 24.5696C75.894 24.5637 75.8203 24.4914 75.954 24.5699C76.0572 24.6306 76.0486 24.5863 75.9572 24.5694C75.9144 24.5615 75.8715 24.5549 75.8287 24.5469C75.6435 24.5122 75.4604 24.4674 75.2802 24.4126C75.1832 24.383 75.0881 24.3487 74.9924 24.3152C74.9507 24.3032 74.9102 24.2875 74.8711 24.2686C74.8705 24.2577 75.1177 24.3866 74.9872 24.3163C74.8225 24.2276 74.6522 24.1532 74.4913 24.0562C74.4055 24.0045 74.323 23.9482 74.2396 23.8928C74.2029 23.8707 74.168 23.8457 74.1352 23.8181C74.138 23.807 74.3396 23.9938 74.2338 23.8929C74.0999 23.7654 73.9566 23.6512 73.8298 23.5154C73.8008 23.4843 73.7734 23.4518 73.7445 23.4207L73.7165 23.3887C73.645 23.3014 73.6437 23.3018 73.7125 23.39C73.7824 23.4106 73.7792 23.4872 73.7129 23.3877C73.6893 23.3522 73.6642 23.3177 73.6406 23.2822C73.5335 23.1297 73.4422 22.9667 73.368 22.7957C73.3744 22.7907 73.4822 23.1129 73.3998 22.8698C73.3842 22.8238 73.3667 22.7786 73.3514 22.7326C73.3211 22.6413 73.2945 22.5489 73.2714 22.4556C73.2486 22.3631 73.2369 22.2677 73.214 22.1756C73.1752 22.0204 73.2366 22.2981 73.2296 22.2912C73.2076 22.2695 73.217 22.1349 73.2153 22.1027C73.2048 21.8958 73.2283 21.6951 73.232 21.4895C73.2349 21.3303 73.2188 21.6136 73.2155 21.6053C73.2163 21.5576 73.2248 21.5104 73.2406 21.4653C73.2644 21.3569 73.2866 21.2486 73.3159 21.1414C73.3493 21.0186 73.3878 20.8974 73.4314 20.7776C73.4477 20.7328 73.4676 20.6886 73.4827 20.6435C73.5382 20.4779 73.3728 20.8433 73.464 20.6941C73.5895 20.4888 73.6829 20.2666 73.8161 20.0638C73.8477 20.0157 74.0396 19.7479 73.9378 19.8831C73.8363 20.0178 74.042 19.7625 74.0809 19.7192C74.2427 19.5392 74.4329 19.3914 74.6004 19.219C74.6995 19.117 74.5312 19.2692 74.5213 19.2763C74.5732 19.2393 74.6239 19.2009 74.6765 19.1647C74.768 19.1016 74.8618 19.042 74.9579 18.9858C75.066 18.9224 75.1884 18.8752 75.2932 18.8081C75.4171 18.7289 75.1985 18.8429 75.1946 18.8453C75.2512 18.8172 75.3103 18.7947 75.3712 18.778C75.4733 18.7418 75.9175 18.5503 76.0106 18.6102C76.0064 18.6075 75.6734 18.637 75.9426 18.6197C76.0062 18.6156 76.0696 18.6094 76.1333 18.6068C76.2622 18.6014 76.3906 18.6047 76.5193 18.6113C76.8683 18.609 77.2024 18.4694 77.4493 18.2228C77.6961 17.9761 77.8357 17.6421 77.838 17.2933C77.8306 16.9461 77.6892 16.6151 77.4435 16.3695C77.1978 16.124 76.8667 15.9827 76.5193 15.9752L76.5193 15.9752Z" fill="#E6E6E6"/>
<path d="M343.23 318.966H19.7862C15.6962 318.961 11.775 317.335 8.88289 314.445C5.99079 311.554 4.36398 307.635 4.35938 303.547V15.4187C4.36396 11.3308 5.99075 7.41169 8.88283 4.52111C11.7749 1.63052 15.6961 0.004584 19.7862 0H343.23C347.32 0.004584 351.241 1.63052 354.133 4.52111C357.026 7.41169 358.652 11.3308 358.657 15.4187V303.547C358.652 307.635 357.025 311.554 354.133 314.445C351.241 317.335 347.32 318.961 343.23 318.966ZM19.7862 1.75739C16.1623 1.76151 12.6881 3.20215 10.1256 5.76326C7.56319 8.32437 6.1218 11.7968 6.11768 15.4187V303.547C6.12189 307.169 7.56333 310.641 10.1258 313.202C12.6882 315.764 16.1624 317.204 19.7862 317.208H343.23C346.854 317.204 350.328 315.764 352.891 313.202C355.453 310.641 356.894 307.169 356.899 303.547V15.4187C356.894 11.7968 355.453 8.32437 352.891 5.76326C350.328 3.20215 346.854 1.76151 343.23 1.75739H19.7862Z" fill="#E6E6E6"/>
<path d="M19.2501 196.042L132.994 195.696L246.157 195.352L309.993 195.158C310.335 195.146 310.659 195.002 310.896 194.756C311.134 194.51 311.267 194.182 311.267 193.84C311.267 193.498 311.134 193.169 310.896 192.924C310.659 192.678 310.335 192.534 309.993 192.522L196.249 192.868L83.0859 193.212L19.2501 193.406C18.9083 193.417 18.5844 193.562 18.3468 193.807C18.1091 194.053 17.9763 194.382 17.9763 194.724C17.9763 195.066 18.1091 195.394 18.3468 195.64C18.5844 195.886 18.9083 196.03 19.2501 196.042Z" fill="#E6E6E6"/>
<path d="M76.6321 193.905L77.3354 152.398C77.3641 150.701 74.7267 150.701 74.6979 152.398L73.9946 193.905C73.9659 195.602 76.6033 195.602 76.6321 193.905Z" fill="#E6E6E6"/>
<path d="M130.995 194.354L132.709 142.182L133.198 127.275C133.254 125.579 130.616 125.581 130.561 127.275L128.847 179.447L128.357 194.354C128.301 196.05 130.939 196.048 130.995 194.354Z" fill="#E6E6E6"/>
<path d="M185.21 102.545C184.177 121.024 182.264 175.529 181.23 194.008C181.135 195.703 183.773 195.697 183.867 194.008C184.901 175.529 186.814 121.024 187.848 102.545C187.943 100.85 185.305 100.855 185.21 102.545Z" fill="#E6E6E6"/>
<path d="M239.165 175.466L238.842 193.227C238.811 194.924 241.449 194.924 241.48 193.227C241.861 172.25 242.841 172.933 242.948 167.013C242.979 165.316 240.342 165.316 240.311 167.013C240.311 167.013 239.547 154.488 239.165 175.466Z" fill="#E6E6E6"/>
<path d="M292.013 128.806L292.311 178.636L292.396 192.904C292.408 193.246 292.552 193.57 292.798 193.807C293.044 194.045 293.373 194.177 293.715 194.177C294.057 194.177 294.386 194.045 294.632 193.807C294.878 193.57 295.022 193.246 295.034 192.904L294.736 143.075L294.65 128.806C294.638 128.465 294.494 128.141 294.248 127.903C294.002 127.666 293.673 127.533 293.331 127.533C292.989 127.533 292.661 127.666 292.415 127.903C292.169 128.141 292.025 128.465 292.013 128.806Z" fill="#E6E6E6"/>
<path d="M19.4622 194.559C17.2791 188.562 22.2003 182.795 27.257 180.204C33.3152 177.099 40.2845 176.396 46.4069 173.403C55.5345 168.941 62.1827 160.933 68.0984 152.917C74.1872 144.667 79.7584 135.812 87.4953 128.957C91.5722 125.264 96.3874 122.479 101.622 120.786C108.218 118.729 115.213 118.588 122.028 119.417C136.111 121.13 149.166 126.943 162.754 130.638C175.565 134.122 189.68 136.081 202.254 130.664C208.643 127.911 213.868 123.295 219.479 119.301C224.909 115.394 230.981 112.467 237.421 110.65C250.044 107.142 263.829 108.079 275.58 114.01C286.383 119.391 294.936 128.414 299.73 139.485C305.302 152.787 304.576 167.652 302.757 181.653C302.286 185.273 301.726 188.88 301.16 192.485C300.9 194.144 303.441 194.859 303.704 193.186C305.97 178.748 308.229 163.853 305.409 149.325C302.971 136.639 295.992 125.275 285.777 117.361C275.519 109.425 262.767 105.402 249.81 106.016C243.02 106.331 236.335 107.816 230.052 110.408C223.529 113.104 218.006 117.101 212.395 121.307C206.627 125.631 200.68 129.207 193.519 130.618C186.572 131.986 179.346 131.473 172.43 130.181C158.159 127.516 144.857 121.407 130.708 118.277C117.598 115.377 103.452 115.088 91.7125 122.49C82.6824 128.184 76.3016 137.023 70.1779 145.559C64.1079 154.02 57.9612 163.067 49.0852 168.847C43.6708 172.372 37.5843 173.673 31.5274 175.656C25.4549 177.644 19.6252 180.997 17.1491 187.216C16.082 189.777 16 192.642 16.9189 195.259C17.4948 196.841 20.0445 196.158 19.4622 194.559V194.559Z" fill="#E6E6E6"/>
<path d="M75.7577 146.658L75.7537 146.66L75.7617 146.658H75.7577Z" fill="#E6E6E6"/>
<path d="M80.3303 144.233C79.7207 143.155 78.7483 142.327 77.5856 141.896C76.423 141.466 75.1455 141.462 73.98 141.884C73.4007 142.096 72.8696 142.421 72.4183 142.841C71.9669 143.261 71.6044 143.767 71.3522 144.33C71.3017 144.45 71.2722 144.575 71.231 144.698C71.1738 144.79 71.1052 144.873 71.054 144.97C70.5073 146.059 70.3577 147.304 70.6307 148.491C70.9038 149.678 71.5825 150.733 72.5499 151.474C73.5173 152.214 74.713 152.595 75.9308 152.549C77.1487 152.504 78.3126 152.035 79.222 151.225C80.1778 150.361 80.809 149.196 81.0106 147.925C81.2123 146.653 80.9722 145.35 80.3303 144.233ZM77.0271 146.472C77.0379 146.539 77.0339 146.6 77.0271 146.472V146.472ZM76.6913 145.709C76.6784 145.694 76.68 145.696 76.6913 145.709V145.709ZM75.2114 146.304C75.1916 146.273 75.1897 146.268 75.2114 146.304V146.304ZM75.5622 146.601C75.6457 146.629 75.6127 146.623 75.5622 146.601V146.601ZM75.7188 146.676L75.7535 146.66C75.7451 146.66 75.7365 146.659 75.729 146.655L75.73 146.655L75.7572 146.658L75.7623 146.656L75.7466 146.652C75.7602 146.652 75.7617 146.653 75.7627 146.656C75.9196 146.584 75.8133 146.618 75.7224 146.647L75.7163 146.645C75.6595 146.616 75.5984 146.597 75.5355 146.587C75.5297 146.584 75.5228 146.581 75.5179 146.578C75.4674 146.542 75.2122 146.343 75.4489 146.552C75.3974 146.506 75.3465 146.462 75.298 146.413C75.2695 146.383 75.2436 146.351 75.2207 146.317C75.1896 146.264 75.1595 146.21 75.1303 146.156L75.1259 146.127C75.1221 146.103 75.1192 146.093 75.1159 146.078C75.1174 146.063 75.1199 146.047 75.1222 146.031C75.1399 145.984 75.1512 145.934 75.1557 145.884L75.1659 145.871C75.2038 145.818 75.2369 145.756 75.2731 145.702C75.082 145.992 75.3478 145.67 75.3677 145.629C75.3711 145.622 75.3652 145.626 75.3666 145.621C75.3744 145.616 75.372 145.619 75.3813 145.614C75.4406 145.579 75.4967 145.54 75.5569 145.507C75.6285 145.467 75.9107 145.387 75.618 145.471C75.6845 145.452 75.7483 145.428 75.8155 145.41C75.8277 145.407 75.9262 145.393 75.9793 145.384C76.0259 145.383 76.0711 145.381 76.0759 145.381C76.0977 145.382 76.1196 145.384 76.1415 145.385C76.093 145.392 76.3082 145.438 76.3721 145.448C76.3813 145.455 76.3861 145.46 76.3986 145.469C76.4526 145.508 76.5184 145.544 76.5754 145.58C76.3204 145.416 76.5788 145.594 76.6275 145.642C76.6566 145.671 76.6834 145.702 76.7109 145.733C76.736 145.762 76.7587 145.793 76.7788 145.826C76.8206 145.903 76.8651 145.98 76.909 146.056L76.9212 146.075C76.9209 146.077 76.9208 146.08 76.9208 146.082C76.9437 146.205 76.9775 146.324 77.0218 146.441C77.024 146.45 77.0257 146.46 77.0268 146.47C77.0309 146.537 77.0365 146.604 77.0366 146.671L77.036 146.685C76.8329 146.579 76.6076 146.523 76.3785 146.522C76.1495 146.52 75.9234 146.573 75.7188 146.676H75.7188Z" fill="#E6E6E6"/>
<path d="M75.7654 146.657C75.7698 146.658 75.7656 146.658 75.7646 146.658L75.7654 146.657Z" fill="#E6E6E6"/>
<path d="M75.7644 146.656L75.7655 146.657L75.7644 146.656Z" fill="#E6E6E6"/>
<path d="M75.7653 146.658L75.7607 146.659C75.7665 146.659 75.7644 146.658 75.7653 146.658Z" fill="#E6E6E6"/>
<path d="M75.7625 146.656L75.7645 146.657L75.7625 146.656Z" fill="#E6E6E6"/>
<path d="M132.023 122.055L132.019 122.057L132.027 122.055H132.023Z" fill="#E6E6E6"/>
<path d="M136.596 119.63C135.986 118.551 135.014 117.723 133.851 117.293C132.689 116.863 131.411 116.859 130.246 117.281C129.666 117.492 129.135 117.818 128.684 118.238C128.233 118.658 127.87 119.164 127.618 119.726C127.567 119.846 127.538 119.972 127.497 120.094C127.439 120.187 127.371 120.27 127.32 120.367C126.773 121.455 126.623 122.7 126.896 123.887C127.169 125.075 127.848 126.129 128.816 126.87C129.783 127.611 130.979 127.991 132.196 127.946C133.414 127.9 134.578 127.432 135.488 126.621C136.443 125.757 137.075 124.593 137.276 123.321C137.478 122.049 137.238 120.747 136.596 119.63ZM133.293 121.869C133.304 121.935 133.3 121.996 133.293 121.869V121.869ZM132.957 121.105C132.944 121.091 132.946 121.092 132.957 121.105V121.105ZM131.477 121.7C131.457 121.67 131.455 121.665 131.477 121.7V121.7ZM131.828 121.998C131.911 122.026 131.878 122.02 131.828 121.998V121.998ZM131.984 122.072L132.019 122.056C132.011 122.057 132.002 122.055 131.995 122.051L131.996 122.051L132.023 122.055L132.028 122.052L132.012 122.049C132.026 122.048 132.027 122.05 132.028 122.052C132.185 121.98 132.079 122.015 131.988 122.043L131.982 122.042C131.925 122.013 131.864 121.993 131.801 121.984C131.795 121.98 131.788 121.978 131.783 121.974C131.733 121.939 131.478 121.739 131.715 121.948C131.663 121.903 131.612 121.858 131.564 121.809C131.535 121.78 131.509 121.748 131.486 121.714C131.455 121.661 131.425 121.607 131.396 121.553L131.392 121.524C131.388 121.499 131.385 121.489 131.382 121.475C131.383 121.46 131.385 121.443 131.388 121.428C131.405 121.38 131.417 121.331 131.421 121.28L131.431 121.267C131.469 121.215 131.503 121.153 131.539 121.098C131.348 121.388 131.613 121.066 131.633 121.025C131.637 121.018 131.631 121.022 131.632 121.017C131.64 121.013 131.638 121.016 131.647 121.01C131.706 120.976 131.762 120.937 131.822 120.903C131.894 120.864 132.176 120.784 131.884 120.867C131.95 120.848 132.014 120.824 132.081 120.807C132.093 120.804 132.192 120.79 132.245 120.78C132.291 120.779 132.337 120.778 132.341 120.778C132.363 120.778 132.385 120.781 132.407 120.782C132.359 120.788 132.574 120.835 132.638 120.844C132.647 120.852 132.652 120.856 132.664 120.866C132.718 120.905 132.784 120.94 132.841 120.977C132.586 120.812 132.844 120.99 132.893 121.039C132.922 121.068 132.949 121.099 132.976 121.129C133.002 121.159 133.024 121.19 133.044 121.223C133.086 121.299 133.131 121.377 133.175 121.452L133.187 121.471C133.187 121.474 133.186 121.476 133.186 121.479C133.209 121.601 133.243 121.721 133.287 121.837C133.29 121.847 133.291 121.857 133.292 121.867C133.296 121.934 133.302 122.001 133.302 122.068L133.302 122.081C133.099 121.976 132.873 121.92 132.644 121.918C132.415 121.916 132.189 121.969 131.984 122.072Z" fill="#E6E6E6"/>
<path d="M132.031 122.054L132.026 122.055C132.032 122.056 132.03 122.055 132.031 122.054Z" fill="#E6E6E6"/>
<path d="M132.028 122.052L132.03 122.053L132.028 122.052Z" fill="#E6E6E6"/>
<path d="M132.031 122.053C132.035 122.055 132.031 122.054 132.03 122.055L132.031 122.053Z" fill="#E6E6E6"/>
<path d="M132.03 122.053L132.031 122.053L132.03 122.053Z" fill="#E6E6E6"/>
<path d="M186.535 134.354L186.537 134.355L186.535 134.354Z" fill="#E6E6E6"/>
<path d="M191.103 95.0267C190.494 93.9478 189.521 93.1198 188.359 92.6897C187.196 92.2596 185.918 92.2554 184.753 92.6777C184.174 92.889 183.643 93.2143 183.191 93.6344C182.74 94.0544 182.377 94.5607 182.125 95.1232C182.075 95.2427 182.045 95.3685 182.004 95.4909C181.947 95.5833 181.878 95.6667 181.827 95.7633C181.28 96.852 181.131 98.0971 181.404 99.2842C181.677 100.471 182.355 101.526 183.323 102.267C184.29 103.008 185.486 103.388 186.704 103.343C187.922 103.297 189.086 102.829 189.995 102.018C190.951 101.154 191.582 99.9896 191.784 98.7177C191.985 97.4458 191.745 96.1433 191.103 95.0267ZM187.8 97.2653C187.811 97.3318 187.807 97.393 187.8 97.2653V97.2653ZM187.464 96.5022C187.451 96.4874 187.453 96.489 187.464 96.5022V96.5022ZM185.984 97.097C185.965 97.0665 185.963 97.0614 185.984 97.097V97.097ZM186.335 97.3942C186.419 97.4227 186.386 97.4167 186.335 97.3942V97.3942ZM186.492 97.4688L186.526 97.4529C186.518 97.4537 186.509 97.4521 186.502 97.4481L186.503 97.4479L186.53 97.4513L186.535 97.449L186.519 97.4453C186.533 97.4448 186.535 97.4467 186.536 97.4488C186.692 97.377 186.586 97.4116 186.495 97.4397L186.489 97.4383C186.432 97.4095 186.371 97.3899 186.308 97.3803C186.303 97.3771 186.296 97.3747 186.291 97.3712C186.24 97.3353 185.985 97.136 186.222 97.3449C186.17 97.2995 186.119 97.2548 186.071 97.2057C186.042 97.1764 186.016 97.1446 185.994 97.1107C185.962 97.0574 185.932 97.0037 185.903 96.9495L185.899 96.9203C185.895 96.896 185.892 96.8859 185.889 96.8713C185.89 96.8562 185.893 96.8401 185.895 96.8243C185.913 96.7769 185.924 96.7274 185.929 96.677L185.939 96.6641C185.977 96.6113 186.01 96.5497 186.046 96.4948C185.855 96.7849 186.121 96.4628 186.141 96.422C186.144 96.415 186.138 96.4188 186.14 96.414C186.147 96.4097 186.145 96.4126 186.154 96.4071C186.213 96.3723 186.27 96.3334 186.33 96.3001C186.401 96.2604 186.684 96.1803 186.391 96.264C186.457 96.245 186.521 96.221 186.588 96.2035C186.601 96.2003 186.699 96.1865 186.752 96.177C186.799 96.1758 186.844 96.1744 186.849 96.1744C186.871 96.1747 186.893 96.1774 186.914 96.1784C186.866 96.1849 187.081 96.2313 187.145 96.2412C187.154 96.2484 187.159 96.2531 187.172 96.2622C187.226 96.3017 187.291 96.3368 187.348 96.3736C187.093 96.2089 187.352 96.3867 187.4 96.4354C187.43 96.4645 187.456 96.4956 187.484 96.5262C187.509 96.5554 187.532 96.5865 187.552 96.6193C187.593 96.6959 187.638 96.7734 187.682 96.8488L187.694 96.8681C187.694 96.8706 187.694 96.8731 187.694 96.8756C187.717 96.9978 187.75 97.1177 187.795 97.2339C187.797 97.2437 187.799 97.2537 187.8 97.2637C187.804 97.3306 187.809 97.3973 187.81 97.4646L187.809 97.4782C187.606 97.3724 187.38 97.3164 187.151 97.3147C186.922 97.3131 186.696 97.3659 186.492 97.4688Z" fill="#E6E6E6"/>
<path d="M186.531 134.356L186.527 134.358L186.535 134.356H186.531Z" fill="#E6E6E6"/>
<path d="M186.537 134.355L186.538 134.355L186.537 134.355Z" fill="#E6E6E6"/>
<path d="M186.538 134.356L186.534 134.357C186.539 134.358 186.537 134.357 186.538 134.356Z" fill="#E6E6E6"/>
<path d="M186.538 134.355C186.543 134.356 186.539 134.356 186.538 134.356L186.538 134.355Z" fill="#E6E6E6"/>
<path d="M246.489 162.686C245.88 161.607 244.907 160.779 243.745 160.349C242.582 159.919 241.305 159.915 240.139 160.337C239.56 160.548 239.029 160.874 238.577 161.294C238.126 161.714 237.764 162.22 237.511 162.783C237.461 162.902 237.431 163.028 237.39 163.15C237.333 163.243 237.264 163.326 237.213 163.423C236.667 164.511 236.517 165.757 236.79 166.944C237.063 168.131 237.742 169.186 238.709 169.926C239.677 170.667 240.872 171.048 242.09 171.002C243.308 170.957 244.472 170.488 245.381 169.677C246.337 168.814 246.968 167.649 247.17 166.377C247.371 165.105 247.131 163.803 246.489 162.686ZM243.186 164.925C243.197 164.991 243.193 165.052 243.186 164.925V164.925ZM242.851 164.162C242.838 164.147 242.839 164.148 242.851 164.162V164.162ZM241.371 164.756C241.351 164.726 241.349 164.721 241.371 164.756V164.756ZM241.721 165.054C241.805 165.082 241.772 165.076 241.721 165.054V165.054ZM241.878 165.128L241.913 165.112C241.904 165.113 241.896 165.111 241.888 165.107L241.889 165.107L241.916 165.111L241.921 165.108L241.906 165.105C241.919 165.104 241.921 165.106 241.922 165.108C242.079 165.036 241.972 165.071 241.881 165.099L241.875 165.098C241.819 165.069 241.758 165.049 241.695 165.04C241.689 165.036 241.682 165.034 241.677 165.031C241.627 164.995 241.371 164.795 241.608 165.004C241.557 164.959 241.506 164.914 241.457 164.865C241.429 164.836 241.403 164.804 241.38 164.77C241.349 164.717 241.319 164.663 241.289 164.609L241.285 164.58C241.281 164.555 241.278 164.545 241.275 164.531C241.277 164.516 241.279 164.499 241.281 164.484C241.299 164.436 241.31 164.387 241.315 164.336L241.325 164.324C241.363 164.271 241.396 164.209 241.432 164.154C241.241 164.444 241.507 164.122 241.527 164.081C241.53 164.074 241.524 164.078 241.526 164.073C241.534 164.069 241.531 164.072 241.54 164.067C241.6 164.032 241.656 163.993 241.716 163.96C241.788 163.92 242.07 163.84 241.777 163.923C241.844 163.904 241.907 163.88 241.975 163.863C241.987 163.86 242.085 163.846 242.138 163.836C242.185 163.835 242.23 163.834 242.235 163.834C242.257 163.834 242.279 163.837 242.301 163.838C242.252 163.844 242.467 163.891 242.531 163.901C242.54 163.908 242.545 163.912 242.558 163.922C242.612 163.961 242.678 163.996 242.735 164.033C242.48 163.868 242.738 164.046 242.787 164.095C242.816 164.124 242.843 164.155 242.87 164.186C242.895 164.215 242.918 164.246 242.938 164.279C242.98 164.355 243.024 164.433 243.068 164.508L243.08 164.528C243.08 164.53 243.08 164.533 243.08 164.535C243.103 164.657 243.137 164.777 243.181 164.893C243.183 164.903 243.185 164.913 243.186 164.923C243.19 164.99 243.196 165.057 243.196 165.124L243.195 165.138C242.992 165.032 242.767 164.976 242.538 164.974C242.309 164.973 242.083 165.025 241.878 165.128Z" fill="#E6E6E6"/>
<path d="M241.917 107.117L241.913 107.119L241.921 107.117H241.917Z" fill="#E6E6E6"/>
<path d="M241.924 107.115L241.925 107.116L241.924 107.115Z" fill="#E6E6E6"/>
<path d="M241.925 107.117L241.92 107.117C241.926 107.118 241.924 107.117 241.925 107.117Z" fill="#E6E6E6"/>
<path d="M241.925 107.115C241.929 107.117 241.925 107.117 241.924 107.117L241.925 107.115Z" fill="#E6E6E6"/>
<path d="M241.922 107.115L241.924 107.116L241.922 107.115Z" fill="#E6E6E6"/>
<path d="M293.794 124.689L293.795 124.689L293.794 124.689Z" fill="#E6E6E6"/>
<path d="M298.359 122.266C297.75 121.187 296.777 120.359 295.615 119.929C294.452 119.499 293.175 119.495 292.009 119.917C291.43 120.129 290.899 120.454 290.447 120.874C289.996 121.294 289.633 121.8 289.381 122.363C289.331 122.482 289.301 122.608 289.26 122.73C289.203 122.823 289.134 122.906 289.083 123.003C288.536 124.091 288.387 125.337 288.66 126.524C288.933 127.711 289.612 128.766 290.579 129.506C291.546 130.247 292.742 130.628 293.96 130.582C295.178 130.537 296.342 130.068 297.251 129.257C298.207 128.394 298.838 127.229 299.04 125.957C299.241 124.685 299.001 123.383 298.359 122.266ZM295.056 124.505C295.067 124.571 295.063 124.632 295.056 124.505V124.505ZM294.72 123.742C294.707 123.727 294.709 123.728 294.72 123.742V123.742ZM293.24 124.336C293.221 124.306 293.219 124.301 293.24 124.336V124.336ZM293.591 124.634C293.675 124.662 293.642 124.656 293.591 124.634V124.634ZM293.748 124.708L293.783 124.692C293.774 124.693 293.766 124.692 293.758 124.688L293.759 124.687L293.786 124.691L293.791 124.688L293.776 124.685C293.789 124.684 293.791 124.686 293.792 124.688C293.949 124.617 293.842 124.651 293.751 124.679L293.745 124.678C293.688 124.649 293.627 124.629 293.564 124.62C293.559 124.617 293.552 124.614 293.547 124.611C293.496 124.575 293.241 124.376 293.478 124.584C293.426 124.539 293.376 124.494 293.327 124.445C293.298 124.416 293.273 124.384 293.25 124.35C293.219 124.297 293.188 124.243 293.159 124.189L293.155 124.16C293.151 124.135 293.148 124.125 293.145 124.111C293.146 124.096 293.149 124.08 293.151 124.064C293.169 124.016 293.18 123.967 293.185 123.917L293.195 123.904C293.233 123.851 293.266 123.789 293.302 123.734C293.111 124.024 293.377 123.702 293.397 123.661C293.4 123.654 293.394 123.658 293.396 123.653C293.403 123.649 293.401 123.652 293.41 123.647C293.47 123.612 293.526 123.573 293.586 123.54C293.658 123.5 293.94 123.42 293.647 123.503C293.714 123.484 293.777 123.46 293.845 123.443C293.857 123.44 293.955 123.426 294.008 123.416C294.055 123.415 294.1 123.414 294.105 123.414C294.127 123.414 294.149 123.417 294.171 123.418C294.122 123.424 294.337 123.471 294.401 123.481C294.41 123.488 294.415 123.493 294.428 123.502C294.482 123.541 294.547 123.576 294.604 123.613C294.349 123.448 294.608 123.626 294.656 123.675C294.686 123.704 294.712 123.735 294.74 123.766C294.765 123.795 294.788 123.826 294.808 123.859C294.85 123.935 294.894 124.013 294.938 124.088L294.95 124.108C294.95 124.11 294.95 124.113 294.95 124.115C294.973 124.237 295.007 124.357 295.051 124.473C295.053 124.483 295.055 124.493 295.056 124.503C295.06 124.57 295.065 124.637 295.066 124.704L295.065 124.718C294.862 124.612 294.637 124.556 294.408 124.554C294.179 124.553 293.952 124.605 293.748 124.708Z" fill="#E6E6E6"/>
<path d="M293.787 124.691L293.783 124.693L293.791 124.691H293.787Z" fill="#E6E6E6"/>
<path d="M293.792 124.688L293.794 124.689L293.792 124.688Z" fill="#E6E6E6"/>
<path d="M293.795 124.689C293.799 124.691 293.795 124.69 293.794 124.691L293.795 124.689Z" fill="#E6E6E6"/>
<path d="M293.795 124.691L293.79 124.691C293.796 124.692 293.794 124.691 293.795 124.691Z" fill="#E6E6E6"/>
<path d="M279.572 164.96L238.695 167.231C238.464 167.244 238.238 167.168 238.062 167.018C237.886 166.869 237.774 166.658 237.749 166.429C237.724 166.2 237.788 165.969 237.927 165.786C238.067 165.602 238.272 165.479 238.5 165.442L280.281 158.647L279.572 164.96Z" fill="#3F3D56"/>
<path d="M331.522 255.919L346.926 230.017L358.312 235.391C358.312 235.391 338.693 259.882 338.068 260.586C338.336 261.777 338.236 263.02 337.781 264.152C337.326 265.285 336.538 266.252 335.521 266.927C334.504 267.602 333.306 267.952 332.085 267.932C330.865 267.911 329.679 267.521 328.686 266.812C327.692 266.104 326.937 265.11 326.52 263.964C326.104 262.817 326.045 261.571 326.353 260.39C326.66 259.209 327.319 258.149 328.242 257.351C329.165 256.553 330.309 256.053 331.522 255.919Z" fill="#E9B8A9"/>
<path d="M337.93 195.75L362.887 208.764C364.446 209.887 365.755 211.323 366.727 212.98C367.7 214.637 368.316 216.478 368.536 218.387C368.757 220.296 368.576 222.229 368.006 224.064C367.436 225.899 366.489 227.595 365.226 229.043L348.021 248.769L340.525 238.617L346.302 226.544L335.116 223.596L337.93 195.75Z" fill="#F77765"/>
<path d="M266.809 165.383L263.998 195.384L251.407 195.405C251.407 195.405 258.631 164.874 258.894 163.97C258.141 163.009 257.699 161.843 257.624 160.625C257.55 159.407 257.847 158.195 258.476 157.15C259.106 156.105 260.038 155.275 261.149 154.771C262.261 154.266 263.5 154.111 264.701 154.326C265.903 154.54 267.011 155.114 267.879 155.972C268.747 156.83 269.335 157.931 269.563 159.129C269.792 160.328 269.651 161.567 269.159 162.684C268.667 163.801 267.848 164.742 266.809 165.383V165.383Z" fill="#E9B8A9"/>
<path d="M291.873 226.735L262.892 221.423C250.689 219.956 245.68 211.931 247.882 204.103L254.969 178.91L266.094 184.871L266.051 198.254L281.623 196.126L291.873 226.735Z" fill="#F77765"/>
<path d="M280.01 434.067H272.042L268.251 403.346H280.012L280.01 434.067Z" fill="#E9B8A9"/>
<path d="M280.291 442.376L255.786 442.375V442.066C255.786 439.537 256.791 437.113 258.58 435.325C260.369 433.537 262.795 432.533 265.324 432.533H265.325L269.801 429.139L278.152 432.533L280.291 432.533L280.291 442.376Z" fill="white"/>
<path d="M336.395 434.067H344.363L348.154 403.346H336.393L336.395 434.067Z" fill="#E9B8A9"/>
<path d="M336.114 442.376L360.619 442.375V442.066C360.618 439.537 359.613 437.113 357.825 435.325C356.036 433.537 353.61 432.533 351.081 432.533H351.08L346.604 429.139L338.252 432.533L336.113 432.533L336.114 442.376Z" fill="white"/>
<path d="M267.9 380.771C268.018 379.018 268.954 369.324 268.954 369.324L271.195 348.764L275.145 294.266L278.666 279.942L296.096 286.728L310.239 279.952L327.049 285.322L340.139 290.228C340.139 290.228 340.161 292.329 340.262 294.866C340.396 298.187 340.632 302.258 341.192 303.317C342.128 305.187 341.892 315.229 341.892 315.229C341.892 315.229 342.823 335.659 343.994 337.9C345.165 340.14 345.4 344.805 345.047 345.74C344.694 346.675 346.218 371.211 346.218 371.211C346.218 371.211 350.13 414.63 347.676 421.177C345.222 427.724 335.947 423.435 335.947 423.435C335.947 423.435 336.396 421.688 333.706 420.865C331.016 420.041 322.824 358.476 322.824 358.476C322.824 358.476 321.3 345.852 319.899 342.234C318.498 338.616 317.21 328.452 317.21 328.452C317.21 328.452 308.558 311.628 308.446 307.887C308.446 307.887 307.314 304.386 306.244 308.239C305.174 312.093 302.019 321.322 302.019 321.322L298.943 332.657L295.323 349.593L292.981 363.852C292.981 363.852 289.473 382.776 288.913 383.594C288.352 384.411 288.913 401.7 288.913 401.7C288.913 401.7 286.201 416.423 282.368 418.994C278.535 421.565 268.381 419.035 268.381 419.035C268.381 419.035 267.782 382.524 267.9 380.771Z" fill="#4D4C5A"/>
<path d="M280.93 233.849L278.703 262.686L275.357 266.147C275.055 266.459 274.819 266.828 274.664 267.234C274.509 267.639 274.437 268.071 274.452 268.505C274.468 268.939 274.571 269.365 274.756 269.758C274.94 270.15 275.202 270.502 275.526 270.791L273.682 273.951L273.029 283.907C272.843 284.681 272.83 285.488 272.992 286.268C273.154 287.048 273.486 287.783 273.964 288.42C274.443 289.057 275.056 289.58 275.761 289.953C276.465 290.326 277.243 290.539 278.04 290.576L335.74 293.285C336.532 293.323 337.322 293.185 338.055 292.884C338.788 292.582 339.446 292.124 339.982 291.54C340.518 290.957 340.919 290.263 341.158 289.507C341.396 288.751 341.465 287.953 341.361 287.168L336.455 250.25V247.49L334.258 242.159L335.387 224.3L338.013 195.955L322.749 192.014L314.473 186.323L300.094 186.552L291.37 193.713L279.737 195.534L270.94 197.282L269.819 199.716L272.061 199.229L280.185 230.898L280.93 233.849Z" fill="#F77765"/>
<path d="M306.962 182.459C316.316 182.459 323.9 174.879 323.9 165.53C323.9 156.18 316.316 148.601 306.962 148.601C297.608 148.601 290.024 156.18 290.024 165.53C290.024 174.879 297.608 182.459 306.962 182.459Z" fill="#E9B8A9"/>
<path d="M302.878 181.367L315.116 180.743C316.684 180.663 318.395 180.524 319.536 179.446C320.149 178.78 320.621 177.996 320.923 177.143C322.054 174.516 323.186 171.89 324.288 169.251C325.813 165.601 327.311 161.747 326.922 157.81C326.83 156.013 326.076 154.313 324.804 153.038C324.155 152.424 323.321 152.042 322.432 151.952C321.543 151.862 320.649 152.069 319.89 152.541C319.701 151.296 319.232 150.11 318.517 149.073C317.802 148.036 316.861 147.175 315.765 146.555C313.55 145.332 311.021 144.796 308.501 145.015C304.843 145.251 301.352 146.626 298.517 148.948C297.72 149.683 296.868 150.358 295.97 150.965C295.518 151.267 295.01 151.474 294.475 151.573C293.941 151.672 293.392 151.661 292.862 151.54C292.337 151.4 291.88 151.075 291.577 150.624C291.273 150.174 291.143 149.628 291.21 149.09C290.348 149.734 289.757 150.675 289.553 151.731C289.348 152.787 289.544 153.882 290.103 154.801C289.468 155.067 288.774 155.164 288.09 155.083C287.406 155.002 286.755 154.746 286.199 154.339C285.604 154.634 285.077 155.051 284.652 155.561C284.227 156.072 283.913 156.665 283.731 157.304C283.549 157.943 283.502 158.613 283.594 159.27C283.686 159.928 283.914 160.56 284.264 161.124C284.614 161.689 285.078 162.174 285.626 162.549C286.175 162.924 286.796 163.18 287.449 163.302C288.102 163.423 288.774 163.407 289.42 163.254C290.067 163.101 290.675 162.814 291.204 162.413C291.947 163.453 291.67 164.866 291.574 166.14C291.477 167.413 291.819 168.997 293.047 169.349C294.708 169.825 296.054 167.589 297.782 167.613C298.208 167.648 298.619 167.787 298.978 168.018C299.338 168.25 299.635 168.567 299.842 168.94C300.249 169.691 300.528 170.504 300.667 171.347L302.879 181.297" fill="#2F2E41"/>
<path d="M780.032 333.584C780.032 330.963 779.151 328.835 778.07 328.83H483.252C482.165 328.835 481.289 330.963 481.285 333.584V441.496C481.285 441.739 481.194 441.974 481.03 442.154C480.867 442.335 480.642 442.448 480.399 442.471C479.608 442.547 478.817 442.618 478.026 442.683C478.006 442.683 477.986 442.688 477.967 442.688C477.536 442.727 477.106 442.756 476.675 442.791H476.67C476.449 442.381 476.23 441.969 476.013 441.552C475.94 441.412 475.902 441.256 475.902 441.098V327.417C475.902 326.693 475.931 325.964 475.98 325.245C476.05 324.258 476.172 323.275 476.347 322.301C477.174 317.758 479.043 314.681 481.167 314.672H780.15C780.46 314.674 780.766 314.739 781.05 314.862C781.467 315.047 781.845 315.311 782.161 315.64C782.59 316.086 782.957 316.588 783.252 317.132C784.47 319.558 785.172 322.211 785.312 324.923C785.312 324.952 785.317 324.981 785.317 325.011C785.385 325.803 785.42 326.61 785.415 327.417L785.483 337.898L785.527 344.148L785.66 363.76L785.708 370.725L785.924 442.228C785.924 442.488 785.821 442.737 785.637 442.92C785.454 443.103 785.205 443.206 784.945 443.206H781.011C780.751 443.206 780.502 443.103 780.319 442.92C780.135 442.737 780.032 442.488 780.032 442.228V333.584Z" fill="#E6E6E6"/>
<path d="M699.921 265.629H668.153C667.704 265.63 667.273 265.809 666.956 266.127C666.639 266.445 666.461 266.876 666.461 267.325V317.481H701.617V267.325C701.617 267.102 701.574 266.881 701.488 266.676C701.403 266.47 701.278 266.283 701.121 266.125C700.963 265.968 700.776 265.843 700.57 265.758C700.364 265.673 700.143 265.629 699.921 265.629ZM684.144 294.127C683.15 294.123 682.199 293.726 681.497 293.024C680.794 292.322 680.397 291.371 680.393 290.378V284.593C680.393 283.599 680.788 282.645 681.491 281.942C682.195 281.239 683.149 280.844 684.144 280.844C685.139 280.844 686.093 281.239 686.796 281.942C687.5 282.645 687.895 283.599 687.895 284.593V290.378C687.89 291.371 687.494 292.322 686.791 293.024C686.089 293.726 685.137 294.123 684.144 294.127Z" fill="#CCCCCC"/>
<path d="M666.352 315.877V320.716C666.353 320.967 666.452 321.207 666.63 321.385C666.807 321.562 667.048 321.662 667.299 321.662H700.78C701.031 321.661 701.271 321.561 701.448 321.384C701.625 321.207 701.725 320.967 701.726 320.716V315.877H666.352Z" fill="#3F3D56"/>
<path d="M752.524 187.354H616.732C615.565 187.356 614.447 187.82 613.622 188.644C612.797 189.469 612.333 190.586 612.331 191.753V283.338C612.332 284.504 612.796 285.623 613.621 286.447C614.446 287.272 615.565 287.736 616.732 287.737H752.524C753.691 287.736 754.81 287.272 755.635 286.447C756.46 285.623 756.924 284.504 756.925 283.338V191.753C756.923 190.586 756.459 189.469 755.634 188.644C754.809 187.82 753.691 187.356 752.524 187.354Z" fill="#E6E6E6"/>
<path d="M751.391 190.531H617.866C617.242 190.532 616.643 190.781 616.202 191.223C615.761 191.665 615.513 192.264 615.513 192.888V282.204C615.514 282.827 615.762 283.425 616.203 283.866C616.644 284.307 617.242 284.555 617.866 284.556H751.391C752.015 284.555 752.613 284.307 753.054 283.866C753.495 283.425 753.743 282.827 753.744 282.204V192.888C753.744 192.264 753.497 191.665 753.055 191.223C752.614 190.781 752.015 190.532 751.391 190.531Z" fill="white"/>
<path d="M725.383 323.346H645.943C645.725 323.346 645.511 323.298 645.314 323.204C645.118 323.111 644.945 322.975 644.808 322.806C644.671 322.637 644.573 322.44 644.522 322.229C644.471 322.017 644.468 321.797 644.513 321.585L645.745 315.733C645.816 315.406 645.996 315.113 646.256 314.902C646.516 314.691 646.84 314.575 647.175 314.574H724.15C724.485 314.575 724.809 314.691 725.07 314.902C725.33 315.113 725.51 315.406 725.58 315.733L726.812 321.585C726.857 321.797 726.854 322.017 726.803 322.229C726.752 322.44 726.654 322.637 726.517 322.806C726.38 322.975 726.207 323.111 726.011 323.204C725.815 323.298 725.6 323.346 725.383 323.346Z" fill="#CCCCCC"/>
<path d="M649.757 315.627H648.168C647.931 315.627 647.739 315.819 647.739 316.056V316.666C647.739 316.903 647.931 317.095 648.168 317.095H649.757C649.994 317.095 650.186 316.903 650.186 316.666V316.056C650.186 315.819 649.994 315.627 649.757 315.627Z" fill="#E6E6E6"/>
<path d="M654.65 315.627H653.062C652.825 315.627 652.633 315.819 652.633 316.056V316.666C652.633 316.903 652.825 317.095 653.062 317.095H654.65C654.887 317.095 655.079 316.903 655.079 316.666V316.056C655.079 315.819 654.887 315.627 654.65 315.627Z" fill="#E6E6E6"/>
<path d="M659.543 315.627H657.955C657.718 315.627 657.526 315.819 657.526 316.056V316.666C657.526 316.903 657.718 317.095 657.955 317.095H659.543C659.78 317.095 659.973 316.903 659.973 316.666V316.056C659.973 315.819 659.78 315.627 659.543 315.627Z" fill="#E6E6E6"/>
<path d="M664.437 315.627H662.848C662.611 315.627 662.419 315.819 662.419 316.056V316.666C662.419 316.903 662.611 317.095 662.848 317.095H664.437C664.674 317.095 664.866 316.903 664.866 316.666V316.056C664.866 315.819 664.674 315.627 664.437 315.627Z" fill="#E6E6E6"/>
<path d="M669.33 315.627H667.742C667.505 315.627 667.313 315.819 667.313 316.056V316.666C667.313 316.903 667.505 317.095 667.742 317.095H669.33C669.567 317.095 669.759 316.903 669.759 316.666V316.056C669.759 315.819 669.567 315.627 669.33 315.627Z" fill="#E6E6E6"/>
<path d="M674.223 315.627H672.635C672.398 315.627 672.206 315.819 672.206 316.056V316.666C672.206 316.903 672.398 317.095 672.635 317.095H674.223C674.46 317.095 674.653 316.903 674.653 316.666V316.056C674.653 315.819 674.46 315.627 674.223 315.627Z" fill="#E6E6E6"/>
<path d="M679.117 315.627H677.529C677.291 315.627 677.099 315.819 677.099 316.056V316.666C677.099 316.903 677.291 317.095 677.529 317.095H679.117C679.354 317.095 679.546 316.903 679.546 316.666V316.056C679.546 315.819 679.354 315.627 679.117 315.627Z" fill="#E6E6E6"/>
<path d="M684.01 315.627H682.422C682.185 315.627 681.993 315.819 681.993 316.056V316.666C681.993 316.903 682.185 317.095 682.422 317.095H684.01C684.247 317.095 684.439 316.903 684.439 316.666V316.056C684.439 315.819 684.247 315.627 684.01 315.627Z" fill="#E6E6E6"/>
<path d="M688.903 315.627H687.315C687.078 315.627 686.886 315.819 686.886 316.056V316.666C686.886 316.903 687.078 317.095 687.315 317.095H688.903C689.14 317.095 689.333 316.903 689.333 316.666V316.056C689.333 315.819 689.14 315.627 688.903 315.627Z" fill="#E6E6E6"/>
<path d="M693.797 315.627H692.208C691.971 315.627 691.779 315.819 691.779 316.056V316.666C691.779 316.903 691.971 317.095 692.208 317.095H693.797C694.034 317.095 694.226 316.903 694.226 316.666V316.056C694.226 315.819 694.034 315.627 693.797 315.627Z" fill="#E6E6E6"/>
<path d="M698.69 315.627H697.102C696.865 315.627 696.673 315.819 696.673 316.056V316.666C696.673 316.903 696.865 317.095 697.102 317.095H698.69C698.927 317.095 699.119 316.903 699.119 316.666V316.056C699.119 315.819 698.927 315.627 698.69 315.627Z" fill="#E6E6E6"/>
<path d="M703.583 315.627H701.995C701.758 315.627 701.566 315.819 701.566 316.056V316.666C701.566 316.903 701.758 317.095 701.995 317.095H703.583C703.82 317.095 704.013 316.903 704.013 316.666V316.056C704.013 315.819 703.82 315.627 703.583 315.627Z" fill="#E6E6E6"/>
<path d="M708.477 315.627H706.888C706.651 315.627 706.459 315.819 706.459 316.056V316.666C706.459 316.903 706.651 317.095 706.888 317.095H708.477C708.714 317.095 708.906 316.903 708.906 316.666V316.056C708.906 315.819 708.714 315.627 708.477 315.627Z" fill="#E6E6E6"/>
<path d="M713.37 315.627H711.782C711.545 315.627 711.353 315.819 711.353 316.056V316.666C711.353 316.903 711.545 317.095 711.782 317.095H713.37C713.607 317.095 713.799 316.903 713.799 316.666V316.056C713.799 315.819 713.607 315.627 713.37 315.627Z" fill="#E6E6E6"/>
<path d="M718.263 315.627H716.675C716.438 315.627 716.246 315.819 716.246 316.056V316.666C716.246 316.903 716.438 317.095 716.675 317.095H718.263C718.5 317.095 718.693 316.903 718.693 316.666V316.056C718.693 315.819 718.5 315.627 718.263 315.627Z" fill="#E6E6E6"/>
<path d="M723.157 315.627H721.569C721.331 315.627 721.139 315.819 721.139 316.056V316.666C721.139 316.903 721.331 317.095 721.569 317.095H723.157C723.394 317.095 723.586 316.903 723.586 316.666V316.056C723.586 315.819 723.394 315.627 723.157 315.627Z" fill="#E6E6E6"/>
<path d="M649.699 318.073H648.111C647.874 318.073 647.681 318.265 647.681 318.502V319.111C647.681 319.348 647.874 319.54 648.111 319.54H649.699C649.936 319.54 650.128 319.348 650.128 319.111V318.502C650.128 318.265 649.936 318.073 649.699 318.073Z" fill="#E6E6E6"/>
<path d="M654.592 318.073H653.004C652.767 318.073 652.575 318.265 652.575 318.502V319.111C652.575 319.348 652.767 319.54 653.004 319.54H654.592C654.829 319.54 655.021 319.348 655.021 319.111V318.502C655.021 318.265 654.829 318.073 654.592 318.073Z" fill="#E6E6E6"/>
<path d="M659.486 318.073H657.897C657.66 318.073 657.468 318.265 657.468 318.502V319.111C657.468 319.348 657.66 319.54 657.897 319.54H659.486C659.723 319.54 659.915 319.348 659.915 319.111V318.502C659.915 318.265 659.723 318.073 659.486 318.073Z" fill="#E6E6E6"/>
<path d="M664.379 318.073H662.791C662.554 318.073 662.361 318.265 662.361 318.502V319.111C662.361 319.348 662.554 319.54 662.791 319.54H664.379C664.616 319.54 664.808 319.348 664.808 319.111V318.502C664.808 318.265 664.616 318.073 664.379 318.073Z" fill="#E6E6E6"/>
<path d="M669.272 318.073H667.684C667.447 318.073 667.255 318.265 667.255 318.502V319.111C667.255 319.348 667.447 319.54 667.684 319.54H669.272C669.509 319.54 669.701 319.348 669.701 319.111V318.502C669.701 318.265 669.509 318.073 669.272 318.073Z" fill="#E6E6E6"/>
<path d="M674.166 318.073H672.577C672.34 318.073 672.148 318.265 672.148 318.502V319.111C672.148 319.348 672.34 319.54 672.577 319.54H674.166C674.403 319.54 674.595 319.348 674.595 319.111V318.502C674.595 318.265 674.403 318.073 674.166 318.073Z" fill="#E6E6E6"/>
<path d="M679.059 318.073H677.471C677.234 318.073 677.042 318.265 677.042 318.502V319.111C677.042 319.348 677.234 319.54 677.471 319.54H679.059C679.296 319.54 679.488 319.348 679.488 319.111V318.502C679.488 318.265 679.296 318.073 679.059 318.073Z" fill="#E6E6E6"/>
<path d="M683.952 318.073H682.364C682.127 318.073 681.935 318.265 681.935 318.502V319.111C681.935 319.348 682.127 319.54 682.364 319.54H683.952C684.189 319.54 684.382 319.348 684.382 319.111V318.502C684.382 318.265 684.189 318.073 683.952 318.073Z" fill="#E6E6E6"/>
<path d="M688.846 318.073H687.257C687.02 318.073 686.828 318.265 686.828 318.502V319.111C686.828 319.348 687.02 319.54 687.257 319.54H688.846C689.083 319.54 689.275 319.348 689.275 319.111V318.502C689.275 318.265 689.083 318.073 688.846 318.073Z" fill="#E6E6E6"/>
<path d="M693.739 318.073H692.151C691.914 318.073 691.721 318.265 691.721 318.502V319.111C691.721 319.348 691.914 319.54 692.151 319.54H693.739C693.976 319.54 694.168 319.348 694.168 319.111V318.502C694.168 318.265 693.976 318.073 693.739 318.073Z" fill="#E6E6E6"/>
<path d="M698.632 318.073H697.044C696.807 318.073 696.615 318.265 696.615 318.502V319.111C696.615 319.348 696.807 319.54 697.044 319.54H698.632C698.869 319.54 699.061 319.348 699.061 319.111V318.502C699.061 318.265 698.869 318.073 698.632 318.073Z" fill="#E6E6E6"/>
<path d="M703.526 318.073H701.937C701.7 318.073 701.508 318.265 701.508 318.502V319.111C701.508 319.348 701.7 319.54 701.937 319.54H703.526C703.763 319.54 703.955 319.348 703.955 319.111V318.502C703.955 318.265 703.763 318.073 703.526 318.073Z" fill="#E6E6E6"/>
<path d="M708.419 318.073H706.831C706.594 318.073 706.401 318.265 706.401 318.502V319.111C706.401 319.348 706.594 319.54 706.831 319.54H708.419C708.656 319.54 708.848 319.348 708.848 319.111V318.502C708.848 318.265 708.656 318.073 708.419 318.073Z" fill="#E6E6E6"/>
<path d="M713.312 318.073H711.724C711.487 318.073 711.295 318.265 711.295 318.502V319.111C711.295 319.348 711.487 319.54 711.724 319.54H713.312C713.549 319.54 713.741 319.348 713.741 319.111V318.502C713.741 318.265 713.549 318.073 713.312 318.073Z" fill="#E6E6E6"/>
<path d="M718.206 318.073H716.617C716.38 318.073 716.188 318.265 716.188 318.502V319.111C716.188 319.348 716.38 319.54 716.617 319.54H718.206C718.443 319.54 718.635 319.348 718.635 319.111V318.502C718.635 318.265 718.443 318.073 718.206 318.073Z" fill="#E6E6E6"/>
<path d="M723.099 318.073H721.511C721.274 318.073 721.082 318.265 721.082 318.502V319.111C721.082 319.348 721.274 319.54 721.511 319.54H723.099C723.336 319.54 723.528 319.348 723.528 319.111V318.502C723.528 318.265 723.336 318.073 723.099 318.073Z" fill="#E6E6E6"/>
<path d="M690.314 321.007H671.599C671.362 321.007 671.169 321.199 671.169 321.436V322.046C671.169 322.283 671.362 322.475 671.599 322.475H690.314C690.551 322.475 690.743 322.283 690.743 322.046V321.436C690.743 321.199 690.551 321.007 690.314 321.007Z" fill="#E6E6E6"/>
<path d="M744.679 202.836H619.741C619.611 202.834 619.487 202.78 619.396 202.687C619.305 202.594 619.255 202.47 619.255 202.34C619.255 202.21 619.305 202.085 619.396 201.993C619.487 201.9 619.611 201.846 619.741 201.843H744.679C744.809 201.846 744.932 201.9 745.023 201.993C745.114 202.085 745.165 202.21 745.165 202.34C745.165 202.47 745.114 202.594 745.023 202.687C744.932 202.78 744.809 202.834 744.679 202.836Z" fill="#CACACA"/>
<path d="M628.245 199.308C629.853 199.308 631.157 197.976 631.157 196.333C631.157 194.69 629.853 193.358 628.245 193.358C626.637 193.358 625.333 194.69 625.333 196.333C625.333 197.976 626.637 199.308 628.245 199.308Z" fill="#CCCCCC"/>
<path d="M638.304 199.308C639.912 199.308 641.216 197.976 641.216 196.333C641.216 194.69 639.912 193.358 638.304 193.358C636.696 193.358 635.392 194.69 635.392 196.333C635.392 197.976 636.696 199.308 638.304 199.308Z" fill="#CCCCCC"/>
<path d="M648.363 199.308C649.971 199.308 651.274 197.976 651.274 196.333C651.274 194.69 649.971 193.358 648.363 193.358C646.755 193.358 645.451 194.69 645.451 196.333C645.451 197.976 646.755 199.308 648.363 199.308Z" fill="#CCCCCC"/>
<path d="M738.622 194.095H731.477C731.336 194.098 731.201 194.156 731.102 194.257C731.002 194.358 730.947 194.494 730.947 194.636C730.947 194.778 731.002 194.913 731.102 195.015C731.201 195.116 731.336 195.174 731.477 195.177H738.622C738.764 195.174 738.899 195.116 738.998 195.015C739.097 194.913 739.153 194.778 739.153 194.636C739.153 194.494 739.097 194.358 738.998 194.257C738.899 194.156 738.764 194.098 738.622 194.095H738.622Z" fill="#CCCCCC"/>
<path d="M738.623 196.125H731.477C731.336 196.128 731.201 196.186 731.102 196.287C731.003 196.388 730.947 196.524 730.947 196.666C730.947 196.807 731.003 196.943 731.102 197.044C731.201 197.145 731.336 197.204 731.477 197.206H738.622C738.764 197.204 738.899 197.145 738.998 197.044C739.097 196.943 739.153 196.807 739.153 196.666C739.153 196.524 739.097 196.388 738.998 196.287C738.899 196.186 738.764 196.128 738.622 196.125H738.623Z" fill="#CCCCCC"/>
<path d="M738.622 198.152H731.477C731.336 198.155 731.201 198.213 731.102 198.314C731.002 198.415 730.947 198.551 730.947 198.693C730.947 198.834 731.002 198.97 731.102 199.071C731.201 199.173 731.336 199.231 731.477 199.234H738.622C738.764 199.231 738.899 199.173 738.998 199.071C739.097 198.97 739.153 198.834 739.153 198.693C739.153 198.551 739.097 198.415 738.998 198.314C738.899 198.213 738.764 198.155 738.622 198.152H738.622Z" fill="#CCCCCC"/>
<path d="M692.297 229.891H676.685C675.513 229.891 674.562 230.841 674.562 232.013C674.562 233.185 675.513 234.136 676.685 234.136H692.297C693.47 234.136 694.42 233.185 694.42 232.013C694.42 230.841 693.47 229.891 692.297 229.891Z" fill="#F77765"/>
<path d="M702.382 238.38H666.6C665.428 238.38 664.477 239.33 664.477 240.502C664.477 241.674 665.428 242.624 666.6 242.624H702.382C703.555 242.624 704.506 241.674 704.506 240.502C704.506 239.33 703.555 238.38 702.382 238.38Z" fill="#E6E6E6"/>
<path d="M702.382 246.868H666.6C665.428 246.868 664.477 247.818 664.477 248.99C664.477 250.162 665.428 251.112 666.6 251.112H702.382C703.555 251.112 704.506 250.162 704.506 248.99C704.506 247.818 703.555 246.868 702.382 246.868Z" fill="#E6E6E6"/>
<path d="M461.313 379.109L454.116 375.669L464.002 345.602L474.624 350.679L461.313 379.109Z" fill="#E9B8A9"/>
<path d="M509.563 374.262C509.039 374.59 508.516 374.912 507.987 375.234C506.935 375.879 505.873 376.513 504.81 377.136C504.276 377.448 503.737 377.76 503.203 378.066V378.082L503.171 378.087L503.161 378.093L502.347 378.294L501.178 375.208L500.639 373.787L499.878 371.773L498.482 368.091L491.134 348.7L502.558 345.884L502.986 347.632H502.992L503.203 348.499L507.194 364.678L508.008 367.985L508.035 368.085L508.527 370.062L508.949 371.773L509.42 373.686L509.563 374.262Z" fill="#E9B8A9"/>
<path d="M577.711 306.165C576.987 307.327 576.247 308.485 575.501 309.631C574.116 311.766 572.694 313.869 571.235 315.94C571.235 315.945 571.23 315.945 571.225 315.95C570.373 316.739 569.433 317.425 568.423 317.995C568.38 318.027 568.333 318.048 568.291 318.074C567.547 318.485 566.755 318.803 565.933 319.02C565.637 319.094 565.335 319.168 565.039 319.242C563.972 319.496 562.914 319.712 561.862 319.903C559.991 320.235 558.141 320.473 556.301 320.621C556.153 320.637 556.005 320.648 555.857 320.658C548.292 321.213 540.928 320.32 533.242 318.856C529.446 318.138 525.571 317.277 521.559 316.384C520.248 316.088 518.931 315.797 517.599 315.507C517.499 315.485 517.393 315.459 517.287 315.438C515.384 315.02 513.449 314.608 511.467 314.202C508.972 313.689 506.397 313.192 503.722 312.722L503.913 316.489C504.071 319.387 504.674 322.244 505.699 324.959C506.841 328.298 507.745 330.94 505.837 336.44L504.917 339.103C505.394 340.426 505.558 341.841 505.395 343.237C505.233 344.633 504.749 345.973 503.981 347.15L503.796 347.43L511.467 366.827L511.964 368.084H508.036L503.204 368.09H495.016L483.201 344.398L482.635 343.267V343.209L483.856 297.68C483.872 297.278 483.904 296.871 483.956 296.47C484.172 294.644 484.749 292.88 485.654 291.279C486.559 289.679 487.773 288.275 489.227 287.149C490.62 286.061 492.216 285.261 493.921 284.794C495.626 284.328 497.407 284.205 499.16 284.433L503.204 284.956L511.467 286.024L517.287 286.779L517.404 286.795L534.568 289.014L535.8 283.995L536.028 283.91L543.254 281.263L568.248 272.107L568.312 272.085L569.956 271.483L570.151 271.8C570.209 271.895 570.268 271.99 570.32 272.085C571.945 274.997 573.269 278.067 574.269 281.247C575.952 286.443 577.338 291.73 578.419 297.082C578.467 297.315 578.509 297.526 578.546 297.717L578.562 297.775C578.578 297.864 578.588 297.923 578.594 297.938C579.089 300.709 578.783 303.563 577.711 306.165Z" fill="#4D4C5A"/>
<path d="M578.766 289.386C578.687 289.048 578.586 288.705 578.48 288.372C577.641 285.851 576.663 283.378 575.552 280.964C574.304 278.217 572.808 275.274 571.027 272.088C570.165 270.545 569.238 268.94 568.246 267.274C567.749 266.439 567.233 265.589 566.697 264.722C566.676 264.682 566.653 264.643 566.628 264.606L566.475 264.352L541.745 267.66L532.536 268.891L531.986 273.477L531.854 274.613C531.849 274.613 531.849 274.613 531.854 274.618L531.484 277.715V277.72L530.993 281.809L530.95 281.804L517.285 280.034L503.202 278.211L495.637 277.234C493.884 277.006 492.103 277.128 490.398 277.594C488.692 278.061 487.097 278.861 485.704 279.95C484.251 281.076 483.036 282.48 482.131 284.08C481.226 285.68 480.649 287.445 480.434 289.27C480.386 289.64 480.354 290.02 480.338 290.395L473.202 307.298C468.931 317.406 466.212 328.101 465.135 339.021L459.901 355.744L460.646 355.812L471.737 356.843L474.666 357.118L481.115 347.707C481.85 346.635 482.548 345.53 483.198 344.4C484.269 342.553 485.221 340.64 486.048 338.672L499.998 305.491C501.077 305.676 502.145 305.852 503.202 306.019C508.092 306.812 512.786 307.458 517.285 307.958C531.912 309.591 544.579 309.718 555.855 308.334C559.021 307.948 562.082 307.441 565.037 306.812C566.121 306.585 567.19 306.34 568.246 306.077C568.494 306.019 568.738 305.961 568.981 305.898C571.166 305.335 573.174 304.233 574.823 302.693C576.471 301.153 577.707 299.225 578.417 297.085C579.265 294.604 579.386 291.933 578.766 289.386Z" fill="#4D4C5A"/>
<path d="M463.612 374.2L455.825 370.469L454.604 369.883L452.653 374.67L439.036 377.666C438.362 377.813 437.754 378.172 437.299 378.69C436.844 379.208 436.567 379.857 436.508 380.544C436.449 381.23 436.611 381.917 436.971 382.505C437.33 383.093 437.869 383.55 438.507 383.811L451.813 389.237L456.037 385.438L455.001 390.537L460.012 392.581L465.505 375.108L463.612 374.2Z" fill="white"/>
<path d="M511.467 366.827L511.964 368.085H511.467V366.827Z" fill="#2F2E41"/>
<path d="M508.755 368.353L500.596 371.179L499.315 371.621L501.299 376.394L493.732 388.1C493.357 388.678 493.177 389.361 493.219 390.049C493.26 390.736 493.52 391.393 493.962 391.922C494.403 392.451 495.002 392.826 495.671 392.99C496.341 393.155 497.045 393.102 497.682 392.838L510.957 387.336L511.284 381.666L514.137 386.018L519.137 383.947L510.74 367.668L508.755 368.353Z" fill="white"/>
<path d="M459.233 193.531C459.62 194.285 460.167 194.944 460.836 195.463C461.506 195.982 462.281 196.348 463.107 196.535C463.933 196.722 464.791 196.726 465.619 196.546C466.446 196.367 467.225 196.008 467.899 195.495L485.056 206.878L485.089 196.183L468.791 187.012C467.854 185.937 466.555 185.244 465.14 185.062C463.725 184.881 462.293 185.225 461.115 186.028C459.937 186.832 459.094 188.04 458.747 189.422C458.401 190.805 458.573 192.267 459.233 193.531V193.531Z" fill="#E9B8A9"/>
<path d="M472.051 198.475L480.055 189.373L512.649 208.713L555.856 204.758C557.991 204.562 560.144 204.839 562.16 205.569C564.177 206.298 566.008 207.463 567.524 208.979C569.04 210.496 570.203 212.327 570.931 214.343C571.659 216.359 571.934 218.511 571.736 220.646C571.375 224.5 569.499 228.054 566.519 230.528C563.539 233.002 559.699 234.193 555.841 233.84L507.18 229.338L472.051 198.475Z" fill="#CCCCCC"/>
<path d="M572.332 198.615L572.257 198.521C566.179 197.922 560.057 199.097 554.634 201.906C549.211 204.714 544.72 209.035 541.705 214.343L538.038 220.799C526.177 235.292 534.796 245.286 535.312 246.772L531.195 265.744L532.118 272.094L532.578 273.98L579.573 298.523C582.248 285.674 579.661 274.725 569.914 266.362L579.345 237.032C581.436 230.547 581.89 223.646 580.666 216.944C579.443 210.241 576.58 203.944 572.332 198.615Z" fill="#CCCCCC"/>
<path d="M534.966 341.102H519.892C519.063 341.101 518.262 340.801 517.636 340.258C517.01 339.714 516.601 338.963 516.485 338.143C515.554 331.297 515.554 324.357 516.485 317.512C516.6 316.701 517 315.958 517.614 315.416C518.228 314.874 519.015 314.568 519.834 314.554C524.577 312.429 529.684 312.429 535.018 314.553C535.515 314.56 536.004 314.675 536.451 314.891C536.899 315.106 537.293 315.417 537.608 315.802C537.936 316.202 538.17 316.669 538.295 317.171C538.419 317.673 538.43 318.196 538.327 318.703C537.116 324.726 537.116 330.929 538.327 336.952C538.43 337.458 538.419 337.982 538.295 338.483C538.17 338.985 537.936 339.453 537.608 339.853C537.288 340.244 536.885 340.559 536.428 340.775C535.971 340.991 535.471 341.103 534.966 341.102Z" fill="#F77765"/>
<path d="M533.387 322.419H520.7C520.595 322.42 520.491 322.4 520.394 322.361C520.297 322.321 520.209 322.263 520.135 322.189C520.06 322.116 520.001 322.028 519.961 321.931C519.921 321.835 519.9 321.731 519.9 321.627C519.9 321.522 519.921 321.418 519.961 321.322C520.001 321.225 520.06 321.137 520.135 321.064C520.209 320.99 520.297 320.932 520.394 320.892C520.491 320.853 520.595 320.833 520.7 320.834H533.387C533.492 320.833 533.596 320.853 533.693 320.892C533.79 320.932 533.878 320.99 533.952 321.064C534.027 321.137 534.086 321.225 534.126 321.322C534.166 321.418 534.187 321.522 534.187 321.627C534.187 321.731 534.166 321.835 534.126 321.931C534.086 322.028 534.027 322.116 533.952 322.189C533.878 322.263 533.79 322.321 533.693 322.361C533.596 322.4 533.492 322.42 533.387 322.419Z" fill="white"/>
<path d="M533.387 328.759H520.7C520.595 328.76 520.491 328.741 520.394 328.701C520.297 328.662 520.209 328.603 520.135 328.53C520.06 328.456 520.001 328.368 519.961 328.272C519.921 328.175 519.9 328.072 519.9 327.967C519.9 327.862 519.921 327.759 519.961 327.662C520.001 327.565 520.06 327.478 520.135 327.404C520.209 327.33 520.297 327.272 520.394 327.233C520.491 327.193 520.595 327.173 520.7 327.174H533.387C533.492 327.173 533.596 327.193 533.693 327.233C533.79 327.272 533.878 327.33 533.952 327.404C534.027 327.478 534.086 327.565 534.126 327.662C534.166 327.759 534.187 327.862 534.187 327.967C534.187 328.072 534.166 328.175 534.126 328.272C534.086 328.368 534.027 328.456 533.952 328.53C533.878 328.603 533.79 328.662 533.693 328.701C533.596 328.741 533.492 328.76 533.387 328.759Z" fill="white"/>
<path d="M533.387 335.1H520.7C520.595 335.101 520.491 335.081 520.394 335.042C520.297 335.002 520.209 334.944 520.134 334.87C520.06 334.797 520.001 334.709 519.96 334.612C519.92 334.516 519.899 334.412 519.899 334.307C519.899 334.203 519.92 334.099 519.96 334.002C520.001 333.906 520.06 333.818 520.134 333.744C520.209 333.67 520.297 333.612 520.394 333.573C520.491 333.533 520.595 333.514 520.7 333.515H533.387C533.492 333.514 533.596 333.533 533.693 333.573C533.79 333.612 533.878 333.67 533.953 333.744C534.027 333.818 534.086 333.906 534.127 334.002C534.167 334.099 534.188 334.203 534.188 334.307C534.188 334.412 534.167 334.516 534.127 334.612C534.086 334.709 534.027 334.797 533.953 334.87C533.878 334.944 533.79 335.002 533.693 335.042C533.596 335.081 533.492 335.101 533.387 335.1Z" fill="white"/>
<path d="M461.996 198.753H446.923C446.093 198.753 445.292 198.453 444.666 197.909C444.041 197.366 443.632 196.615 443.515 195.795C442.585 188.949 442.585 182.009 443.515 175.163C443.631 174.353 444.031 173.61 444.645 173.067C445.259 172.525 446.046 172.22 446.865 172.205C451.607 170.08 456.715 170.081 462.048 172.205C462.545 172.211 463.034 172.327 463.482 172.542C463.929 172.758 464.324 173.069 464.638 173.453C464.966 173.853 465.201 174.321 465.325 174.823C465.449 175.325 465.46 175.848 465.357 176.354C464.146 182.377 464.146 188.581 465.357 194.603C465.46 195.11 465.449 195.633 465.325 196.135C465.201 196.637 464.966 197.105 464.638 197.505C464.318 197.896 463.915 198.211 463.458 198.427C463.001 198.643 462.502 198.754 461.996 198.753Z" fill="#F77765"/>
<path d="M460.418 180.071H447.73C447.626 180.072 447.522 180.052 447.425 180.012C447.328 179.973 447.24 179.915 447.165 179.841C447.091 179.767 447.032 179.68 446.991 179.583C446.951 179.486 446.93 179.383 446.93 179.278C446.93 179.173 446.951 179.07 446.991 178.973C447.032 178.877 447.091 178.789 447.165 178.715C447.24 178.642 447.328 178.583 447.425 178.544C447.522 178.505 447.626 178.485 447.73 178.486H460.418C460.522 178.485 460.626 178.505 460.723 178.544C460.82 178.583 460.909 178.642 460.983 178.715C461.057 178.789 461.116 178.877 461.157 178.973C461.197 179.07 461.218 179.173 461.218 179.278C461.218 179.383 461.197 179.486 461.157 179.583C461.116 179.68 461.057 179.767 460.983 179.841C460.909 179.915 460.82 179.973 460.723 180.012C460.626 180.052 460.522 180.072 460.418 180.071Z" fill="white"/>
<path d="M460.418 186.411H447.73C447.626 186.412 447.522 186.392 447.425 186.353C447.328 186.313 447.24 186.255 447.165 186.181C447.091 186.108 447.032 186.02 446.991 185.923C446.951 185.827 446.93 185.723 446.93 185.619C446.93 185.514 446.951 185.41 446.991 185.314C447.032 185.217 447.091 185.129 447.165 185.056C447.24 184.982 447.328 184.924 447.425 184.884C447.522 184.845 447.626 184.825 447.73 184.826H460.418C460.522 184.825 460.626 184.845 460.723 184.884C460.82 184.924 460.909 184.982 460.983 185.056C461.057 185.129 461.116 185.217 461.157 185.314C461.197 185.41 461.218 185.514 461.218 185.619C461.218 185.723 461.197 185.827 461.157 185.923C461.116 186.02 461.057 186.108 460.983 186.181C460.909 186.255 460.82 186.313 460.723 186.353C460.626 186.392 460.522 186.412 460.418 186.411Z" fill="white"/>
<path d="M460.418 192.752H447.73C447.626 192.753 447.522 192.733 447.425 192.693C447.328 192.654 447.239 192.596 447.165 192.522C447.09 192.448 447.031 192.361 446.991 192.264C446.951 192.167 446.93 192.064 446.93 191.959C446.93 191.854 446.951 191.751 446.991 191.654C447.031 191.557 447.09 191.47 447.165 191.396C447.239 191.322 447.328 191.264 447.425 191.225C447.522 191.185 447.626 191.166 447.73 191.167H460.418C460.522 191.166 460.626 191.185 460.724 191.225C460.821 191.264 460.909 191.322 460.983 191.396C461.058 191.47 461.117 191.557 461.157 191.654C461.197 191.751 461.218 191.854 461.218 191.959C461.218 192.064 461.197 192.167 461.157 192.264C461.117 192.361 461.058 192.448 460.983 192.522C460.909 192.596 460.821 192.654 460.724 192.693C460.626 192.733 460.522 192.753 460.418 192.752Z" fill="white"/>
<path d="M197.372 237.416H182.298C181.469 237.415 180.668 237.116 180.042 236.572C179.416 236.029 179.008 235.278 178.891 234.457C177.96 227.611 177.96 220.671 178.891 213.826C179.006 213.015 179.407 212.272 180.02 211.73C180.634 211.188 181.421 210.882 182.24 210.868C186.983 208.743 192.091 208.743 197.424 210.867C197.921 210.874 198.41 210.989 198.857 211.205C199.305 211.421 199.7 211.731 200.014 212.116C200.342 212.516 200.577 212.984 200.701 213.485C200.825 213.987 200.836 214.51 200.733 215.017C199.522 221.04 199.522 227.243 200.733 233.266C200.836 233.773 200.825 234.296 200.701 234.798C200.577 235.299 200.342 235.767 200.014 236.167C199.694 236.558 199.291 236.873 198.834 237.089C198.377 237.305 197.878 237.417 197.372 237.416Z" fill="#F77765"/>
<path d="M195.793 218.733H183.106C183.001 218.734 182.898 218.714 182.801 218.675C182.703 218.636 182.615 218.577 182.541 218.504C182.467 218.43 182.407 218.342 182.367 218.246C182.327 218.149 182.306 218.045 182.306 217.941C182.306 217.836 182.327 217.732 182.367 217.636C182.407 217.539 182.467 217.452 182.541 217.378C182.615 217.304 182.703 217.246 182.801 217.207C182.898 217.167 183.001 217.147 183.106 217.148H195.793C195.898 217.147 196.002 217.167 196.099 217.207C196.196 217.246 196.284 217.304 196.359 217.378C196.433 217.452 196.492 217.539 196.532 217.636C196.573 217.732 196.593 217.836 196.593 217.941C196.593 218.045 196.573 218.149 196.532 218.246C196.492 218.342 196.433 218.43 196.359 218.504C196.284 218.577 196.196 218.636 196.099 218.675C196.002 218.714 195.898 218.734 195.793 218.733Z" fill="white"/>
<path d="M195.793 225.074H183.106C183.001 225.075 182.898 225.055 182.801 225.015C182.703 224.976 182.615 224.918 182.541 224.844C182.467 224.77 182.407 224.683 182.367 224.586C182.327 224.489 182.306 224.386 182.306 224.281C182.306 224.176 182.327 224.073 182.367 223.976C182.407 223.88 182.467 223.792 182.541 223.718C182.615 223.645 182.703 223.586 182.801 223.547C182.898 223.507 183.001 223.488 183.106 223.489H195.793C195.898 223.488 196.002 223.507 196.099 223.547C196.196 223.586 196.284 223.645 196.359 223.718C196.433 223.792 196.492 223.88 196.532 223.976C196.573 224.073 196.593 224.176 196.593 224.281C196.593 224.386 196.573 224.489 196.532 224.586C196.492 224.683 196.433 224.77 196.359 224.844C196.284 224.918 196.196 224.976 196.099 225.015C196.002 225.055 195.898 225.075 195.793 225.074Z" fill="white"/>
<path d="M195.793 231.414H183.106C183.001 231.415 182.897 231.395 182.8 231.356C182.703 231.316 182.615 231.258 182.541 231.185C182.466 231.111 182.407 231.023 182.367 230.926C182.326 230.83 182.306 230.726 182.306 230.621C182.306 230.517 182.326 230.413 182.367 230.316C182.407 230.22 182.466 230.132 182.541 230.058C182.615 229.985 182.703 229.926 182.8 229.887C182.897 229.848 183.001 229.828 183.106 229.829H195.793C195.898 229.828 196.002 229.848 196.099 229.887C196.196 229.926 196.285 229.985 196.359 230.058C196.433 230.132 196.493 230.22 196.533 230.316C196.573 230.413 196.594 230.517 196.594 230.621C196.594 230.726 196.573 230.83 196.533 230.926C196.493 231.023 196.433 231.111 196.359 231.185C196.285 231.258 196.196 231.316 196.099 231.356C196.002 231.395 195.898 231.415 195.793 231.414Z" fill="white"/>
<path d="M539.383 321.842C540.112 321.412 540.738 320.826 541.217 320.128C541.695 319.429 542.015 318.634 542.153 317.799C542.291 316.963 542.244 316.108 542.015 315.292C541.787 314.477 541.382 313.722 540.829 313.08L551.181 295.286L540.497 295.888L532.305 312.693C531.287 313.692 530.671 315.029 530.574 316.451C530.477 317.873 530.905 319.282 531.778 320.41C532.65 321.538 533.906 322.306 535.308 322.57C536.709 322.834 538.159 322.575 539.383 321.842V321.842Z" fill="#E9B8A9"/>
<path d="M543.56 308.76L533.994 301.314L551.376 267.647L544.863 224.774C544.541 222.654 544.69 220.49 545.299 218.435C545.908 216.38 546.962 214.484 548.387 212.882C549.811 211.279 551.571 210.01 553.542 209.164C555.513 208.318 557.645 207.916 559.789 207.987C563.66 208.119 567.321 209.78 569.968 212.606C572.616 215.433 574.033 219.193 573.91 223.063L572.301 271.88L543.56 308.76Z" fill="#CCCCCC"/>
<path d="M81.2205 299.562C81.823 298.957 82.2854 298.227 82.5751 297.424C82.8648 296.621 82.9748 295.764 82.8974 294.914C82.8199 294.063 82.5568 293.24 82.1267 292.503C81.6966 291.765 81.1099 291.131 80.408 290.644L89.7112 244.46L79.4375 247.757L71.9908 292.429C71.2513 293.661 70.9899 295.122 71.2561 296.535C71.5224 297.948 72.2978 299.213 73.4355 300.093C74.5732 300.972 75.994 301.404 77.4288 301.306C78.8637 301.208 80.2128 300.588 81.2205 299.562H81.2205Z" fill="#9E616A"/>
<path d="M94.9573 201.848L88.583 197.039C88.583 197.039 82.9599 196.641 81.964 206.777C80.9681 216.912 78.9231 236.664 78.9231 236.664L69.1692 281.817L82.6713 284.779L93.1185 236.051L99.3857 221.581L94.9573 201.848Z" fill="#CCCCCC"/>
<path d="M84.4485 275.578L120.368 274.98L123.361 250.448H84.4485V275.578Z" fill="#9E616A"/>
<path d="M116.776 426.541H125.068L129.013 394.574L116.774 394.575L116.776 426.541Z" fill="#9E616A"/>
<path d="M64.8267 427.309L73.1188 427.25L76.8394 395.256L66.0548 397.729L64.8267 427.309Z" fill="#9E616A"/>
<path d="M90.7618 229.321L88.8831 234.203L89.2585 239.086L126.031 251.816L124.206 230.448L120.073 225.565L90.7618 229.321Z" fill="#FFB6B6"/>
<path d="M106.537 185.383C113.791 185.383 119.671 179.506 119.671 172.256C119.671 165.006 113.791 159.129 106.537 159.129C99.2839 159.129 93.4038 165.006 93.4038 172.256C93.4038 179.506 99.2839 185.383 106.537 185.383Z" fill="#9E616A"/>
<path d="M114.719 422.453L127.827 421.671V427.284L140.29 435.887C140.905 436.312 141.369 436.922 141.613 437.629C141.857 438.336 141.868 439.102 141.646 439.816C141.423 440.529 140.978 441.153 140.375 441.596C139.773 442.039 139.044 442.278 138.296 442.278H122.69L120 436.726L118.95 442.278H113.066L114.719 422.453Z" fill="white"/>
<path d="M61.9903 423.24L75.0927 422.366L75.132 427.98L87.6544 436.495C88.2729 436.915 88.7408 437.522 88.9896 438.227C89.2385 438.932 89.2554 439.698 89.0378 440.414C88.8202 441.129 88.3795 441.756 87.78 442.203C87.1806 442.651 86.4538 442.895 85.7058 442.9L70.1003 443.009L67.3716 437.476L66.3602 443.035L60.4763 443.077L61.9903 423.24Z" fill="white"/>
<path d="M62.2466 402.799L68.2847 354.56L75.4686 303.701C70.2076 293.936 82.0538 263.612 82.0538 263.612L83.7259 263.692L121.573 270.828L121.565 270.792C129.306 291.895 131.871 302.32 131.447 324.792L129.922 405.574H130.4C131.194 405.574 131.955 405.89 132.517 406.451C133.078 407.012 133.393 407.773 133.393 408.566C133.393 409.36 133.078 410.121 132.517 410.682C131.955 411.243 131.194 411.558 130.4 411.558H115.434C115.04 411.559 114.65 411.482 114.287 411.332C113.923 411.182 113.592 410.961 113.314 410.684C113.035 410.406 112.814 410.076 112.664 409.712C112.513 409.349 112.435 408.96 112.435 408.566C112.435 408.173 112.513 407.783 112.664 407.42C112.814 407.057 113.035 406.727 113.314 406.449C113.592 406.171 113.923 405.951 114.287 405.801C114.65 405.651 115.04 405.574 115.434 405.574H115.82L102.082 309.386L90.435 349.774L77.2645 402.428C82.0538 401.232 81.3101 404.004 81.3101 405.574C81.3101 406.368 80.9948 407.129 80.4334 407.69C79.8721 408.251 79.1107 408.566 78.3169 408.566H63.3505C62.6544 408.567 61.9798 408.325 61.4431 407.882C60.9064 407.439 60.5412 406.823 60.4104 406.139C60.2796 405.456 60.3915 404.748 60.7267 404.139C61.0619 403.529 61.5994 403.055 62.2466 402.799H62.2466Z" fill="#4D4C5A"/>
<path d="M79.1068 265.182L80.3042 253.216C80.4285 252.727 80.7043 252.291 81.092 251.969C81.4797 251.647 81.9594 251.456 82.4624 251.424C82.9613 245.723 85.0602 221.13 85.1856 220.057L85.1905 220.012L86.1449 199.634C86.1796 198.894 86.4858 198.192 87.0051 197.664C87.5244 197.135 88.2204 196.816 88.9602 196.768L94.0013 196.438C94.0705 196.436 94.136 196.407 94.1841 196.357C94.2322 196.307 94.2591 196.241 94.2591 196.172C94.2591 195.615 94.3687 195.064 94.5818 194.55C94.7948 194.036 95.1071 193.569 95.5007 193.176C95.8944 192.782 96.3617 192.47 96.8761 192.257C97.3904 192.044 97.9417 191.935 98.4984 191.935H113.424C114.39 191.935 115.324 192.288 116.049 192.927C116.773 193.567 117.24 194.449 117.36 195.407C117.367 195.473 117.398 195.534 117.448 195.578C117.498 195.622 117.562 195.646 117.628 195.644H117.63C119.326 195.609 120.978 196.183 122.287 197.262C123.596 198.34 124.474 199.852 124.763 201.523C126.804 213.388 130.893 240.319 128.871 255.291C128.168 260.503 129.685 256.375 129.951 260.736C129.977 261.158 129.92 261.58 129.783 261.979C129.646 262.379 129.431 262.747 129.151 263.064C129.724 263.272 130.192 263.697 130.453 264.248C130.714 264.799 130.747 265.43 130.545 266.005L130.807 265.94C130.731 266.245 130.594 266.532 130.407 266.784C130.219 267.036 129.983 267.249 129.713 267.41C129.443 267.571 129.144 267.678 128.833 267.723C128.522 267.769 128.205 267.753 127.9 267.676L88.852 272.964C87.5696 272.641 78.7836 266.464 79.1068 265.182Z" fill="#CCCCCC"/>
<path d="M183.448 216.528C183.204 217.346 182.783 218.1 182.215 218.738C181.647 219.376 180.946 219.881 180.162 220.219C179.377 220.557 178.528 220.718 177.674 220.693C176.82 220.667 175.982 220.454 175.22 220.07L160.124 233.839L158.12 223.243L172.772 211.825C173.503 210.588 174.662 209.661 176.031 209.22C177.4 208.78 178.884 208.857 180.2 209.437C181.516 210.016 182.573 211.058 183.172 212.365C183.771 213.672 183.869 215.153 183.449 216.528H183.448Z" fill="#9E616A"/>
<path d="M130.907 206.003C130.907 206.003 125.643 194.113 118.995 196.477C112.346 198.84 115.779 210.376 115.779 210.376L140.757 247.994C140.757 247.994 176.783 224.895 172.402 224.732C168.022 224.569 166.711 216.605 166.711 216.605L147.67 226.114L147.026 222.729L145.994 223.761L143.329 221.665L130.907 206.003Z" fill="#CCCCCC"/>
<path d="M561.498 192.942C571.625 192.942 579.834 184.736 579.834 174.615C579.834 164.493 571.625 156.288 561.498 156.288C551.371 156.288 543.162 164.493 543.162 174.615C543.162 184.736 551.371 192.942 561.498 192.942Z" fill="#E9B8A9"/>
<path d="M620.346 201.582C618.229 204.579 615.141 206.753 611.605 207.733C610.189 208.154 608.728 208.402 607.253 208.472C607.071 206.805 606.635 205.176 605.959 203.64C606.028 205.274 605.801 206.907 605.288 208.461C603.073 208.335 600.908 207.755 598.927 206.757C596.981 205.779 595.29 204.361 593.988 202.615C592.686 200.87 591.809 198.845 591.426 196.702C590.65 191.689 592.923 186.767 593.745 181.761C594.571 176.756 593.021 170.417 588.119 169.101C584.386 168.099 584.805 168.532 581.701 170.835C584.929 175.606 573.006 193.089 568.126 191.564C565.367 190.703 563.601 188.172 563.031 188.172C559.196 194.776 566.418 205.902 559.14 208.212L559.739 207.613C564.132 202.212 554.95 190.781 559.343 185.38C560.569 183.868 561.874 182.078 561.512 180.167C561.169 178.35 558.284 177.389 557.439 178.882C558.959 175.403 556.715 170.76 553.001 169.867C549.701 169.071 549.761 170.051 546.451 170.477C546.234 169.047 545.83 167.652 545.248 166.327C545.308 167.754 545.142 169.182 544.754 170.556C543.584 170.533 542.455 170.125 541.541 169.395C538.841 167.221 539.388 162.653 541.797 160.161C544.211 157.67 547.797 156.773 551.217 156.193C552.211 149.273 571.314 148.551 573.846 155.465C574.925 150.302 581.392 147.622 586.419 149.224C591.445 150.826 594.933 155.518 596.77 160.463C598.606 165.404 599.119 170.722 600.25 175.871C601.382 181.019 603.293 186.262 607.23 189.77C611.167 193.276 617.582 194.436 621.73 191.18C622.333 192.901 622.521 194.739 622.281 196.546C622.041 198.354 621.378 200.079 620.346 201.582Z" fill="#2F2E41"/>
<path d="M792.374 243.404L789.807 256.277C789.613 257.261 789.411 258.263 789.191 259.256C787.046 258.812 784.821 258.936 782.738 259.616C784.391 261.976 785.871 264.452 787.169 267.024C785.552 272.006 783.178 276.61 779.204 279.94C776.55 282.115 773.38 283.57 770 284.164C766.62 284.758 763.144 284.472 759.907 283.332L760.021 282.823C755.748 274.537 758.069 264.089 763.379 256.435C766.088 252.66 769.297 249.269 772.918 246.357C776.505 243.369 780.382 240.689 784.224 238.044C785.087 237.451 786.107 237.129 787.154 237.118C788.201 237.108 789.228 237.409 790.103 237.984C790.978 238.56 791.661 239.383 792.066 240.348C792.47 241.314 792.577 242.378 792.374 243.404Z" fill="#E4E4E4"/>
<path d="M760.821 314.306C759.74 306.439 758.629 298.472 759.387 290.521C760.061 283.46 762.215 276.563 766.604 270.908C768.933 267.911 771.768 265.344 774.98 263.322C775.817 262.795 776.588 264.121 775.754 264.646C770.197 268.156 765.898 273.34 763.479 279.449C760.806 286.243 760.377 293.65 760.841 300.867C761.12 305.231 761.71 309.566 762.305 313.898C762.353 314.094 762.324 314.301 762.224 314.476C762.125 314.651 761.962 314.782 761.769 314.841C761.572 314.894 761.363 314.868 761.186 314.767C761.01 314.667 760.879 314.501 760.824 314.305L760.821 314.306Z" fill="#F2F2F2"/>
<path d="M91.0799 164.218C89.0656 165.185 86.8109 163.731 85.0718 162.291L85.6939 162.828C82.6204 165.816 81.1834 170.116 80.4813 174.349C79.7785 178.578 79.7001 182.902 78.8152 187.1C77.9295 191.294 76.0924 195.508 72.661 198.077C68.0639 201.517 61.7235 201.297 56.082 200.242C56.0069 200.227 55.9368 200.215 55.8617 200.2C57.3796 195.819 57.9967 191.177 57.6758 186.553C56.1636 191.187 53.5893 195.405 50.1579 198.869C46.4175 197.84 42.7666 196.51 39.2408 194.893C36.9596 193.843 34.5032 192.408 33.87 189.979C33.2353 187.567 34.7093 185.038 36.6802 183.515C38.6511 181.992 41.0701 181.198 43.3154 180.113C45.5571 179.034 47.7754 177.494 48.6729 175.17C50.7431 169.824 44.8458 163.69 47.1441 158.435C48.2774 155.851 51.0534 154.445 53.6626 153.361C57.6458 151.711 61.7361 150.332 65.9054 149.234C69.5655 148.269 73.3871 147.519 77.1156 148.152C80.8442 148.784 84.497 151.051 85.8389 154.59C88.078 155.346 90.4551 156.199 91.8921 158.082C93.3284 159.962 93.2126 163.197 91.0799 164.218Z" fill="#2F2E41"/>
<path d="M109.003 158.024C103.24 153.477 98.581 154.253 94.9868 157.078C94.3826 156.406 91.8112 158.254 90.9406 157.989L87.7916 163.897C86.1712 166.755 85.5064 169.673 85.7683 171.315C82.7877 179.669 89.856 185.311 98.2149 188.29C101.55 189.487 105.19 189.539 108.558 188.439L108.661 187.016L109.294 188.183C109.294 188.183 116.936 203.909 118.741 204.615C117.646 201.774 114.756 188.273 113.949 185.458C112.843 181.629 113.599 175.546 114.249 171.816C114.654 169.516 114.675 167.165 114.311 164.859L114.295 164.758L116.083 168.365L120.095 165.844C118.562 161.381 118.531 156.042 109.003 158.024Z" fill="#2F2E41"/>
<path d="M6 38H357" stroke="#E6E6E6" stroke-width="2" stroke-linecap="round"/>
</svg>
